<mxfile host="65bd71144e">
    <diagram id="KPkbjoFniX4YVMLm4hhz" name="Общая карта">
        <mxGraphModel dx="9364" dy="5452" grid="1" gridSize="10" guides="1" tooltips="1" connect="1" arrows="1" fold="1" page="1" pageScale="1" pageWidth="827" pageHeight="1169" math="0" shadow="0">
            <root>
                <object label="" New="" id="0">
                    <mxCell/>
                </object>
                <mxCell id="1" parent="0"/>
                <mxCell id="_nqJVA25CXtKAcP3GjvM-1" value="" style="rounded=1;whiteSpace=wrap;html=1;fillColor=#dae8fc;arcSize=5;strokeWidth=2;strokeColor=#6c8ebf;" parent="1" vertex="1">
                    <mxGeometry x="-110" y="2700" width="6070" height="4180" as="geometry"/>
                </mxCell>
                <mxCell id="_nqJVA25CXtKAcP3GjvM-2" value="&lt;font style=&quot;color: rgb(255, 255, 255); font-size: 100px;&quot;&gt;&amp;nbsp; IT департамент&lt;/font&gt;" style="shape=rect;strokeColor=default;fillColor=#7EA6E0;strokeWidth=4;dashed=0;rounded=1;arcSize=20;fontColor=#ffffff;fontSize=50;spacing=2;spacingTop=-2;align=left;autosize=1;spacingLeft=4;resizeWidth=0;resizeHeight=0;perimeter=none;html=1;whiteSpace=wrap;" parent="1" vertex="1">
                    <mxGeometry x="30" y="2639" width="850" height="151" as="geometry"/>
                </mxCell>
                <mxCell id="_nqJVA25CXtKAcP3GjvM-3" value="" style="rounded=1;whiteSpace=wrap;html=1;fillColor=#fff2cc;strokeColor=#d6b656;strokeWidth=2;arcSize=5;container=0;recursiveResize=0;" parent="1" vertex="1">
                    <mxGeometry x="43" y="3220" width="1287" height="2120" as="geometry"/>
                </mxCell>
                <mxCell id="_nqJVA25CXtKAcP3GjvM-4" value="&lt;b style=&quot;text-align: center;&quot;&gt;&lt;font style=&quot;color: rgb(255, 255, 255); font-size: 70px;&quot;&gt;&amp;nbsp; Финансы и развитие&lt;/font&gt;&lt;/b&gt;" style="shape=rect;strokeColor=default;fillColor=#4D4D4D;strokeWidth=2;dashed=0;rounded=1;arcSize=20;fontColor=#ffffff;fontSize=30;spacing=2;spacingTop=-2;align=left;autosize=1;spacingLeft=4;resizeWidth=0;resizeHeight=0;perimeter=none;html=1;whiteSpace=wrap;" parent="_nqJVA25CXtKAcP3GjvM-3" vertex="1">
                    <mxGeometry x="57" y="-58" width="843" height="120" as="geometry"/>
                </mxCell>
                <UserObject label="&lt;span style=&quot;font-size: 50px;&quot;&gt;&lt;b&gt;Управление проектами&lt;/b&gt;&lt;/span&gt;" id="_nqJVA25CXtKAcP3GjvM-5">
                    <mxCell style="html=1;outlineConnect=0;whiteSpace=wrap;fillColor=#F5DEAA;shape=mxgraph.archimate3.application;appType=capability;archiType=rounded;" parent="_nqJVA25CXtKAcP3GjvM-3" vertex="1">
                        <mxGeometry x="164" y="130" width="335" height="167.5" as="geometry"/>
                    </mxCell>
                </UserObject>
                <mxCell id="Me7C-beOo1ijLLEAisfv-1" value="" style="html=1;outlineConnect=0;whiteSpace=wrap;fillColor=#666666;shape=mxgraph.archimate3.capability;" parent="_nqJVA25CXtKAcP3GjvM-3" vertex="1">
                    <mxGeometry x="1117" y="70" width="100" height="100" as="geometry"/>
                </mxCell>
                <mxCell id="_nqJVA25CXtKAcP3GjvM-6" value="&lt;span style=&quot;font-size: 50px;&quot;&gt;&lt;b&gt;Управление архитектурой&lt;/b&gt;&lt;/span&gt;" style="html=1;outlineConnect=0;whiteSpace=wrap;fillColor=#F5DEAA;shape=mxgraph.archimate3.application;appType=capability;archiType=rounded;" parent="1" vertex="1">
                    <mxGeometry x="199.5" y="3630" width="335" height="167.5" as="geometry"/>
                </mxCell>
                <mxCell id="_nqJVA25CXtKAcP3GjvM-7" value="&lt;span style=&quot;font-size: 50px;&quot;&gt;&lt;b&gt;Управление финансами&lt;/b&gt;&lt;/span&gt;" style="html=1;outlineConnect=0;whiteSpace=wrap;fillColor=#F5DEAA;shape=mxgraph.archimate3.application;appType=capability;archiType=rounded;" parent="1" vertex="1">
                    <mxGeometry x="199.5" y="3940" width="335" height="167.5" as="geometry"/>
                </mxCell>
                <mxCell id="UlkbVE2gaZ46MG-YNUkK-1" value="&lt;span style=&quot;font-size: 50px;&quot;&gt;&lt;b&gt;Контроль качества&lt;/b&gt;&lt;/span&gt;" style="html=1;outlineConnect=0;whiteSpace=wrap;fillColor=#F5DEAA;shape=mxgraph.archimate3.application;appType=capability;archiType=rounded;" parent="1" vertex="1">
                    <mxGeometry x="199.5" y="4230" width="335" height="167.5" as="geometry"/>
                </mxCell>
                <mxCell id="-oJUz6qvebBx3RSiQiv6-1" value="" style="verticalLabelPosition=bottom;shadow=0;align=center;html=1;verticalAlign=top;strokeWidth=30;shape=mxgraph.mockup.forms.horSlider;strokeColor=#4D4D4D;sliderStyle=basic;sliderPos=60.392;handleStyle=circle;fillColor2=#36BCD1;gradientColor=none;labelBorderColor=none;labelBackgroundColor=none;fillColor=#36BCD1;perimeterSpacing=0;fillOpacity=100;sketch=1;curveFitting=1;jiggle=2;noLabel=0;" parent="1" vertex="1">
                    <mxGeometry x="-850" y="3320" width="510" height="30" as="geometry"/>
                </mxCell>
                <UserObject label="&lt;span style=&quot;font-size: 50px;&quot;&gt;&lt;b&gt;Обеспечение ИБ&lt;/b&gt;&lt;/span&gt;" id="wU3xurUWq-uGDlGuvanH-1">
                    <mxCell style="html=1;outlineConnect=0;whiteSpace=wrap;fillColor=#F5DEAA;shape=mxgraph.archimate3.application;appType=capability;archiType=rounded;" parent="1" vertex="1">
                        <mxGeometry x="207" y="4530" width="335" height="167.5" as="geometry"/>
                    </mxCell>
                </UserObject>
                <mxCell id="Dwn8I2A7uKCgRnSXZh7i-7" value="" style="html=1;shadow=0;dashed=0;shape=mxgraph.bootstrap.rrect;rSize=17;strokeColor=#DFDFDF;html=1;whiteSpace=wrap;fillColor=#1061B0;fontColor=#000000;verticalAlign=top;align=center;spacing=20;fontSize=14;spacingLeft=170;" parent="1" vertex="1">
                    <mxGeometry x="-890" y="4550" width="400" height="200" as="geometry"/>
                </mxCell>
                <mxCell id="Dwn8I2A7uKCgRnSXZh7i-8" value="&lt;font style=&quot;font-size: 50px; color: rgb(255, 255, 255);&quot;&gt;Новое&lt;/font&gt;" style="text;html=1;align=center;verticalAlign=middle;resizable=0;points=[];autosize=1;strokeColor=none;fillColor=none;" parent="Dwn8I2A7uKCgRnSXZh7i-7" vertex="1">
                    <mxGeometry x="114.99666666666668" y="64.99666666666667" width="170" height="70" as="geometry"/>
                </mxCell>
                <mxCell id="Dwn8I2A7uKCgRnSXZh7i-9" value="" style="html=1;shadow=0;dashed=0;shape=mxgraph.bootstrap.radioButton2;labelPosition=right;verticalLabelPosition=middle;align=left;verticalAlign=middle;gradientColor=none;fillColor=#FFFFFF;checked=1;spacing=5;checkedFill=#000000;checkedStroke=#ffffff;sketch=0;strokeWidth=7;strokeColor=#CCCCCC;" parent="Dwn8I2A7uKCgRnSXZh7i-7" vertex="1">
                    <mxGeometry x="356.25" y="45" width="30" height="30" as="geometry"/>
                </mxCell>
                <mxCell id="Dwn8I2A7uKCgRnSXZh7i-10" value="" style="html=1;shadow=0;dashed=0;shape=mxgraph.bootstrap.radioButton2;labelPosition=right;verticalLabelPosition=middle;align=left;verticalAlign=middle;gradientColor=none;fillColor=#FFFFFF;checked=1;spacing=5;checkedFill=#000000;checkedStroke=#ffffff;sketch=0;strokeWidth=7;strokeColor=#CCCCCC;" parent="Dwn8I2A7uKCgRnSXZh7i-7" vertex="1">
                    <mxGeometry x="356.25" y="85" width="30" height="30" as="geometry"/>
                </mxCell>
                <mxCell id="Dwn8I2A7uKCgRnSXZh7i-11" value="" style="html=1;shadow=0;dashed=0;shape=mxgraph.bootstrap.radioButton2;labelPosition=right;verticalLabelPosition=middle;align=left;verticalAlign=middle;gradientColor=none;fillColor=#FFFFFF;checked=1;spacing=5;fontColor=#6C767D;checkedFill=#000000;checkedStroke=#ffffff;sketch=0;strokeWidth=7;strokeColor=#CCCCCC;" parent="Dwn8I2A7uKCgRnSXZh7i-7" vertex="1">
                    <mxGeometry x="356.25" y="125" width="30" height="30" as="geometry"/>
                </mxCell>
                <mxCell id="7Hz4GpJ9ktJQMCJzLjUi-1" value="" style="rounded=1;whiteSpace=wrap;html=1;fillColor=#fff2cc;strokeColor=#d6b656;strokeWidth=2;arcSize=5;container=0;recursiveResize=0;" parent="1" vertex="1">
                    <mxGeometry x="1520" y="3220" width="2810" height="2140" as="geometry"/>
                </mxCell>
                <mxCell id="7Hz4GpJ9ktJQMCJzLjUi-2" value="&lt;b style=&quot;text-align: center;&quot;&gt;&lt;font style=&quot;color: rgb(255, 255, 255); font-size: 70px;&quot;&gt;&amp;nbsp; Разработка&lt;/font&gt;&lt;/b&gt;" style="shape=rect;strokeColor=default;fillColor=#4D4D4D;strokeWidth=2;dashed=0;rounded=1;arcSize=20;fontColor=#ffffff;fontSize=30;spacing=2;spacingTop=-2;align=left;autosize=1;spacingLeft=4;resizeWidth=0;resizeHeight=0;perimeter=none;html=1;whiteSpace=wrap;" parent="7Hz4GpJ9ktJQMCJzLjUi-1" vertex="1">
                    <mxGeometry x="57" y="-60" width="493" height="120" as="geometry"/>
                </mxCell>
                <UserObject label="&lt;span style=&quot;font-size: 50px;&quot;&gt;&lt;b&gt;Разработка&lt;/b&gt;&lt;/span&gt;" id="7Hz4GpJ9ktJQMCJzLjUi-3">
                    <mxCell style="html=1;outlineConnect=0;whiteSpace=wrap;fillColor=#F5DEAA;shape=mxgraph.archimate3.application;appType=capability;archiType=rounded;" parent="7Hz4GpJ9ktJQMCJzLjUi-1" vertex="1">
                        <mxGeometry x="164" y="130" width="335" height="167.5" as="geometry"/>
                    </mxCell>
                </UserObject>
                <mxCell id="Me7C-beOo1ijLLEAisfv-2" value="" style="html=1;outlineConnect=0;whiteSpace=wrap;fillColor=#666666;shape=mxgraph.archimate3.capability;" parent="7Hz4GpJ9ktJQMCJzLjUi-1" vertex="1">
                    <mxGeometry x="2640" y="60" width="100" height="100" as="geometry"/>
                </mxCell>
                <UserObject label="&lt;span style=&quot;font-size: 50px;&quot;&gt;&lt;b&gt;Внедрение&lt;/b&gt;&lt;/span&gt;" id="Me7C-beOo1ijLLEAisfv-8">
                    <mxCell style="html=1;outlineConnect=0;whiteSpace=wrap;fillColor=#F5DEAA;shape=mxgraph.archimate3.application;appType=capability;archiType=rounded;" parent="7Hz4GpJ9ktJQMCJzLjUi-1" vertex="1">
                        <mxGeometry x="2070" y="130" width="335" height="167.5" as="geometry"/>
                    </mxCell>
                </UserObject>
                <UserObject label="&lt;span style=&quot;font-size: 50px;&quot;&gt;&lt;b&gt;Тестирование&lt;/b&gt;&lt;/span&gt;" id="Me7C-beOo1ijLLEAisfv-9">
                    <mxCell style="html=1;outlineConnect=0;whiteSpace=wrap;fillColor=#F5DEAA;shape=mxgraph.archimate3.application;appType=capability;archiType=rounded;" parent="7Hz4GpJ9ktJQMCJzLjUi-1" vertex="1">
                        <mxGeometry x="1400" y="130" width="335" height="167.5" as="geometry"/>
                    </mxCell>
                </UserObject>
                <UserObject label="" id="Me7C-beOo1ijLLEAisfv-10">
                    <mxCell style="html=1;outlineConnect=0;whiteSpace=wrap;fillColor=#F5DEAA;shape=mxgraph.archimate3.application;appType=capability;archiType=rounded;" parent="7Hz4GpJ9ktJQMCJzLjUi-1" vertex="1">
                        <mxGeometry x="164" y="560" width="335" height="167.5" as="geometry"/>
                    </mxCell>
                </UserObject>
                <mxCell id="Me7C-beOo1ijLLEAisfv-11" value="" style="edgeStyle=none;html=1;" parent="7Hz4GpJ9ktJQMCJzLjUi-1" source="7Hz4GpJ9ktJQMCJzLjUi-3" target="Me7C-beOo1ijLLEAisfv-10" edge="1">
                    <mxGeometry relative="1" as="geometry"/>
                </mxCell>
                <mxCell id="7Hz4GpJ9ktJQMCJzLjUi-4" value="" style="rounded=1;whiteSpace=wrap;html=1;fillColor=#fff2cc;strokeColor=#d6b656;strokeWidth=2;arcSize=5;container=0;recursiveResize=0;" parent="1" vertex="1">
                    <mxGeometry x="4480" y="3210" width="1287" height="2140" as="geometry"/>
                </mxCell>
                <mxCell id="7Hz4GpJ9ktJQMCJzLjUi-5" value="&lt;b style=&quot;text-align: center;&quot;&gt;&lt;font style=&quot;color: rgb(255, 255, 255); font-size: 70px;&quot;&gt;&amp;nbsp; Поддержка&lt;/font&gt;&lt;/b&gt;" style="shape=rect;strokeColor=default;fillColor=#4D4D4D;strokeWidth=2;dashed=0;rounded=1;arcSize=20;fontColor=#ffffff;fontSize=30;spacing=2;spacingTop=-2;align=left;autosize=1;spacingLeft=4;resizeWidth=0;resizeHeight=0;perimeter=none;html=1;whiteSpace=wrap;" parent="7Hz4GpJ9ktJQMCJzLjUi-4" vertex="1">
                    <mxGeometry x="57" y="-60" width="493" height="120" as="geometry"/>
                </mxCell>
                <UserObject label="&lt;span style=&quot;font-size: 50px;&quot;&gt;&lt;b&gt;Поддержка пользователей&lt;/b&gt;&lt;/span&gt;" id="7Hz4GpJ9ktJQMCJzLjUi-6">
                    <mxCell style="html=1;outlineConnect=0;whiteSpace=wrap;fillColor=#F5DEAA;shape=mxgraph.archimate3.application;appType=capability;archiType=rounded;" parent="7Hz4GpJ9ktJQMCJzLjUi-4" vertex="1">
                        <mxGeometry x="164" y="130" width="426" height="167.5" as="geometry"/>
                    </mxCell>
                </UserObject>
                <mxCell id="Me7C-beOo1ijLLEAisfv-3" value="" style="html=1;outlineConnect=0;whiteSpace=wrap;fillColor=#666666;shape=mxgraph.archimate3.capability;" parent="7Hz4GpJ9ktJQMCJzLjUi-4" vertex="1">
                    <mxGeometry x="1130" y="60" width="100" height="100" as="geometry"/>
                </mxCell>
                <UserObject label="&lt;span style=&quot;font-size: 50px;&quot;&gt;&lt;b&gt;Поддержка сети&lt;/b&gt;&lt;/span&gt;" id="Me7C-beOo1ijLLEAisfv-6">
                    <mxCell style="html=1;outlineConnect=0;whiteSpace=wrap;fillColor=#F5DEAA;shape=mxgraph.archimate3.application;appType=capability;archiType=rounded;" parent="7Hz4GpJ9ktJQMCJzLjUi-4" vertex="1">
                        <mxGeometry x="164" y="410" width="426" height="167.5" as="geometry"/>
                    </mxCell>
                </UserObject>
                <UserObject label="&lt;span style=&quot;font-size: 50px;&quot;&gt;&lt;b&gt;Поддержка системная&lt;/b&gt;&lt;/span&gt;" id="Me7C-beOo1ijLLEAisfv-7">
                    <mxCell style="html=1;outlineConnect=0;whiteSpace=wrap;fillColor=#F5DEAA;shape=mxgraph.archimate3.application;appType=capability;archiType=rounded;" parent="7Hz4GpJ9ktJQMCJzLjUi-4" vertex="1">
                        <mxGeometry x="164" y="720" width="426" height="167.5" as="geometry"/>
                    </mxCell>
                </UserObject>
                <mxCell id="unEQBxlBXncdHgTzV7CD-1" value="" style="html=1;shadow=0;dashed=0;shape=mxgraph.bootstrap.rrect;rSize=17;strokeColor=#DFDFDF;html=1;whiteSpace=wrap;fillColor=#8C8496;fontColor=#000000;verticalAlign=top;align=center;spacing=20;fontSize=14;spacingLeft=170;" parent="1" vertex="1">
                    <mxGeometry x="-880" y="3650" width="400" height="200" as="geometry"/>
                </mxCell>
                <mxCell id="unEQBxlBXncdHgTzV7CD-2" value="" style="html=1;shadow=0;dashed=0;shape=mxgraph.bootstrap.leftButton;rSize=17;perimeter=none;whiteSpace=wrap;fillColor=#1061B0;strokeColor=#DFDFDF;fontColor=#DEE2E6;resizeWidth=1;fontSize=18;part=0;backgroundOutline=0;noLabel=0;" parent="unEQBxlBXncdHgTzV7CD-1" vertex="1">
                    <mxGeometry width="110" height="200" relative="1" as="geometry"/>
                </mxCell>
                <mxCell id="unEQBxlBXncdHgTzV7CD-3" value="&lt;font style=&quot;font-size: 50px; color: rgb(255, 255, 255);&quot;&gt;Новое&lt;/font&gt;" style="text;html=1;align=center;verticalAlign=middle;resizable=0;points=[];autosize=1;strokeColor=none;fillColor=none;" parent="unEQBxlBXncdHgTzV7CD-1" vertex="1">
                    <mxGeometry x="114.99666666666668" y="64.99666666666667" width="170" height="70" as="geometry"/>
                </mxCell>
                <mxCell id="unEQBxlBXncdHgTzV7CD-4" value="" style="html=1;shadow=0;dashed=0;shape=mxgraph.bootstrap.radioButton2;labelPosition=right;verticalLabelPosition=middle;align=left;verticalAlign=middle;gradientColor=none;fillColor=#FFFFFF;checked=0;spacing=5;checkedFill=#000000;checkedStroke=#ffffff;sketch=0;strokeWidth=7;strokeColor=#CCCCCC;" parent="unEQBxlBXncdHgTzV7CD-1" vertex="1">
                    <mxGeometry x="356.25" y="45" width="30" height="30" as="geometry"/>
                </mxCell>
                <mxCell id="unEQBxlBXncdHgTzV7CD-5" value="" style="html=1;shadow=0;dashed=0;shape=mxgraph.bootstrap.radioButton2;labelPosition=right;verticalLabelPosition=middle;align=left;verticalAlign=middle;gradientColor=none;fillColor=#FFFFFF;checked=0;spacing=5;checkedFill=#000000;checkedStroke=#ffffff;sketch=0;strokeWidth=7;strokeColor=#CCCCCC;" parent="unEQBxlBXncdHgTzV7CD-1" vertex="1">
                    <mxGeometry x="356.25" y="85" width="30" height="30" as="geometry"/>
                </mxCell>
                <mxCell id="unEQBxlBXncdHgTzV7CD-6" value="" style="html=1;shadow=0;dashed=0;shape=mxgraph.bootstrap.radioButton2;labelPosition=right;verticalLabelPosition=middle;align=left;verticalAlign=middle;gradientColor=none;fillColor=#FFFFFF;checked=1;spacing=5;fontColor=#6C767D;checkedFill=#000000;checkedStroke=#ffffff;sketch=0;strokeWidth=7;strokeColor=#CCCCCC;" parent="unEQBxlBXncdHgTzV7CD-1" vertex="1">
                    <mxGeometry x="356.25" y="125" width="30" height="30" as="geometry"/>
                </mxCell>
                <mxCell id="JWUHKdUyGu0QRiXMcWpB-1" value="" style="rounded=1;whiteSpace=wrap;html=1;fillColor=#fff2cc;strokeColor=#d6b656;strokeWidth=2;arcSize=5;container=0;recursiveResize=0;" parent="1" vertex="1">
                    <mxGeometry x="50" y="5650" width="2710" height="920" as="geometry"/>
                </mxCell>
                <mxCell id="JWUHKdUyGu0QRiXMcWpB-2" value="&lt;b style=&quot;text-align: center;&quot;&gt;&lt;font style=&quot;color: rgb(255, 255, 255); font-size: 70px;&quot;&gt;&amp;nbsp; Контроль качества&lt;/font&gt;&lt;/b&gt;" style="shape=rect;strokeColor=default;fillColor=#4D4D4D;strokeWidth=2;dashed=0;rounded=1;arcSize=20;fontColor=#ffffff;fontSize=30;spacing=2;spacingTop=-2;align=left;autosize=1;spacingLeft=4;resizeWidth=0;resizeHeight=0;perimeter=none;html=1;whiteSpace=wrap;" parent="JWUHKdUyGu0QRiXMcWpB-1" vertex="1">
                    <mxGeometry x="57" y="-60" width="743" height="130" as="geometry"/>
                </mxCell>
                <UserObject label="&lt;span style=&quot;font-size: 50px;&quot;&gt;&lt;b&gt;Аналитика&lt;/b&gt;&lt;/span&gt;" id="JWUHKdUyGu0QRiXMcWpB-3">
                    <mxCell style="html=1;outlineConnect=0;whiteSpace=wrap;fillColor=#F5DEAA;shape=mxgraph.archimate3.application;appType=capability;archiType=rounded;" parent="JWUHKdUyGu0QRiXMcWpB-1" vertex="1">
                        <mxGeometry x="164" y="130" width="335" height="167.5" as="geometry"/>
                    </mxCell>
                </UserObject>
                <mxCell id="Me7C-beOo1ijLLEAisfv-4" value="" style="html=1;outlineConnect=0;whiteSpace=wrap;fillColor=#666666;shape=mxgraph.archimate3.capability;" parent="JWUHKdUyGu0QRiXMcWpB-1" vertex="1">
                    <mxGeometry x="2550" y="60" width="100" height="100" as="geometry"/>
                </mxCell>
                <mxCell id="JWUHKdUyGu0QRiXMcWpB-4" value="" style="rounded=1;whiteSpace=wrap;html=1;fillColor=#fff2cc;strokeColor=#d6b656;strokeWidth=2;arcSize=5;container=0;recursiveResize=0;" parent="1" vertex="1">
                    <mxGeometry x="3020" y="5650" width="2750" height="920" as="geometry"/>
                </mxCell>
                <mxCell id="JWUHKdUyGu0QRiXMcWpB-5" value="&lt;b style=&quot;text-align: center;&quot;&gt;&lt;font style=&quot;color: rgb(255, 255, 255); font-size: 70px;&quot;&gt;&amp;nbsp; Обеспечение ИБ&lt;/font&gt;&lt;/b&gt;" style="shape=rect;strokeColor=default;fillColor=#4D4D4D;strokeWidth=2;dashed=0;rounded=1;arcSize=20;fontColor=#ffffff;fontSize=30;spacing=2;spacingTop=-2;align=left;autosize=1;spacingLeft=4;resizeWidth=0;resizeHeight=0;perimeter=none;html=1;whiteSpace=wrap;" parent="JWUHKdUyGu0QRiXMcWpB-4" vertex="1">
                    <mxGeometry x="57" y="-60" width="683" height="140" as="geometry"/>
                </mxCell>
                <UserObject label="&lt;span style=&quot;font-size: 50px;&quot;&gt;&lt;b&gt;Финансы и развитие&lt;/b&gt;&lt;/span&gt;" id="JWUHKdUyGu0QRiXMcWpB-6">
                    <mxCell style="html=1;outlineConnect=0;whiteSpace=wrap;fillColor=#F5DEAA;shape=mxgraph.archimate3.application;appType=capability;archiType=rounded;" parent="JWUHKdUyGu0QRiXMcWpB-4" vertex="1">
                        <mxGeometry x="164" y="130" width="335" height="167.5" as="geometry"/>
                    </mxCell>
                </UserObject>
                <mxCell id="Me7C-beOo1ijLLEAisfv-5" value="" style="html=1;outlineConnect=0;whiteSpace=wrap;fillColor=#666666;shape=mxgraph.archimate3.capability;" parent="JWUHKdUyGu0QRiXMcWpB-4" vertex="1">
                    <mxGeometry x="2590" y="60" width="100" height="100" as="geometry"/>
                </mxCell>
                <mxCell id="Dwn8I2A7uKCgRnSXZh7i-1" value="" style="html=1;shadow=0;dashed=0;shape=mxgraph.bootstrap.rrect;rSize=17;strokeColor=#DFDFDF;html=1;whiteSpace=wrap;fillColor=#8C8496;fontColor=#000000;verticalAlign=top;align=center;spacing=20;fontSize=14;spacingLeft=170;" parent="1" vertex="1">
                    <mxGeometry x="-890" y="4080" width="400" height="200" as="geometry"/>
                </mxCell>
                <mxCell id="Dwn8I2A7uKCgRnSXZh7i-3" value="&lt;font style=&quot;font-size: 50px; color: rgb(255, 255, 255);&quot;&gt;Новое&lt;/font&gt;" style="text;html=1;align=center;verticalAlign=middle;resizable=0;points=[];autosize=1;strokeColor=none;fillColor=none;" parent="Dwn8I2A7uKCgRnSXZh7i-1" vertex="1">
                    <mxGeometry x="114.99666666666668" y="64.99666666666667" width="170" height="70" as="geometry"/>
                </mxCell>
                <mxCell id="Dwn8I2A7uKCgRnSXZh7i-4" value="" style="html=1;shadow=0;dashed=0;shape=mxgraph.bootstrap.radioButton2;labelPosition=right;verticalLabelPosition=middle;align=left;verticalAlign=middle;gradientColor=none;fillColor=#FFFFFF;checked=0;spacing=5;checkedFill=#000000;checkedStroke=#ffffff;sketch=0;strokeWidth=7;strokeColor=#CCCCCC;" parent="Dwn8I2A7uKCgRnSXZh7i-1" vertex="1">
                    <mxGeometry x="356.25" y="45" width="30" height="30" as="geometry"/>
                </mxCell>
                <mxCell id="Dwn8I2A7uKCgRnSXZh7i-5" value="" style="html=1;shadow=0;dashed=0;shape=mxgraph.bootstrap.radioButton2;labelPosition=right;verticalLabelPosition=middle;align=left;verticalAlign=middle;gradientColor=none;fillColor=#FFFFFF;checked=1;spacing=5;checkedFill=#000000;checkedStroke=#ffffff;sketch=0;strokeWidth=7;strokeColor=#CCCCCC;" parent="Dwn8I2A7uKCgRnSXZh7i-1" vertex="1">
                    <mxGeometry x="356.25" y="85" width="30" height="30" as="geometry"/>
                </mxCell>
                <mxCell id="Dwn8I2A7uKCgRnSXZh7i-6" value="" style="html=1;shadow=0;dashed=0;shape=mxgraph.bootstrap.radioButton2;labelPosition=right;verticalLabelPosition=middle;align=left;verticalAlign=middle;gradientColor=none;fillColor=#FFFFFF;checked=1;spacing=5;fontColor=#6C767D;checkedFill=#000000;checkedStroke=#ffffff;sketch=0;strokeWidth=7;strokeColor=#CCCCCC;" parent="Dwn8I2A7uKCgRnSXZh7i-1" vertex="1">
                    <mxGeometry x="356.25" y="125" width="30" height="30" as="geometry"/>
                </mxCell>
                <mxCell id="2" value="" style="shape=image;verticalLabelPosition=bottom;labelBackgroundColor=default;verticalAlign=top;aspect=fixed;imageAspect=0;image=data:image/png,iVBORw0KGgoAAAANSUhEUgAAAsUAAALFCAYAAAAry54YAAAKN2lDQ1BzUkdCIElFQzYxOTY2LTIuMQAAeJydlndUU9kWh8+9N71QkhCKlNBraFICSA29SJEuKjEJEErAkAAiNkRUcERRkaYIMijggKNDkbEiioUBUbHrBBlE1HFwFBuWSWStGd+8ee/Nm98f935rn73P3Wfvfda6AJD8gwXCTFgJgAyhWBTh58WIjYtnYAcBDPAAA2wA4HCzs0IW+EYCmQJ82IxsmRP4F726DiD5+yrTP4zBAP+flLlZIjEAUJiM5/L42VwZF8k4PVecJbdPyZi2NE3OMErOIlmCMlaTc/IsW3z2mWUPOfMyhDwZy3PO4mXw5Nwn4405Er6MkWAZF+cI+LkyviZjg3RJhkDGb+SxGXxONgAoktwu5nNTZGwtY5IoMoIt43kA4EjJX/DSL1jMzxPLD8XOzFouEiSniBkmXFOGjZMTi+HPz03ni8XMMA43jSPiMdiZGVkc4XIAZs/8WRR5bRmyIjvYODk4MG0tbb4o1H9d/JuS93aWXoR/7hlEH/jD9ld+mQ0AsKZltdn6h21pFQBd6wFQu/2HzWAvAIqyvnUOfXEeunxeUsTiLGcrq9zcXEsBn2spL+jv+p8Of0NffM9Svt3v5WF485M4knQxQ143bmZ6pkTEyM7icPkM5p+H+B8H/nUeFhH8JL6IL5RFRMumTCBMlrVbyBOIBZlChkD4n5r4D8P+pNm5lona+BHQllgCpSEaQH4eACgqESAJe2Qr0O99C8ZHA/nNi9GZmJ37z4L+fVe4TP7IFiR/jmNHRDK4ElHO7Jr8WgI0IABFQAPqQBvoAxPABLbAEbgAD+ADAkEoiARxYDHgghSQAUQgFxSAtaAYlIKtYCeoBnWgETSDNnAYdIFj4DQ4By6By2AE3AFSMA6egCnwCsxAEISFyBAVUod0IEPIHLKFWJAb5AMFQxFQHJQIJUNCSAIVQOugUqgcqobqoWboW+godBq6AA1Dt6BRaBL6FXoHIzAJpsFasBFsBbNgTzgIjoQXwcnwMjgfLoK3wJVwA3wQ7oRPw5fgEVgKP4GnEYAQETqiizARFsJGQpF4JAkRIauQEqQCaUDakB6kH7mKSJGnyFsUBkVFMVBMlAvKHxWF4qKWoVahNqOqUQdQnag+1FXUKGoK9RFNRmuizdHO6AB0LDoZnYsuRlegm9Ad6LPoEfQ4+hUGg6FjjDGOGH9MHCYVswKzGbMb0445hRnGjGGmsVisOtYc64oNxXKwYmwxtgp7EHsSewU7jn2DI+J0cLY4X1w8TogrxFXgWnAncFdwE7gZvBLeEO+MD8Xz8MvxZfhGfA9+CD+OnyEoE4wJroRIQiphLaGS0EY4S7hLeEEkEvWITsRwooC4hlhJPEQ8TxwlviVRSGYkNimBJCFtIe0nnSLdIr0gk8lGZA9yPFlM3kJuJp8h3ye/UaAqWCoEKPAUVivUKHQqXFF4pohXNFT0VFysmK9YoXhEcUjxqRJeyUiJrcRRWqVUo3RU6YbStDJV2UY5VDlDebNyi/IF5UcULMWI4kPhUYoo+yhnKGNUhKpPZVO51HXURupZ6jgNQzOmBdBSaaW0b2iDtCkVioqdSrRKnkqNynEVKR2hG9ED6On0Mvph+nX6O1UtVU9Vvuom1TbVK6qv1eaoeajx1UrU2tVG1N6pM9R91NPUt6l3qd/TQGmYaYRr5Grs0Tir8XQObY7LHO6ckjmH59zWhDXNNCM0V2ju0xzQnNbS1vLTytKq0jqj9VSbru2hnaq9Q/uE9qQOVcdNR6CzQ+ekzmOGCsOTkc6oZPQxpnQ1df11Jbr1uoO6M3rGelF6hXrtevf0Cfos/ST9Hfq9+lMGOgYhBgUGrQa3DfGGLMMUw12G/YavjYyNYow2GHUZPTJWMw4wzjduNb5rQjZxN1lm0mByzRRjyjJNM91tetkMNrM3SzGrMRsyh80dzAXmu82HLdAWThZCiwaLG0wS05OZw2xljlrSLYMtCy27LJ9ZGVjFW22z6rf6aG1vnW7daH3HhmITaFNo02Pzq62ZLde2xvbaXPJc37mr53bPfW5nbse322N3055qH2K/wb7X/oODo4PIoc1h0tHAMdGx1vEGi8YKY21mnXdCO3k5rXY65vTW2cFZ7HzY+RcXpkuaS4vLo3nG8/jzGueNueq5clzrXaVuDLdEt71uUnddd457g/sDD30PnkeTx4SnqWeq50HPZ17WXiKvDq/XbGf2SvYpb8Tbz7vEe9CH4hPlU+1z31fPN9m31XfKz95vhd8pf7R/kP82/xsBWgHcgOaAqUDHwJWBfUGkoAVB1UEPgs2CRcE9IXBIYMj2kLvzDecL53eFgtCA0O2h98KMw5aFfR+OCQ8Lrwl/GGETURDRv4C6YMmClgWvIr0iyyLvRJlESaJ6oxWjE6Kbo1/HeMeUx0hjrWJXxl6K04gTxHXHY+Oj45vipxf6LNy5cDzBPqE44foi40V5iy4s1licvvj4EsUlnCVHEtGJMYktie85oZwGzvTSgKW1S6e4bO4u7hOeB28Hb5Lvyi/nTyS5JpUnPUp2Td6ePJninlKR8lTAFlQLnqf6p9alvk4LTduf9ik9Jr09A5eRmHFUSBGmCfsytTPzMoezzLOKs6TLnJftXDYlChI1ZUPZi7K7xTTZz9SAxESyXjKa45ZTk/MmNzr3SJ5ynjBvYLnZ8k3LJ/J9879egVrBXdFboFuwtmB0pefK+lXQqqWrelfrry5aPb7Gb82BtYS1aWt/KLQuLC98uS5mXU+RVtGaorH1futbixWKRcU3NrhsqNuI2ijYOLhp7qaqTR9LeCUXS61LK0rfb+ZuvviVzVeVX33akrRlsMyhbM9WzFbh1uvb3LcdKFcuzy8f2x6yvXMHY0fJjpc7l+y8UGFXUbeLsEuyS1oZXNldZVC1tep9dUr1SI1XTXutZu2m2te7ebuv7PHY01anVVda926vYO/Ner/6zgajhop9mH05+x42Rjf2f836urlJo6m06cN+4X7pgYgDfc2Ozc0tmi1lrXCrpHXyYMLBy994f9Pdxmyrb6e3lx4ChySHHn+b+O31w0GHe4+wjrR9Z/hdbQe1o6QT6lzeOdWV0iXtjusePhp4tLfHpafje8vv9x/TPVZzXOV42QnCiaITn07mn5w+lXXq6enk02O9S3rvnIk9c60vvG/wbNDZ8+d8z53p9+w/ed71/LELzheOXmRd7LrkcKlzwH6g4wf7HzoGHQY7hxyHui87Xe4Znjd84or7ldNXva+euxZw7dLI/JHh61HXb95IuCG9ybv56Fb6ree3c27P3FlzF3235J7SvYr7mvcbfjT9sV3qID0+6j068GDBgztj3LEnP2X/9H686CH5YcWEzkTzI9tHxyZ9Jy8/Xvh4/EnWk5mnxT8r/1z7zOTZd794/DIwFTs1/lz0/NOvm1+ov9j/0u5l73TY9P1XGa9mXpe8UX9z4C3rbf+7mHcTM7nvse8rP5h+6PkY9PHup4xPn34D94Tz+49wZioAAAAJcEhZcwAALiMAAC4jAXilP3YAACAASURBVHic7L0JnCNXfe97Ti2SWlKrt+nu6ZmezbPYYwOe6dnHhsaAbYgNIWRubnLzSS4v+ZDlJQFsFhuDbTqExWCMc0OSG8gjuUnefRAGchMMGBuDG8/a3TNjcDDYM559pqenV6n3lqrOO9Wt7i6V6hwdlUpSlfT/wri1nPM/pxZJvzr66f9XCCEIAAAAAAAAAKoZpdwTAAAAAAAAAIByA6IYAAAAAAAAqHpAFAMAAAAAAABVD4hiAAAAAAAAoOoBUQwAAAAAAABUPSCKAQAAAAAAgKoHRDEAAAAAAABQ9YAoBgAAAAAAAKoeEMUAAAAAAABA1QOiGAAAAAAAAKh6QBQDAAAAAAAAVQ+IYgAAAAAAAKDqAVEMAAAAAAAAVD0gigEAAAAAAICqB0QxAAAAAAAAUPWAKAYAAAAAAACqHhDFAAAAAAAAQNUDohgAAAAAAACoekAUAwAAAAAAAFUPiGIAAAAAAACg6gFRDAAAAAAAAFQ9IIoBAAAAAACAqgdEMQAAAAAAAFD1gCgGAAAAAAAAqh4QxQAAAAAAAEDVA6IYAAAAAAAAqHpAFAMAAAAAAABVD4hiAAAAAAAAoOoBUQwAAAAAAABUPSCKAQAAAAAAgKoHRDEAAAAAAABQ9YAoBgAAAAAAAKoeEMUAAAAAAABA1QOiGAAAAAAAAKh6QBQDAAAAAAAAVQ+IYgAAAAAAAKDqAVEMAAAAAAAAVD0gigEAAAAAAICqB0QxAAAAAAAAUPWAKAYAAAAAAACqHhDFAAAAAAAAQNUDohgAAAAAAACoekAUAwAAAAAAAFUPiGIAAAAAAACg6gFRDAAAAAAAAFQ9IIoBAAAAAACAqgdEMQAAAAAAAFD1gCgGAAAAAAAAqh4QxQAAAAAAAEDVA6IYAAAAAAAAqHpAFAMAAAAAAABVD4hiAAAAAAAAoOoBUQwAAAAAAABUPSCKAQAAAAAAgKoHRDEAAAAAAABQ9YAoBgAAAAAAAKoeEMUAAAAAAABA1QOiGAAAAAAAAKh6QBQDAAAAAAAAVQ+IYgAAAAAAAKDqAVEMAAAAAAAAVD0gigEAAAAAAICqpyyiuKurS7rllltwKcZqbm4ueJza2ldLMlceoVBDUeYQCERdiauqNWXZR7IcLHhcWR5aiiFJhcdzgiQFXB1XktS842GsmPbDeMHzMcdzA2fx5Lz6YCxjPDEl1gfnF3sxfr59FjpKBe1L4XHxDF5oT8fLa8z854dF4+NZB9vu1nyM/ZCU3BxTeLtteub3uA1zScF9bp4jpsi59wHmxRadYx7bMt88175kxUsJHiucsR+Md8blu2IxxLaJ14bzXEpwfwnNVWwO9Pyl+0A3nw+Cc8jz2LIguqY27H1e13XiSjwLZRHFhiB+++0rG5WQHM5+g2Cc5Fk7dI6xgzP7Y8uLmz0rxnPzbyKvMzUTi5f5YjL1EX7jsMQWGpd94me/uAXG5b6QBOOl3Ihn3w5nnRMaK4ZpDnZzbcvVnz1XbH1DMPfTnGxvZh/NPJbObseLwWiHufHqBOanZ/bJ2BcS501TF9t23fIcWX4io3/GuLz9IDAuoY9Ho4xtzDonBMYlVjGB02Et8yac2MxxTM/N92duu+m1gi1jWWLXsLaDPT+SMSfL9vLGsh1Hyj6eIZt2ubbDdq6cPsi6HabbAdkSjvHewjjW2X04+4h5/lqOb7rPwpw5r7XF2OnzLRBgtDOfR9z3Esa+NPqoi3ck27kuz5exTeZ9ad1HrHPbus/N5znz9SBbpI9pfrx9mb6PF2Mrdu1447K2iXcM2fGMucoZz3C2PWOu+c7PcjyN20tNeduETQ9yPpPyQ0fyJ6gg/rFb8ayURRQfOHBAo38GBwaejdQFGhqxpKUPregVNEsQZ1KwIM5qVqAg5gdntxPeDpH58MZ142qeIYgdxxNtJyCIufF4AlZ0DgUL4kzYgpg3J6F2fEEsKNgzujAFsQWuyDQ3ExiXK4gdjGuNx9vnIgJPt34WmD/0BWMX3i7z9Z8lbpdaORqXKSSzxhI5TqLHE3PFbVZb2/lkwtwOpujKbJd9PAVfQ0xBbI3F2g7Oa43w5meNn2sOlnbMfcmbK6ddxsUF+3Xj5NiICT+rILabr91taxuROZjvY5s55R8PFzw/IXHLnYP4+4djCELfUup3fYaK4mKEn6esnuLW1jsnDx48OPOON65uUkJKhNkw402dJ4iXxaP4V1ScNwHzV02C8bgClLlKzFlpFRbETr7K4c3VC/F4rVgClDeH/Fej+ZMQ/jARjb38nCb64VSwIObMT1Bk8veDRSSyBzY1czAuJ57ouNx4rP3Mmuu8ILbvs7BKbEJU4DGFG3OfW96PHH6IMebHXfVzIFqzV1rt2/HErZgwyrxPmOebZZsY7bCwSOfsI97rhtGHYM5qqtPYWKAd8yKaJ/ByXEAtPspdqRaZA2LPQTg2+znuxY+rYpkfjzDnJBpPtE/Bgt16UjmFCuIfDs1MvLdYtolFyv5Du/Sq8fX5VeNguAljy1dVwj4UnmjNf3WV772yj5ctiEVtE4zYwsLeqW2CNa4LNoeS2Sa4K7ymOThaZWbOgS+gHK06s/swV3VdFuLC7VgiE/M+dHhzcjAu50LSybjYKjAELR6W4Oz5LYXNZZvIL14O20Tm43nbDazzcyD2spqyBJmTVT/LfVdXlrGN9YUxLi+28IUMIzZDlBDRlX3r+cZql9M2YXpcyO6BctgmkP19t+eQEZst8IjAPsLW87xgcWtjSxCIxxfErBhOxK2ghYUdD7sgiKkCHiE6+ojSsOsfii2IDcouihcxVo27urqmP/xHd61grxp72zaRiQs+YmY7Mfxlm3AiiHnxRIWRr2wToh+knBmIxnNimyjUvoDcsE1Y+oiIW+t8BOda8bYJJ3aD7AEsY9m38Z5twtKHdTHFE84iq5ec2DyR6T3bBNtHnB2LsS9F7QsOYvNtE4W+1njjWvtg019eH/vn2BYPJ3Owe65Y8RxBFfA3pqZTH4i07BkopmXCjGdEscGjjz5qbPX1/v6nwg01DSuwFDTNzwu2CXaf8vmIvWBz4AhiZjw3hHiF2yaK6yPmxHNiX+CtNhbTNlGoELcKbEc+YsuYjGPjfduE2LY78hFz4nnDNmEexyLwWIKYt19F9xHvAoCx7d60TbCPE/t8MZ8Dhc7B5jnzfJx88yB6rB0JSyf+Zctna1HFbVltE4ZVQkuhTyoNOw5Hap1GcYanRPEibW33TnV1dV3+0B+8uVENh2v5X30X0TZRVB9xdpR8x/WGbcJtgc1rVeG2CWc+YtFxnMYzPVdE20S2ILYfN8vmINCH186Rj5g3bvltE9mCmGmbEFttFP7A9ZFtwhM+Ytu2/HjetE2I+ojt2/F9xKJzYJwf87G9YJvg7QeRfemGj9jaxsn8hOJhh4KYiuHnNU1/VKnf9ZNyiVNPimKD9Krx0JkzT4+vbqxfISnLeXlYuJN+Lc8+WfjUNuErHzEvnqjI8YRtgt2n8m0TgttURB9x5dgmOH0K9hFbwzmYqydsE6J9irlqLdrO0oeZfg3ZtluI4OTYCJ4TPKFbsI/Yisg+5wg8znleXNuEuzYH9lydxXO2TU7iCUEIOqYT7SG5bvePyy1Kyz1+TjZtevss/XNlePhIbUTGjVgipjmzbBNufEVe6bYJN1YbTc95I/2aNYTL5wTrzdZX6decza9g2wQntn/Tr1nG5KyCZ/RiijVLbNHVVXMPLNBOdLXR8py7tglcXNsEJ7Z/069xxjULYp69Qki4WWMLCrxipl8TfW2YccU2IbovRWN7If0aa37Y4fwkS0PBz/h5MfyKTshDasPufyvFj+hE8LwoXqSpaf94V1fX5P33/0pDgOA6qsKWDoS/0q9x5lRU24TbNge34/FaCa/wmj8YOO0KtU24bF+oSNtEJaZf443LFcSiIkdgDmVKv5YdS0QMIfHtEBa3ufc5b9v9a5vgZCooi4/YoJjp1yxzK5ltgvceIbLtwuKR0y6zTelsE6LxmH2sJxULqn6vEkK6Xjg1+bXOzs5UqX5EJ4JvRLFB2lIxfPLkVxNb193SLKlSOLtV/naDyrRNiIq9CrRN2FatW8RjPuKsZl6zTfCq1hX8NXFWQ/txvW6b4KxK+jf9mnVoB8eQuR02VetsY3Pm6rrVwuu2CYHY1gswVrti+Ig9Z5sQzTZhH9v99GvO4pXONsFLDyd0AYAFPpOoGJ6mf75wbaL/MeO3Y52duXqUHl+J4kU6Ot6XpH+uGrmN60OxZnoo0vUlq9c24a/0a07bQdW6xTsi7RzaJjjnqPk5qFq33D8jhFkcFFohS7idD6rW4aW/3ku/5nXbhNfSr/Hmymln3peu2yZ4+8ssMqFqnf388t0m3hyyIPP/R9+Y1WYeCNXfdrGtxBkl8sGXongRI7exJElTY2NHGoJIb8BYle1b+sk2kb8g5sauSNsEbw4ur8T71DZhI4gZ8ZzYF3irjZVom2DN1dfp1ywUbAkQ3P+eSL9mbZP7WEPVOhGB54ZtwnI734wXnky/5ixehVSto2r4hJZCHzDSq+XMluABfC2KDdLm7JHu7u7Erlv0ZiUYFL8G8YJtwlfp17Km5G48pm3CCz5iXjwepbJNuCKwTc9B1TpWcPb8lsJWTtU64eIWGaFZfSqlap21mYN9JCBKvGmbsPSBqnXceE7FsjPbhKeq1lFhNkB09NCnnnzqH9PWV1/ge1G8iGHWpn/6+/ufijeGm1uwJAUWnimRbcITPmKn44rOoVDbhBNBzIsnKox8ZZtwKATNPTyXfs3azMEHvaNxOf19m37NMrtCbRPCdgNB8cgRrd6zTYi91sRtE1C1bjkWa19WW9W6/IWq1eLBvuARmYPdc7nn4CzePFQMz9H/PDma0j7d2Lg78eijO3jNPUfFiOJFDPM2/XM+kTjcEMLqCuYbAVStK0E8N4R4hdsmvOEjtuBX2wQrtlVgeyL9WvYcbdtB1TpTs/w/wJm2iXyq1gmtvnP2Ee8CgLHt3rRNsI8TVK2za1d4OjfMjScyB942uW6bIAT9RxJrHw7Edp9uZAT3OhUniheJxW4bPXjwYOJXOtc3KyESy3jBeM5HzMMLtglLbGHbBCs2r1WF2yYqMv0ad075j5tlc+Ct1grEhqp1DKquah1D4DFiQ9U6EQEl9o1CUdOvzd/0gm2Ctx/ExKhPq9YRhF7WiXafHNv9TIDR2S9UrCg2OHDggEb/XLtwoXustS7QKslqyBM+YsfjmnsU0zbB6eO19Gvcdp6wTbD7eC79WtaogsdQ0JvLtE34Kf0aVK0THGu5DVSts2tn6VOyqnWcdn5Nv1Y220TVV62jYniUIP2TL5yc+pu0hdX3VLQoXmTdus4Z+ufC2NhzdTVqpBkn01XxKt42YYntyOZges4b6desIZyIHE4z1ht5RaZfswBV6/jxSmqbgKp1y83y3kc+Tr/GGdeJbUJ0RRCq1uU5P15sL6RfY80PuzI/+o5HBfHfTU5MPBpt6xzyYr5hp1SFKF6kvv6t8a6urvEP/eFbmwKq3CTSx1+2Cd5cveBL5rXymm3CZftCRdomvOAj5rTzhm3CgbjyfPo1a1PB7RAWtyIClL3tnki/ZtuWH49btS4jFM82YZlPwWIUqtbZzrXQixBLG+9XrTPf/3FKS35Qrd/7UtTD+YadUlWi2CCdGmTw5Mmvjm1df2urjEituBDxmm1CVOz5Kf0aL56oyPGYjzirmddsE1C1Lnc8UduEr9KvWYd2cAyZ2wFV6+zbWfqIVq1j2iY451HBYtTjtgnOeV756deczK/QqnVndZ18VK7b+W2V0bgSqDpRvEi6Kt7l+ap4NZGVOKUErW28ZpvwV/o1p+0Eq9YxLw484SPOxHu2Cc45an4OqtYt92c8V9VV65jxvJh+zeu2CUEfsej55rYY9ZptgiPwylO1bnFOhcXzZtW6CULIZ89eH3pi06a3zzLmVDFUrShexKiKR/+8tpDCLdiCkvp8VTyoWudmPF4rByu8fk2/xmtXVNuEE/sCb7WxEm0TrLn6Ov2aBber1rGEpdfSr1m3qZi2Cd7rhtHHm+nXvGCbYOwXX6dfy2zj7ap1Ro61f5qem/lYeMXt/ZtijAgVRtWL4kWMFG5dXV3xD//x25tVBTVmvuigap1r8Zi2CS/4iHnxeJTKNpG5TWzbhKhw9kD6NbdtE1C1jjGuG8UtMkKz+kDVOtt2ULXO/r5v069Z2+Qfz8tV6wjq1RD6gBLb2RNmDFipgCg2kfYbD5w58/RY+4q6lTJRot7zETsdV3QOhdomnAhiXjxRYVQNtglzD8+lX7M2c/BB72hcTn/fpl+zzK5Q2wR7BVoox2xWPI5o9Z5twtKnYNsEVK1bjsXal6IXIe4KPD9VrbPG807Vun6C0ENSbMc/V6s4rNbt5pL2zVwYHj5SWxtQVuKUnOU3zoT3VX+l2ybcEOIVbpvIFsQCAo89rjfSr2UPbGrmYFxOvMpPv8bc51C1jjkH1naY4FatM0fCgqvvnH0kat3wvG2CfZygap3zca232baJclWtm6P794nrU6OfS1tKqxYQxRyamvaPS5I0EY8fbwwmSSt9Ocq5e1WbbYIVm9eqwm0TnvAR89r5yTbhq/Rr+cfj2Cagap25jRPbhOjFHlStSwNV68SeW8RJNgfkvap15N/mdO2jwbo951srMMVavoAozoGuGzmq0fDBgwfH7nlL+0oFqw2ZNooKt034Kv0aj6LaJth9PJd+LWtUwWNYqG3C0t/VtG8VY5vg9PFy+jXkRduE2Ko1d3W74AtESx+oWpc9h6w2+Qu80latw6a/+QtsdmYMZ/GcbdPi7Zd0Hd0v1+18PsdX4VUFiGJB0iWjr1y40D28siGyStJTEe6bgOdsE7yVOYYgFp6P03Zes0140UfsNdsEp51/069ZxiyZbQKq1i03E91HAtvh+fRrnHGLaZuAqnV5zo8X2wvp11jzwznmN0II+uSnvvTUV9K/owJMgCjOk3TJ6LNGyeiwFm7DshRYeKZUtgmOuPVt+rXspuZO7GZQtS6/dlC1Lve4RbVN8Pov3fdI+jVrU8HtcCBunQgeT6Rfs23Lj+eObcIyH6H9xztOXki/xjjWULXOwfxY8VJ0Dl9JkImuurrOsUcf3cEIXd2AKHaIUTJakqTEeP/h5kAg0IKwxvAbF2qbEBV7fkq/xosnKnIc2CZ8lX7NOipUrctuVy7bBCebg9DFihfTr9mNzRxrMRhUrbNvZ+lTsG2i0LnyxKjHbROc87zy0685mZ+9z5mgHyQx+UggtvOVOkZHYAEQxQWQ9htf7+7uHtnzhkibjLUGhGXTm0z+tglP+IgdxxNtV6htwipgOV+tC82vIm0TnP1qfq6qq9ZZxmRsB1Sts4vnAx+x52wTYtkmhKvWCac+czJXTjvzvoSqdXnHK65twtruVZ2Qj8ixnU8HGAMBmYAodoHOzs4U/XPp8uVjQy11ejvWJb7f2Lfp13jxeK0KtU0Ir/rxIgvGE469/JwnbBNO7Au81cZKtE3wtpfRx/vp1yyUyDbhufRr1m3ygm3C8+nXvG6bcCJaee8RhYpRr1StE5lfgiDy6RdPn/qbjo73JRlzA2wAUewi7e17p+mf0/F4d31YD69GkmRzcebn9GuF2ia4K7ymObiwylzxtglR4eyn9GuC47petY4h8Kqiap3d2LZjcfZX2W0TuLi2CVHfdFVXrbMZ2yZ29hxY57nX0q85i1f6qnXGD+f+YXJy+pPRlbcPdnTsZIQCWGSJ4pMnv6rClUVhGCZ2SZLiEwM9raqqt2ZaKuzxl23CiSDmxRMVRp5Iv5ZJ6WwThceGqnU28Sqlah1nXG6OWWHxvdzGe7YJMdEKVevMbRy0y9iXojlwoWrd8j2RdpxzNOc2HUpp2ofU+t0/jUK+YcdkieKNG7dEJq4dUk+8oo2mbQGAA9J+42v0ImP45htet0o28hsjLac4XsBrtgk3hLjX0q9xO4m98TqzTTgRxJz5VaJtghXbKrB9lX6Nuc/dqVrHmB9UrVuMxBHpovtI1LpRkbYJ8zlQ6BxsnluegKPzI1OwFyIsnY9rbVO6qnWXqdz4mFy381sqIzAgTpYofvLJ5xMPfOBt7XtuVWri8e5EQ8Md8bTAAxyQXnW/0N//1GBTdOUarGsRaxvv2yZYsXmthFd4TXPwkW3CKoid2RxY42Q9mX87P9kmKjL9mglXbBNQtS77Oet+ZbVDPk6/lhFQ8DzHHMEtmm0CqtYtkE/VOtO+ZL5vORPY9u2mCSFPXBqdfCKdKhZwgSxRbCRzTiSOTQR0UhtCofrJoWPRgYFnR6u9HnahtLXdO0X/vJJIHG6o0UKrkZSa9xt7wjZRienXHMdjbi+7j+fSr2WNKngMS2abcLBNFWObyByUbZvgbZ+YcKu6qnUs20QZqtYt4AHbhCNBzBOthR5Pnmj1om0if4Fd/Kp1hP7vmzMp7eGaxt2X18UYowGOsP2h3alTs4k9twbmXSmSTJR6ub5laujQzNWxiZFNm94+W9opVhax2G2jXV1d8Y/8yVtbVTXUSj+cTfmNS2Sb8FX6NYdzgqp1i6MKiitHtgm2UPVr+jWoWmcXr8hV63gCo1BBLCzwOPvIT7aJqq5aJyosrbdZz3kw/Ro5pSH9I0ps97EaRjCgMGxFseElnrh2aEqtkZa+6pfVYGhNs9o20d898fThwdF02WPAAenSiv0vv3xweGP7+nYZ6Q3CQtDRqq7bApvXymu2CZftC55Iv8ZrV0TbhLCPWDTPakXaJnj9l+77Kv2aePYFJwIUC/qhrXFzH09/V63LCCi4z3nHyevp19yoWuemuPVa1boBglCXUrf7n8HO6g5z4z2bP/vE91+zlrpmpmS7OHItvnH1GiqKzSWLJayGw7X3vm11JB7vjoPfuDBuvvnAHP1zdnj4SG1MUtdiGaUv/hiC1lfp13jxREUOVK1jtRRqJ2xfKDSlWSVWrcsOKDa/RXydfs0cLI+qdQ4yWTizWlRD1bp8X5M8Mepx2wTnPBfxEWc/56YYFY9XnKp1VCOQvx6Zm/t8U9P+caq3GEMAoiTHjr1ekdVPqES6TAXxh6zPM0WxIdimBvtm5ADJWqXHWJFCWG2cGu6p7e9/ajjtlwUcYpzs9M/PJweOtgRCgdUYk/RxcWO1sdJtE6J9KtI2wRaMULWOMSZjO7K+7maKNScfzJmNKq9qnZPY1j7WcIx4HrdNcEUOVK2zofCqddnp4cxtnIhRj9gmyPfmCHowGNt5tokRABAnGT+xXZHQJ6ggfjc9t0bG0ewWOzs2t3jH4NTk2MpAONu6kn5TxzJSGyONbdPDR6bPDVwdSq98Ag6JtO5bKBl9a2C1IinNGW8qVVe1TtQ2kRE5/z6+sk2I2hdEVxu9kH6N0664tonM7cuI4Ln0axY8V7XOhby+TGFvbZP79VDeqnUC5wTvNWntU7AY9bptwolo5b1HFCpGvWCbeEXX9Qflul3PBRkNAHFSid6dMpIepoL4nYsvKB2RR43fd9m154piI80HFbyzkqIuHxubr8glFdUY3tiJ/u7EF7/y/IjVowGIk84NvZDCLdi8TlKU2oq0Tfgp/VpWM6halz1u2WwTguNC1TqBsTj7y4l4cdU2gT1im/BT1boy2SayYrPOc6+lX3MWz52qdcZzo4Sgz377mXNfhd9sFU5qvGevTOSHZSy9A5v2PUHoP184NfmVzk77fjnLPI/NjYw1Kq2t9s/OYfNtNaLWPfjBt0fHxp4bra9/azy/TQDMpC0pv0gkjjXW6MpaLGk2F43lt01kC2KmoBX8APJE+rVMoGpdjnFLaZtwcAEGVetExfdyG++lX7P0Kdg2wdlHohcAXku/ltXGQTvzviw44wWnjyfTr5Wrap2OCPnaOEp9OhbbO3LgwA7GNAARZkb71gQV/CUFyb9ud4bohNzHK0yXUxQb4mxqsG963luc8aY+Z39CYk2uwZHmmbHDdUMT8mB7+95pge0AGBgvkq6urrGP/tndbaqirKL7l5e6yea2tVmhtgkXVnihal36lq/SrwmOy4nHF7eMeL5Kv8bcpqLaJqBq3WIkjkgX3Uei1g0vpF+zbsdSfJ7Ac8M2ITIHxJ6DJ20TzuIVWrWOoJ8kU9oDgcbdL0O64cI4efKr6raNHfdRQfww3cFRuzaEoP+QYzt/yIuTUxQbnB88P7Jx9brVYlNbyFaBJTnQHEOrp4YOTf7y4i+G0pXdAAek7ShXzpx5emhta+NaCZFGYdHkum3C3Ep4hdc0h0q0TbgsxCvSNiHqI+b9AKlge4B5On62TeQv3LKbsgSZB20Tose64tOvWeYm6uEVrlonGM/JHDJie802UY6qded1RD5BBdp3AoxJAeKkxnrftH1zx1/Tnfs6VhuC0FwSax/Otb+FRLHxA7qJa4cm1HCoduERxiqxBfr5hpVgIHrLptdHJvq7x8BvXBjpwimnR0Z6YrUSWY9lHM5uxbBNeMFHzG3nCdtEZh+2bUL0g5Qzg4q3TTjYJut8Kt42Yd0+llBlzwGq1qVvQdU603zs24n6iNnZHDhzyGpTmMjkjit6wSMkVJ0JbOdV6yYI0p84OzD8ZSiEVjhGxq5wjfoFWZZ+x/pmnwUhfxWI7T6dK6aQKDZ4+tC1kXfeuSZi2CPYrZZzGhuC2Hw7EA03PnjfPTEq6IYaG3cnRMcFsknvv59NDfatDATRGmSXwq0i069Zmwl/mDBic/p4L/2aBahax49X1qp1pmONee3McfMXmVC1bvEW55yvRNsEVK0TjGF+nNWuVOnXDL4+PUM+GW7edW1TLacVkJOuri7p4fvu+aNwOPAXdIc35GpPELoe1+OfqheILSyKjV9DJhKH40GEG+1bSJyTYeGFYOTfjap45czY4fqBeOq6kd1CdHwgm3Dzzmvd3d1De7eF18gSWsls6Ln0zhhutQAAIABJREFUa1bcrlrHmpPgKown0q/x2kHVutzjFtU2wevPEMSOPsyt8fMXbtlNBbejRLYJX6VfMwFV6wReG+b7jqvWmR/NR9yK7L9SpV97USPoASW2oycMYrhgUuO9+x65/94n6c7dLdqHEPKwaPIHYVFsUF//xrGpkcMxLBFuP/Mqsd2bmSQHQm2N6pqpoUMTvT/XBnm/BAT4pPfduf7+pwZWhNpuwAqJVbxtwhM+4uyWYqN6zjbhQIhbx6l02wRrDr5Ov5bZpmDbhPB2CM7VE+nXLH2gal1W7Ow2+Z8fzmwTgtvkcmGP/NKvDRGEPqXU7YLSzC4wG+/dEJCkz8hI+q/WN3gedMf/9NvPnP9/DhzYKdQ+L1FsHNjh4SMjUQm1ZD5jb5vgv8gkSQmGYvs69Oj4eO9IXd2eEThxnJNO4fafdF821chkA9KkHHm//WSbEO3jq/RrzuYnXrVOUNBmhBbYJuvKl49sE1C1zi6eU9tE4eLWr7YJrgiDqnU25FO1jnWs/VS1zlio+spoUvu8YXWE0syFEY9318dw9ONUEP8Z3cl51zPRde2+fPI+5yWKDYySxNMjPXWSkkpPjiWIeZhfSJKh3lZMj/XUUcE9mC55DDiktnbXcFdX1+gD779ntaKgNUgTuaIqlW2CZ3MQFOneS79W+Lh8QWwvGH2Vfo3TDqrWMShX1TpRoSrSh7fi5lvbBFSts58DY3t94SMWiydmm/hxEukfC9TuepXhMwUEmU+xtnnbH1NB/DA9g1Y4iUEQ+je5bveP8+mTtyg2GJ7Sh5tjaJWIj1gU2lqtRXj1zNjhqctD4wPwy0znpDN8XDpz5unraxvqNkiyZDmhSmSbqMj0a9ktxUaFqnXZ7dy2TUDVOoGxOPvLiXhxYrWwa7vUxwu2CftvFLyZfg2q1ok9Z348/3i5bRMX6YfuQ3Ltju9BirXC0eJ979m+qeOzdMduEfuEzYYK4tk5MvuRfJeWHYlioyDH1NChKTkgRRYfE7dN8MWypEnhta0r1k8N9sW/131+EModOid9YfHLsbHn6iK4/gZMUhHxixVHglbwuHsi/VomULUux7iltE3wBCNrrp5Pv5bRytG4ULVu8ZaD88MaX/QCwGvp17LaOGhn3pdQtS7veJnHd5YQ9JeXRif+EhIHFE4qcWK3jNHjsoTfWHg08mQwtv+1fHs5EsUG569fG97YvipsrBY7s01YmEsuP5fUJEVGDe+6e10skTg2ZFR1czpPwPiB5PyvLk/RC5m2QDCwDmlIXXiGI1gy7rEEKOd4ei79mk3ERaBqXZ7jcuI5sk34Kv0ac59D1TrmHFjbYW2T+1jnV7WOsR2ic/BC+jXrvlyKzxN4btgmROaA2HPwpG3CWTyWbYKg78/qMx8P1d92cR2UoyuI2fjx9QFJ/rSM8W9ZXxhOIAgNjCb1zzixsDgWxemCHgk1LNVlPpOfbWIesyA2k9TlEJJWziaONCRmkwPNzZ0TTuYKLBBecXt/d3f34N7t6jpZV1aJ9PFe+jVePB6F2iZcFuIVaZuwzpVpq4GqdbbPVXPVuqL+2E+wHSOeN20Tlj4F2yZcmENGbK/ZJlysWkfO6Dr5uFy367kQYzBADONb7Dq57sGApHyQ7lzXdifR0ced1sNwLIoN5gt63LUqtuwtdmNFMNuGgVNKsE5W1s6MHZ44e7X/miHIHU+6ykmncHttYODZa43B2EaMJEs+a/MqpxNfJ6+dr2wToh+knBlUvG3CwTZZ5+O19GvO2hVum/BT+jXeuJ6oWufCjwI9bZvIp2odY19C1bocfewyY0wRpD/+4ukX/7aj431JxvwAAeZ/RLep4w/r5PpH6A5vdjM2QeTkp5787j88+ugOR/0LEsXpgh4jVN7n+GWgoG0ihw1D0tXoppVrNk5ePz7y+N8+PQglo53T2nrnJP3zs4n+7hWhSPQGpOsh/pt1hdsmfJV+zXXbBFuo+jX9WtlsE+zqdpzbWZMwDSsq3ETiQdU6eyyiyfO2icJEK1StE+ljPY++O5NMfbymce+Vjo5djHCACNp437u2b+p4jJ4lNxUlvkbuK0QbFiSKDYyCHtOjR+uwJOX/o0uWbWIe+zcwbAykohUfu/+eeirIr8dit43mPS6wRLStc6irq2vkgQ/ctUZB8trFfLf+tU0IftXvifRrvHZQtS73uEW1TVj72z4n7iPm7UuoWseNXZVV60SzTWTNlz8Hf1etExXLvP0ltu2Lc8Xogk7Ig3Js5w9rGI0BMZLx4x2KpHxRRvjN3Hf4AiCIfFOp3/WTQmIULIrTBT2GawNSm30LxhudVRALZ69It0gRpQaFVs8mjjSOTI70p4tXAA5IX1VdOHPm6WtrGxtukGWlld26RLaJLAFVsA2D3afybRMOhLiojzgrHKOd120TohcroiKCG1tMuPnXNiHaxwvp1yx9oGpdVuzsNvmf5+5UrRMVviJ9+HPFaI4Q9D8ujUBWiUKZHjm2OqSof0EF8e9ifqGagiAIzczp5IG8q3tYKFgUGxgFN2ZG++olhVguppz7iG2bZazKLPSRtGCNUd6Yjh9/+dypa+D1cU46hdsv4vHu/ggOb8JEikLVuuU7Iu28YZvgxPZc+rXsxrnjlbJqHVu4VV/VOlELhAm/2ia4whKq1tnA+yEbZ19mHGsnad94sZ2JZYy658jsA0Y6L8gq4ZzBwe7oilD0IyFV/RDdwZHcPQrmiWDdrnOFBnFFFBtcHh66vra1ce3yC4jzQZqHj3ipGe+reZzEMkL1r9+wLTY5cHSwtu22QSgZ7Zy6us4x+qfPuMJTJbyB7nrVppn5g4HzAQRV6/JrxxPEvFVTgdieSL+W1cyBUPWaj1jwQz8Lr9kmoGpdujtUrbOfA2N7c9hC2LYJ3ntEoeLWgW2CDOgafliu3/Hvha42VjMHDx6U33Pnuv+LCuI/pzua4SBwFyr2rg7NTHy2ubbwWK6JYmOVcfL68YRag+u4DR34iLMxCWlsFtiaFAji1pnBw41jY8/1p/PzAg4xflTQ3d09sK8jfIOsk9WmpxiC2Ipf069ltxQbtVDbhLur1vx2rHG9bpuAqnUCY2XuL7HsIZy5umq1wD6wTQjEdsVHjDIf961twgs+YmubfOJpdLv/fmhm8vOQ9rUwtETf23797g2P0516aynHJYh83K1j55ooNvj+Ty4NvfOuVVGMA2JxC7BNcMPKWI2g6LrZxJHJwYR01ajAJzQfIIt0CrdXBwaevdIYatwiIZ2TD7tg36/DeJ6zTXCEpRMfscQRERVvm7D0zwhhOp7CFzUFt4OqdbbzycR7VeussVhz8lr6Nd5cOe3M+9Jp1TqhCwovpl/LZ2X5hSTSHwrU7nrVjVXGamVuvO9GleDHZYzvLfXYBKG+Tz3x3X969NGdrsRzVRSbUrS12DYogm2C11fS5UhrlGyaGe0bO/6zyf60wAMckE7hdmpy4GhLMBDYjCU9VLiP2NpM+MNENPbyc1C1Ls9xOfGKaptw4COuFNsEVK1bbCUq0jmCMR9rw9JNL6Zfg6p12TgRy5bb5IqO0Cfl2p3fyT9tFrDI5cvHalbXKQ+pCH+Ungkl35VUEBNNSxWUgs2Kq6LYwEiRNhvvraeaN3MHFdM2wY0nSTLWG/e/IVo3ce3QQGzVm4bAb+ycSOu+611dXUMP3nfPeoXo6+jFjZzdyq+2CQ/4iLPG8altIusHSIVmxmDsS3/bJhyIvaymrA/9Cq1aJ3whw4jNEHjetE1Y+kDVOm48sR/7zRBE/vpqPPVl+Aa5MLTxvnesrlO/THfsDWWcxjeU+j2H3Azouig2GJkaGGiKrlzDbFAk2wQ3HtbkYE1o9czQ0RUjIz1XnJYABJZSuJ29cKH76qq64GZJUlcuP+sr24ToBylnBp5Lv2Zt5uCDntdHRNy67SOuFNtERaZfy6Rg2wRUrTPNR6Qd+3yDqnWZ8Qj6/qw+82io/raL7WCVcMx8ijVVfUJG+DfKOQ9CpzKrzTzgdqntoohiI2cw3XETsqpE5x8omW2Cs9qVHhfLcrAW4Y2ziSOJa6PJK5CD0DnpffdSInH4chirN2IiW95qPGabqMj0a9kDm5q5Ma59n+L6iC1j+tY2IbbtlWmbMI9jEXge8xF70zbBPk7s88V8DhQ6B5vnzPPxnG2CYzNBZ3WifUKu2/1jtwVUNTGfVeLu9X9GBbGRVcIDlxXkceMCx+2oRRHFBr84/9L1123eFkFzKdEreg6itglGbBshLpFgbFV9oJaK98Hv/ujyNcMPLRYXsJKuKnhsZrRvjSqhTfStSuUf2xLZJvyUfi1rnALtC9mC2H7c6q5aZyKfqnVM24QXqtaVxzbhCR+xbVt+PG/aJkR9xPbtoGrd4nOThOhPvHjmxb+H+gWFkRo/vufX797wt3THbi/3XAwIQleuT40+1loEaV40UWychBP93SOBQGDF0oOF2iaEfcSiX9FirMhqy6++rb2RzrXfKHnM7gfkItSw81J3d3f/vtcFNsmqvNb+OBTVNsHuU/m2CQdC3GUfceXYJjh9PJd+LbMNVK2za2fpU3DVuqyBBeZgue/b9GvscYtrm8gno4Txm6FvT02n/iLSsmego2MXZ1oAj6nBvpU1QfxpGSvvxUWsRpcvBJEH0z/+d52iiWKD2Oo7hqfHDtVRLas6s00U6COef0pAiGNVCYbx2rmRnpYZRb8Wi+0dERsXsJLO8PHLwcHuyw3ByFaMCDuFG/MD3Ffp15zND6rW5Yjnim1CUPQLV61jtBNdbbQ8542qddZmee+jHLaJ3LH9V7UuX+FmjS0o8LxWtc4V24TovhSNbY33c42gjyuxHT0RD3zB71cuXOgOrWmI3F8Twg9iT1glliEEHVPqd/+/uu5awokMiiqKjSwPIyM9g1Gkrcp8xv4NrJD0a7axBYU4Qqn5dlgmoRqC11NxvHJGSfanbQGAA9KJtHsnrx9vDQakG+nHSk3msRFe2TDhwEfMa+cr20Qlpl/jjcsVxKIiR2AOVV+1TkSAsrfdv7YJqFpnPwfG9jq2TfDeI0S2nX0BkNlnhCD0hU898dS/uJmeqxrR4n3vWdsY/QIub1YJW+ZTsGHtvmJmECuqKDYwsjzMjB1tkHQUXnjEbR+xE9sEnwVxrGyg4rgNxHFhGF9fdXV1DT54350bFBSkLzIi8wVUlVWtE876IBI7u6H9uF63TXBWJf2bfs06dKEXCuZgXqtah3xgmxCIXU4fsedsE6LZJhiCnStuBS88bOc6TQj66mhy9m+amvaPP/roDkZzIBfJeN82RcJPyhLuLPdcOPxvpXb3sWIOUHRRbHB5KH5tbUPdBqo2Bb+mLJFtYp4U8zlJQTVhpN5AxfE02Cqck75yf+3Che4rq+pqbpRkyfTNQcXbJjjnqPk5qFq33D8jhFkcCAot4YsfZrsSVq2zF25ZzzHFtxfTr3ndNuG19Gu8uXLamfel67YJ3v4yC+JCX5NOxDKeH5mgf5maST1hLLw0cSYB8DEKcoXDgU9RQfz7dMfa1B3wBgShqZmk9mBNkccpiSjetOnts1ODfWOKbF8iuNy2iVxzkhQcDiP5huToiVXTcvIqiGNnpFO4/TSROHwxrIVuxgqqE+tZftuEjSBmxCumjzh7gqZmDsblxIOqdazYguMWbAkQ3P+eSL9mbZP7WEPVOrPAK2HVunwzXngw/RpBz8yh5GeDsb1nIjFGbyAnRjW6VTHlPiqIH6A71/N7khDyWE3j7svFHqckotjge93nB9919/o6lNRzXImUzzax3MM+Npb1UBgpG+dGjrcOzw5eMPIx5xsbWErhdnhm7PBaFQc2I0kKes824QUfMXdODsZ12TYBVesY43LEnnBxi4zQrD6VUrXO2szBPuKubC52FzzuJbVNWPpA1TpOvD6N6J9RYrv6goxJAbmRJAmn4j2/vbpO/TTdyWvLPR8RCEIXByavPd5WAuleMlFs5AFOJI4NhpC00vy412wT3FXrdDxJkaPNyspbZuPHB4+9OHM5nXEByBMj8XZ3d/fV+RRuAXUDVT82b8AF2yYcCkFzD8+lX7M2c/BB72hcTn/fpl+zzK5Q24Sw3UBQPHJEq/dsE2KvNXHbBFStW47F2pfVULXujE70z8uxXT8omWCpULT4iTdr8d7H6Q72lfmaEPRgqRYhS3qOGbaD2URfPU7p84VlvGibYMa2WWWTsdKyf1uocWqw72q4eec1sZiAmcUUbv39T11sjrRspXvZdNHkwDbhDR+xBa/ZJkTHLaqP2DJP39omxLa9MqvWmcinap3Q6jtnHznwEXvTNsE+TlC1zmCAEP3Jbz9z4RtQXKsw5oaP3qSqgcdkCb2r3HPJFyqIjyj1u75erBRsVkp+4TUyee1aU7BlffYzpbJNiPmIRWPTt1o1ENLWJceOt4zr+LyRbYPdD2CRvgo8kUgcawzr+GZ6xWHxGzPeoCsy/Rp3TvmPC1XrzP1t5wdV68xthKvWMQReMX3Etm358bxpm/Bw1br5m+W0TYxTIfQ/L41O/L3xO5QDB6D4hlMmrh1qjkRqHlEDgT+kO1Yt93zyhdBPAXo1VNQUbFZKLooN8TM9ciyuYLl++dFS2iZYkUUFtn07LKOamEy2zo33jFwcGLlo/Lgw3zkAC98m0D+H5ktGy/gmhPWgsNDyXPq1rFEFz1FBby7TNuGn9GtQtU5wrOU2ULXOrp2lT8mq1nHa+TX9WtlsEykqhv/XOJn4cl1d59g6z//0y7u8/PLBwE1rNvypIYjpDhb8QbsHIeSfldjOnlIOWRaLTs9LswP7Xh+KYWyThoq5Ssz5cHch/Rp7LJ4Qz44nIdK4vmVF/fRIT//n/+r7VyGRuDMySkYHAgv5ja1UvG3CEz5iTjxf2Sagat1ys7z3kY/TrwleyIjaJkQrskHVujzmd4EQ8s3pGe2gkV7NvwrOG2jjvfdubd9g+IZvLPdcCoEgNDGTnHuo2CnYrJRFFBs+0on+7sFgKNwqbpsw466P2Iltwk4QLz+ny6qK2h/64L3N4+O9F2trdw2LzREwY/Ybrwiv3CJJeBV9qSycsxVpm6jE9Gu8cR3ZJhyIK8+nX7M2FdwOYXErIkDZ2+6J9Gu2bfnxuFXrMkLxbBOW+RQsRqFq3QIziJDva1j/plGMwWgE6dUKY26k52ZVlZ+QkXQ39x3YJxCCPlfTtP9qqcct2485Y6vvGJ6JH2vAKbSQXcUT6decjmvfB0tasAbhLfRkjQ/PXj8PKdyckd5vLx48ePCle96ytk1V8Roso+YlYew52wRUrcsdjyPc/Jt+zTq0excKULVOcHtFq9YxbROc88htH7HXbBOc89w9H/EpKnYODs9OfKe5uXMCskkUTiJxuKEWBT9JBfEfYx/6hu0gCJ2/mkg+0V6GC6WynZOGcXpwsLu/Xomu57d0w0dcfNsEL56k4rpmtfXW2UTfwLFTkxchhZsz0r9ANpJ3X75woTvU1lizRtaxkWex1r5HPh+4xCirblhdCNElgmTjtvFzV5nMP0fmPxYY54c1xzLzPMLzL/flbqYPZqsQN/+uwHouElM7MwuvhwVRb/1g5sVb+qy2F75ZH3ZGf7YbIbP/4riW/cD1QzPmKmxByYC7akqWpmeXDnBxHN7X7Ngyd/NTGduOTc3w0t2slTXOD/yI3eMZfbj7BDPFH9cCkXm5ktmHJeoye2c8Z90+xj7KHM5+e+e3x3oeLe7XXKvlS3fF/Mbc7BU8Mbp4f37vS8x22Pya5l0AcNME5o6RXYHOuC/TFoaYUtNtjXNNobeUtG1NNV4q6cfxUiT6KkYLB9B4X160CaZv0/dPgnXaxvisS9LX2Y9SWPvXQO3u00aAZvuNAPLg4MGD8nvuWv+HtSjURY/2inLPx03oh/AD7e17p8sxdlkv1IwrxZmxo+P0FSl4PeBx2wRTDC3cljFaedv2SNPUYN8lSOFWGOnqeKeNf0Yy8n/913+VbrhhVIrF1kiqWoNlOUj/DWFFqaVPq1jXk0TX50gyWavPzIzpicQlfXx8C3n++ed18H0DAADkxnivNf7mmw3A6BQoyoyqEy3e+5Zfv3v9k/RK6/Xlnovb0BPrBaV+zzdLlYLNStm/vTh79Ur/5rZ1UYQ154UbPGab4PbRcCCgoI3JeN/KcU0/CyncCif9Bq2l/+VFZ2en+xMCAACoQEqZGgvIZjbRd0MA4y/IkvSecs+lGBgp2FJ66oPlPM/KLopvvvnA3OT140OBAGrJfMZPtglBgZ0y+Y11HIlh+fVz431DZy6dP2fsB7G5AgAAAABQLQwOdkdXhKIfo4L4fioiQuWeT9Eg6B/Vuj0nyzmFsotig9qV+67PDB5uwDJmmMS9bptg9BEQ2JKGmresWdc4M9p3Ody0+zJciQMAAAAAYNhVUvHe36GC+LNUMKwq93yKCRU+49Oz5OPhMs/DE6LYEIJjY8/1R1Bk7cIjpbJN8H40U6iP2EKKE0/TZQWjdXNjx1vHx3vPQQo3AAAAAKheUuN9+7V475NULFRFST9CyGe88FsrT4hig/r6t8ZnE32Tkq5FmY0KtE0U10fMeS4lGE8nNTUI3ZwcPTE6NNN/FlK4AQAAAED1MD3S0x5SpcdkhH/LnCalkiEInT17fehLmzyQq9ozothgMJHqb42iTcuC0l3bRCbFSb/mRjyMtYbmmpYd9CLhyneeOX8hnYoMAAAAAIAK5PLlYzWrYspHQqr8USoSIuWeTynRdfKRTZvePlvueRh4ShQbeenoVdKoIpFGZ7YJL6Rfy5qS43iyTtrffffalqnBvvNe+FoBAAAAAAB30RO9v7G6Tv08/eBfV+65lBqC0PNy3c5vl3sei3hKFBv0vDR9bf8bwnUIk+W5Cdsm7PG8bSJXCjeVbEnGT7SNa9prkMINAAAAAPwP/VzfrkjoSQlLbyr3XMoBFcRaSif3eakMn+dEsVHtbeLaoevBUGDhl5aeS79WynimRwmJxSS8bW68bwBSuAEAAACAP5kcONoSDgc+RQXx72OjomDVQv5Rrdv5YrlnYcZzotggtupNQzODh5uwogrm46ss2wSvraShlVtWrWmeGe27ACncAAAAAMAfvPzywcBNazb8KRXEj9AP+7pyz6eczKdgm0GfCNeWeyaZeFIUG0JvZKTnKt1XNyw/Wum2CbHYC9ukKCpGG+fGetsSiWNnYrG9I2LjAQAAAABQarTx3nu3tm94nH6A31juuXgBQtBjXvytlCdFsYHhnZ1NHBmXSKDWV7YJqyB2VAVPrB0mWiSCpFuTY8eHBybIaeOHimIxAQAAAAAoNnMjPTerqvyEjKS7qyPBWm4IQhevJpJPtHsgBZsVz4pig2ujySur6pQbEZY9nG2ieD7i7FbmdtrSbQnjprZapZFeRFz6zjNXz0MKNwAAAAAoH4nE4YZaFPwkFcR/TD+svfRbsrJDkP6QVxfxPC2K163rnJke6RlWZNScT7/i2iZK6SO22iZ47XSsEHXdu9+2pm1qsO+MF7+WAAAAAIBKpqurS3r4vnv+qBaFuugn84pyz8drEESOK3V7/reu6+Weii2eFsUG3/3Rxf5ffVt7A8KqZa6lsk2UMP2acDuNuU0YS8FggNySSvS2x5PJV5qa9o+LjQcAAAAAgFO0eM8dj9x/z19ihF9f7rl4EUL/r6Xwh7ycIMDzotiwAkz0d/cHw+qa5UdLaZtg9PGAbcKu6fINXF+vqLvnRo5f/c/zPzvT0fG+pNicAAAAAAAQZTbeuyEgSV+QJPk9uEpKMzvkm0rDjsPlngQPz4tig2hb59Dc8NEVWAnU8NrxBTHjOU+mX8vHNrF8x+ZpLCvy6ls33rpyZuzwa+HGN17y8hUaAAAAAPiFgYFnIy3hxo9RQXw/vRsCQcyGCo+ZOV1/MFjuieTAF6LYIK7PXa5Hgc2sVWJ/pV9z2o5tm7CEyGxHpbGK5Rvn4j3t4+O9r9TW7hoWmwsAAAAAAFb08RO/QwXxZ+nN+UJjIIhzQND/CNbtOlfuaeTCN6K4ublzYjbRF5cIqs/d2p9V67Jb5W+byBLE5kZEj4YR2pGM910fGE+94tVffwIAAACAF0mN9+6TEf4SRnh3uefiFwhCg3F97DMC4q3s+EYUG7x2+fzlzavXx6hAlMyPV07VOpZtwiqIGbYJ7mq5OYUbaW2Lqc2ziWPnvvPM5XOQwg0AAAAA2EyPHFsdUtTPyVj6TXo3U4PAKjEXQsgn6+vfGi/3PETwlSi++eYDc9PDR64rirxy8bFKtE0U5CO2bWe3yqxLCpI3vvtt61dPDfa9AincAAAAACCTCxe6Q2saoh8OqepH6d0wWvjcNf2oHQQxD4LQyy+cmvxKZ2e5ZyKGr0Sxwee//Oy1hz5wdxPVfDbJsP1qmyiCj1hwDlgioWAQ3ZoaP75uiqRejcVuG2X3BQAAAIDqQIufOLC2MfoYvbnO9DAI4jzQEfpIZ2dnqtzzEMV3ovjRRx/VE4ljV2oIWl85tglzq0J9xFbERDUmckMEyXuS8RMDQ1P9r7S13TslMl8AAAAAqCSS8b5tioSekCT8RpQpfCVWHyAbgtCzcu2O75V7HvngO1FsEIvtHZkbPtqCVTli38JrtokSpF+zbccV1bZ9DL9xS6S1ZW6k59KZaxfPGJYVsRgAAAAA4F8mrh1qjkRCf65I+PfQggBmfu7CKjEfKoi1lJb8kN/qW/tSFBuMpiYuNSqxGxeEZIlsE1ZB7KgKnmi74tom2M3mX+tYVvG6G9s3rJ5N9L32uS9997yxQi/UHwAAAAB8xMmTX1W3bd7+f0ciNY/QuzGbJuAjzp+vqfV7Xyr3JPLFt6K4tfXOydn48REZYU5t8UJtDn5Kv2ZFUFRn7CPLCx0jVUH4pk988B3rpkeOvVrTuPcKZ14AAAAA4Cu08d57t2/uMHzDmxF7ZRhEcB4QhManZ8gj4dpyzyR/fCtSReWjAAAgAElEQVSKDX7+2s+uvH5jRwPGurzwSBVWrbNtl79tgvuchMIBSdqWGj2xflKa+HldXeeYWHwAAAAA8B5zI8e3qor8BQlLdyLLSjDnNqwSC0AI+rRfM1r5WhR3dLwvOTV06FogEFztPR+x03alsk1YrSCIEW95PljR6qMouj851nPlwtDILzdtevsse1wAAAAA8BbxeHd9DEceVlXlj+nd9IIaU+iCbSJPCEJnzl4ffHKTnQnFB/haFBtEW950bXbkaDOWZPuS2p5Lv2ZtVS7bREbkPPpodFej9g0tK9pmE0dOf+5Lz54Dv3F5OHjwoHzzzUhuaAgpwWCLoii6Ik2lZElBiiSHFCxpMsJEoaesiiUy/1onuqQhoulExSlEZI2QOY3oqk40KaVrM5oeVuhjs/rcHEpNTaHUhg13zOq6Tsq9rQBQTLq7u5XVq6fluroaNRBAijwtq8uvo4XXjq5pcylVnpmZmZodHBycgx8h+4uuri7p4fvufV9Mihq+YbPt0vqZB7aJAtARud/PC2a+F8XGB3YicfhSGMmbFh4B20Q+c8jyEWfAEelUbClI3fqJD75j7eT14y9HWvYMsOMAorz88sHA6tXNYTUp18gBKSzpUhjLUgTrOIwkHMEEhekRCyOCg++5a705PRCe/7F0WDEOb/rx9Mtb1ZePo4zxUlah+WMfXFgrUY3Ha9KPqwiFEG4K0dM/3ov0RO80wtIk0ckk7TpFNDJJsD5BJHlSS+qTc/L0xGuvvTppfHNT9B0EAByM188Nq9pWyjjYiAmJYRnX0RO7DpH5H0/V0bO8zvg7/4/gOuN3E/S2/KaOCG0WXXydYBRBltcWRVp4PUWDUbyiPYpI4oTxjJF/dYbGn6G36flPqFDGk/TvMEF4kD43RIx/RL+e0lOD8dmJIeP3MKXaH8ACWvzEmx+5/54v0pu3WJ4C24SL0HP9B3Ltzu+Uex6F4HtRbGAUnJgbPjouqQHBBftKtE247CPmxjP7jaVoqAbtTo33DA5PxV+CN/zcXL58rKYxlKpXZfrBjfUGLMsNi2L3pvYNgflGC//F8x/NBC28HZO0uCXp55Yxf4tgyaOps84rsW8lEJFotwj9G0lHxlRo0LAKpvPAiiJTWR1F2zZtx/r4iVnabtAQADqRB1Op2YFfXPj5IIhlwE2Gh4/U1gbUNlmXVtHXzyp6trZhIq2kF+qrtq7Z0IRMV32L/8n47+KTmNi9NjDi5aIlGa8hib4GjFeq8a9u4XVpSCcjLjYHpGNJSJYDqCVMtfp43wx96Dp9asj4R3T9nE7Qq3Op2dPhFbf3O9glAIPZ+PH1AUn5nCShd2e6IJDdbWR5HGwTeUBP/2Rybu6DgXJPpEAqQhQbDM8NX2xWV96y9OZW8bYJt9Kv5dmH0Y6qt+YV4YY3JRKHj0FVvAXOnHk62BZrqFcV1CipVPgiKoARrl9VK9csLM/SfWkozEVzAuEdAxFxa+3P7GOBFU+3fhbwv2EgxLAwtdNzYY1MVb6sBgyxbKw0jxGCBwjRruuydH1KSwzU1781zp4PACxg+D8jOLyJqtQt9HpvCz3JtjQGgg3zT0pL/8Em0SsoeGwFsU0fUzurILaNvCCI+XPAITRfIY2sn78nYfpugHENfVuggnmSjnOaIHKGPn9GI9LpkZmRV2GxIT8GBp6N0AuQj1BB/AG09BXYPLxjA7aJQiDoy4Gmfb8s9zQKpWJEsVGBjV4VDspYafGXbcIqiBlvqMVOv8aMxyNrrmoEh/aNj/cer63dNSwWo3JIJI411uhotSRJbfRjrumG5ubFN2OM5l3XhhDWBY+BVZwuPczoYwhsVh9ebFY8nf3hrmPLzIl9u6X7uIH2oP+UrRK9AIhJ9Ugf751BRLqq6/oVXUbX4jNTV5ubOyc4cwYqHMPXu/8N4RtlGd1Mz5nN9CTbHMOR5sxvP7JOV9ELe/O3H6x2ErMd4QpdF+eAo7RVB932DqO5Qm9QcUfI+AljBfkM0fWfpjT9cGjFvl+C1z8b+t6LU/Ge36b77JP07irEXvXnXUBZVwJAIOeAnojX4/pYV325J+ICFSOKDY69OHP5tu01xtdnjO0qpm3CCz5iHi7bJpjxiBJGaN/kwNGeSOu+62Jz8yfGakRDuG6VpEmr6HtxWxQrNWndy1l5XXpY7GJIVNxyBbYT2wTj+OpW8c0UGLx4mApi44JhI91vm6hQxk3BCBXKfXFESL+uSVeS+uy5SPPt/fDBX9kYX28rRLkVS2Tbmzqir6OfrqHlc2reNyS4mkfY32pwVwAzbBMi5zVbTOGC52Dz3OJjxMiwtAZL0h2qJH1Qi/eMkvG+w/Ra+8j05MzR6MrbBxnzrRpS48f3aPHeL9CbO9IPOVkJzji+IIjFIDr5RKV8+1dRorizszM1Ndh3JRDS1uVuXahtwgs+YodzctE2sRRxEc1oh+VQWN0zef14TyX9AM+oenTzhu0rFUVfjXVpVXO4YcHDLs9/aC00YgpiM1Zh6eRiyEO2CdsYIucYyRQYBNXTu/WSTLYG5QBKjfXO6Im+8zrC52amps/BB7//mejvXlETDlMRjLZhIt0awEr9wjm1/BJaxvo6YZ17IpaFxceZtglRH7F9bCHbRM45METcfGzL/HAj/c876YPvikTmbRevEEQOGSL5Z6df7KsmH7/xDV0tUh+XsfJf0PJxFF4JZj0HglgM+rI99e1nz3/twIGd5Z6KK1SUKDaItu4emB052oLlDB8REhbBwrYJVmxeq3KlXyu6bWKxu/m2FKqR9yQSh1/wu8d4cuBoSzCobt22uWMtFYz0TVfCpo/Q5W3mCmKWbcKRjxhlPO4924QD4WxptHDe09cw3iojckskEjJWkhNER2cNkTxJxs5WyspEpTMzdnRdQArsowd0TyQaWU9PGzlbAC9CBN+rCrUs8ARxOWwTPBHHWS0ni7fxTXj+tYLet31zxzQZP3Fc1/UfnBsc/p6f02OJUIvVz9I/v4GW94vx14ltgn1hBNhCX8ZE01LvP3DggFbuubhFxYli4+vWeLz7YgSFblx+1IFtwlfp13gU1TbB7oN1w0eLI1jddfLkV3/st5ULIwfwO+9q36Bg+aaasNK0sIyV9XUuSxBbMAti64pPBvmLW2/YJhzMIUscsF4r5pWbGN172yVEttehOkMkD+saOhXX5k42Ne0fZ88BKDWziWObVKzspafM3qCsrl5aBiZZ57+IaLW0c2KbIIIiyVO2CQOLzzlDENtvE5lfELpDwtIdG1ubH9ITJ/5PEs1+PRjb/xpjDN+SSpzYLWP035CDlWBeH+sBBViQryv1ew6VexZuUnGi2MAoQzw33jcmIc3G980QeL5Kv+ZwTgXbJjh9zKvE2CToCA6/YfMbOuit42LjlZfBwe5ofSC05T13rd9MNzdYeEozJz7irHCCK0ilsk048hGbsNgm2NuO2eJ7/sXRLMvorkY58DZ9/MSrqWSq77N/9fQrUEym9Bg/cJoZOnqTosp76KmyL4DV5qxGC6uuAseda5uwCuK8BQ9/lThrvvy5Ft82IbhNzOeM3MzvDaDgfyfjJ3p0RL7xyqXzP6iEwiNGMY5H7rv3CZS92svaF0IXRiCIxaCXuZOzKfRAqNwTcZmKFMUG/SOTF1Y3ROsQ1sy/XBYUo2CbyB2bYZuwC6JLq2YTfTcEYzvPctqVFeOX77dvi97eFIquQUvbJigyC/cRZwXM3c4V24RVEDNWpERXt12zTSwNzGqVGWM+c/JWVVW2PnzfPeNaou/U9ORkX7Stc4gzH8AFpgb7VoaC5C1avPfN9K7hc7Ucm/QxXBCYnPOIaZtwcHGX2ch7toms2KwLP7aIIwL7CGfENv7ulRDeu3XNhlE90fetJNG+Hqzbc54zf0/z8AfvfS/dqm0ocxsLvYgABCEEfS7UsPNSuefhNhUritet65yZGTs6oMhy28IjbviIq802wYzHuaDQbdspOn792Nhzw171gdbWvoqxZHiGFxEUmcK2CScry5x2jmwTDs7F/NKvCcwhf9uEzX2OqEYx+mRnJBp9k544cUEjqd6XXvvZS36z73gZo2rcllXr98kyvqMmZKRPkxg/bsqVqs+mnbC9iOv/FLiw4s6V0878GizYusHpk7V9JsFe8MVnI32p/UEAK+8jiRNHpmZSH/bbD6ITicMNtVLoUeRgJZhzG1aJBSEInb+aSH6xXbBcmp+oWFFs8NQPr1x+911rV6CFUp4mKt02YXmcuUJZaPo1xLZNZIUjci2u3dPd3f0jI0sIe9zyYIgmffzEYu04C761TYiuYtl/mLiTfs2EO7YJ9rgkY5toS8MTvmHbpu3v1OK9P51LJXtqmvZfZW4BwGXeJ4yUt2xt33A73euLNcFzH8+FbxoELpLc9hFb57MU3/hbTNuEyBwQew4u2CayL5rt2hl/dw5Nz8Qj9hPxLLVoXhCvMD3E8arz3mdMF+UgiIXRdfLh9va90+WeRzGoaFFs/CJycuDopWBY2bj8aDXYJjIi59/HJdtEVjwiRW/bHtlOb/WKzaPEEDKXw0eciedsE8X0EWcHZNx21M6ZbUJMsNPNCNPw+0JqcJ+e6HstScizwbpd5zhzBtIYubhXhOvvkAi+I4CVNeJiLcM24eB1wmpXDA9vwbYJF+aQEdtN24S1nbXPUeNbVcZ4niQ5dvwNiqz8numhfLZX9H0LYEAQ+bFct/Nb5Z5HsahoUWxgFJCgL6KVWJayL4a9ZpvI6sMS1cX0EXPi8d5EGLaJrGYErZ0ZO3o9VL/vgtj4pYNQUYwx4f1uYHm7PGGb8ET6NeuwoqKV9VoR/RAT23aLyDGqpAUw3qwnes+mMPlhoHb3aU6cqsVIQ1gTVn+lpabxrXQnBhf2KPOct4iSjGPtxEdsF3/xpmC7Ytom3LZuIN7+Mp3LBV98Zo1LsP6c35QhFcRfRAvlQRcB20SJIFQ1pbTUB9TcTX1LxYtig3Edn4/J6JaMN1Rv2CYExYUn0q9lImqbsNleVVbfcObM09c8lz9TInOW9838RVgxbRNcv6WTuTKObwltE9mCmGmbEBNXgoKAbt5GleCN+viJC6m5uWcDTft+yY5fPcyN92xWEH5XOBzYSferbFzFLpCPtWHpZpnSr1nPAZZtwnJes1eJTa/BYqZfK5ltYvE2mZnBz4Vr7WfjRfTEid+ie2i/6SGwTZSWv1Pr975U7kkUk6oQxY2NuxNz430j9NXTZNugZLaJYvqIrc2EV1dEYy8/l69twoqOAutbG4xfDXsrTRtBSbNcY7YrnW2C09+3tglOn0J9xFnhco6LCVmnqur79PG+S1qKPKs27Po5e36ViZFObW6sZ6eM0btUJG9ZeFT0QoiVK9eTtglRH7F9u5JXrTO1Kdw2kR2boF+Em3deY4zpOYaHj9Q2BoKfMj3E217RiwNAEHp5PDxOko9U4G/rMqgKUWxwcWDo/PrWxob5X0qXzDbhp/RrnHi8NxFB24T1OazL7VNDhy6GV9zeLzaf4kN0MjWf3Cub5QeLaptw4iPmxfaEbYIpRCw+YkY7UXFleY4riLO3CRO0RpHx71Fx3K9p2jPBxn0vGYWAOGP5HiOLxI3tGzq1sd5foXthFbtlnj7iBTxgm+AJXT9Wrcs1bn4CkWD9R35Sh1QQf4z+SWeTsq76ZyAsljEIZGEIIY/GYntHyj2PYlM1otj4qn5m7PBVhYTWiPUokY+Y266ybBNWgsGa7d3d3YNeyUahy9J1+i67UfxYiYpb3mqtQGxvVK0Tjcfrz3qtOFzVyd82wd8mOimCVimS8t7UWO9AMn782WDDvlOVJo7nc3J3RO7cumbDu+ldY+GHI24d+Iihap35rsA56optIm+BqOn4Ob/UNZ4b77tRRfhPTA85ec/I2BcgiMUhiLz0wqnJv+vsLPdMik/ViGKDx/7yh5c/ft+vtCBNCs4/wFwlLqqP2Boib/HNn5LwyoZo7OXnnNkm2H10FN6/Lfp6eutUrhmWgml96nqtFOHMt2DbhANx63XbRP4+4uy4pbdN5BjLuLNSwcrvUHH8jlSi9weB+j0n/C6O520SI8ff+KaOyAG6iYsV5/K4aBA4nqW1TYiKUa9XrXNim+C9bkXmOhxs2P1Tek4znvYWKsFfoFuyqFd455jQvgBBnB/0PPmAVxavik1ViWKj/OvEtUMXQsGaLZWTfq1EtgmrIGbaJvIT4hIiN0z0d1/yQvUxozy4njgxSz8Eg+mHlreFK4hZtglHPmKU8XipbBNZq3vMVdjCRBOyvlacpF/jjJunbcI0lv0kMGmVEf7dVLznzbPx4wf9WgEsGT/eoY31/iY9t9sLv1Bj7FfnVeuyBhaYg6W9b20TotkmGILdoUAk6Md+ucjTxk78qiSjt6bv8s4x3r7wy6K456Anybfkut0/Lvc8SkVViWKD6MrbB5NjPauwkf/bFrBNLN5hd3HmI2aNXxOJ7Ozq6nrGuGjJ3b64EKIP0MNpVLZjCWILZkEsWo3LE7aJzO3LiOC59GsWGPPLFjmsOQnu/+Wv4+mDawOSfL8+3tczOjf3701N+8c5MTzD3HjvFhVJ/02RjB/QzdemEbxocGCb4B5PJ7YJP1Wt465Ui26fWbQWWlqdK5Z1RJ6Tkfe5fPlYzeqY+pjpIdFzh7mPrAcUYEPfMabn9NSHg7mbVgxVJ4oNxpLTrzUo0VuzV4ur2TZRGh+xtR1eiFf70PvvvZn+/U/OZEuCrqMBWULrOE0Y4lbUR5wVjtHObdtEJVatE70Y4PuIGX0ku3b0P3sa1eCtWrz3+3/x5Pee98KFnB0zo31rAgr6ryrCHQtiOAtRwbjY1u62ubvgcefaJizzKViMesE2Ue6qdTZzRcmh6dEXWn2QRmBVTP0QnfHi74A4lRHFVo9BEOcLedyv3445pSpFcXNz58TceM91SUOt7FZ+tU1Y+7DmVFQfMa+LbTtJIjeOjT13qb7+rXGxOMVhdmZqIBw11XnxXNW67MaMeJb+DIFRIVXrhFJqZcXjrIbyjidGNRKW3vPwfffcNjd89JteynFsrKytqlV/KyjjO1jCfvEOO0rJbBOcCyu/2iaEY5eyal3mcwQdbW29c5IxvmeYjR9fH5CU+9N3nW8v4Ah6KX3p+tToY60+ymPtBlUpig3OXLp4YcuadSuQpqe/RfKpbcIH6dfYo+qmfUnkWhTbQW/+SKRvsYitvmM4Fe9N0bcExRtV67KaMY6BAx+x920TYvvLkY+YEw+z08ihjG1CbWpAfb+e6HtxEpNv1dbuGub0KzqpRO/O1XXqe+k2NyxOcflZD9gmhO1Fbnt4i2mbEM14wV3VNJ3LBV985hSPfqliF5Dkz9M/i9/cQ/q1EkMIesAPF09uU7Wi+OabD8xNj/RcUiW0PsebsAkv2CaK6iPOpPi2CeuzK2bGjq4rZwlo48cnWqL3Oj1M1rytDHFbNtuE4Icn4/h60zbhatU6N20TNuOaxfG2KMKv08Z7n/np6Rd/0NHxviR7XPeJx7vra6XIf5cx3m2ySriwjwSO58IPNAUukkR9xG5Xrcuab+5t4tsmRObAjl1e28T8c7NJ8lwNo5FX0BI9d0lYvid9F6rWlRj6LvKCUr/r637JTuImVSuKDSIr9l6ZGzu+EunE9B5RKtsEz+ZQKh+xTcTl6RQokpyNq8rqrd3d3VfKmf5FS6YuKEpgtekh9gVKyWwTTr6V8LxtQlA0FTX9WmYbseNpJ+zp9TW+Z/vmjn2ziSNfC8b2v8aZi2to8Z47YlL0N+l8ouxWRbVNCMTm+ogtcQu2TdjPdXm+rNiC8ZzMQejCr/i2iQVeqWncfZkxB09gFJXZumbDF9J3C91eIE+oINZSOvqAX7KTuE1Vi2LjoI+P956jivjmhUeKaJvwU/q1rGbFs01Y+2CCavbfWnMLvflTkVjFoH9i7vyaRnUv1ZQ2H2Clsk1w+hA0TRuPE6MsNdJTSNKTiMhzRplqotPHZPqXpFL0Pv0naQhJNHIqvS2GQJHSHzQp+kGMNaMPUfQ5opOkntLmMH1eUtQgTqWCWFFD9NQNIF0LYkkKIqwF6dQCtE2Ixq9BEmmif0OsbfJS1boc8bCobSJH7KYADt6vJfr+TY7t/CEnXkFMDfatDAXR70lY3mozh/wFozPbhAeq1mUgCbaznm86bTtGH0nQLsbrRqPnAr0ox/S1Q18dxl8y/5fMp2s0znuMI7RtmPYJzZ//mIRM5zFrn5fLNrE0Ln3P8Lx14qY1G/6U/tmUvgu2idLzNbVuhydqB5SDqhbFBoYPMDl2bAwjqZ7dypGgFRTOnki/lknpbBPYrp0s4S0jIz3nGht3J9gxi8e6dZ0zWqK3n36WG6vFDKHqsm0iy28p0at0MkE0PEKQPkoIHknpsyPXJ5IjxvxEt6UU0GMViyipZhkrzfR11IJ10kK3p5nqYXMmH4erOiWzTQgeT55wXupDT2H8X/RE3w1nrw/9L6OaJrtPfhgFOJLxnntrgvjX6F11QXAWuo/ysTYs3SxT1Tr79wyUsX2GoEVxGnKU/h0j84LX+IfnbxMNxanuHdWIPDpF9Lgb7zNdXV3Sn/7pnZHagLJS0nCbJKGVdDYr6eFpo4K3jY5tvJe0mbrwjhnjPULYRsCMrSPd01XspkeOrQ6p6oPpu2CbKDH0Q2dscnL649Eq+3GdmaoXxQZD00OvNde07BBpy7ZNFNNHbG0mvLoiGnv5uSLaJux8xPbxJLlORh30xvNiY7gPPbLnFILa7Z91xTZh87g+kkrqJ5MpNPLK5Z+NWL2pKv23rkls/qUkLSqMfxmWgbGx5+rCenSVLClbsEy24OXc4IKiqVS2CSp0xaoQcuaaHZu+7HdsbF3RPj185H/WNO2/ypmjEMPDR2pTYz1/ggm+ZflRNy4AMjuZbtvrJ+/YJoyLjbP0ovEs0fE5naROjyVnzxnZhSydbDFeT9avOJySTs03nv532q7NRH/3ippIeAfdJR303DDe326i/2QXqtaJrqZeS1dm5G5LOQkpyqfpHyP9D+8cc3iBDeSCXjR2GbUcyj2PcgKimNLWdu/UbOJYv6zL1h9XoUxRV6iP2Eql2yacC2z6yMrpkZ72cvnfzly6cP6mNetvW7ZQFGqbEPAR66gmtGLfLw1bT0fLHocz9w7p9HrGv18Y96eGDrUF1Zob6RbTf2Q1QrwfaWVhXqXk9HFimxC6wMEOYhu0hQLBh1LjPf+i1O4+xunDZTbRd0OjGnw/vbl8WcQVShnbIbK6benP3a+ltk0Y35pcpzfP0Ruv6Rp5LamTs8ZvQozXymJnI41QMydQuUlX7fxB+h/q738q3BJtuUNC8uPpJvb7oXAf8TyEkO962SeaGj1xm6zgA2hh3mCbKDH0xPjFi6dP/XVHx85yT6WsgChOc+zU7PnbOiItSCOmfVKgj5jbrhpsE+YeogJ7OXZAlToOHjzYf+DAAU1kDDcxspNoiROX6WTWOrNNOPARS1LN5NAx42tWT/8QxinhFbf30z/Gv+cNQbAi3HajjNFNdA8aK2aW96IS2Sac+YjFYi/dJkEZSb+vj/dufOHk1Dfy/RGp8WO6AJZ/B5n3Edc2UUQfcalsEwTN0FsndUKOTqLZ47HYbaOLTxoTMHaEl1c8RTAWY/T4iVamFLa/bW0jLJY1gv7Dq9YJ+j4v//rdG55A2duEkIN9AYI4f3Si31fqzDleBERxGuODanr4yHlVVtMGfxdWeP1qm8gWxIIfuPbjitsmMueKCY786tvajR9BvsTuXzxSaPasioJrTTPirSo6EE3WY6PjgCwb519FimIzhiCgf4wfc5y6cKE7tLoh+gb6gd1B98jaItsmzIIs7/RrOWJb2mSKVnrq3PHG7dEN4+O9fyuS0/jkya+q2zZ2/K6E5U6bubt80SAgPIpvmxghiBzVCT76szMnTxkf0Mbqrw8KrzmGXmL8RjqLHuOirXCBOH+boMtq3c4Xnc+0uLznrnV/QP+8DuUp9O1ugyDOH0IvmOTYrh+Uex5eAESxiUjz7f1zY8faqDaJmB+veNtEmdKvibSTJXnr4GB3lk+wFPz8zM8vbtu8XUN6+nVSgvRrGOmGKH7e4ZR9SfqHgz3Gv4lrh5prwsGOBd/lvB4yr1Ka9yW7YpmoaC2qbcJegGJM1kcJfiQ5euKrasMOZllzKpybtm/ueD8VMxuyYnNXtwu9UGOsLDuvWpc1cOYcyGsE4aMppB8L1O56dXGQjg6hn3j4mtR4336ZYKOkvP3+csk2YUAvNr7jVaVoeK0j0ejDaPmLADt4+8KrC+C+gF6Tzc6h5IeCuZtWBSCKTRh+q0Ti8NkwCr5h8bEKtU2w+5Qw/Zq1pX07SW5Qw8aPUn4iMp6bGCtVWrz3Ep3MhuzsEBlkiduc7VjCQULh6eEjq9z4YZYfSf/I4weSJD0zEz++WSHSDiokb6aaK2BqZi/cbJ/LQFBYumWbsLm/IC6jikI+SM+tp9SGPf9u9XnOjfTcHFXlP6GfVtk/TBT3EXP2kQPbBFeE5WGbmE93hn6qa+j49Mz0EeN4Gw0CqPqQEfpNm4edrQSz+8zf1zTiWetEJBr5c/qnDokLfeb2wiqxE8iTwdjeM+WehVcAUWzB8K4lR08M0w9im9/5e8024UUfceG2iUx0LEmoffL68dZIy54BdrvikCRzpwM4eEPmo+7bJszPqXJgM71RlaJ4kbRQfNX4d/nysZq2mPwmCePbqf4yFjQKFK2ltU0sD4szbtPteVcqfnztyZNf/Vuzl09R5DeYBLE5Ejt29jwF91HJbBMXdR09O4lnnovV3jZq2CI41UYqnsmBoy3hcOAtiLVf3bJNLHBObdj1c4dTLSpGaXIZS7+LsnJMC60EZ2wvCOL8oW+y/SNzc5/2YFKjsgGi2IaByeRrK6NSA8ayvPyoF2wTRfQR89qVwTaxwLJYDIXk7fTP0xIqbdMAACAASURBVGLzcI9w4xsvpcZ6J+jbR1qkFMc2YYaKJcNC0e1guhVJe/veafrnB4OD3YcbA+G3SRLeS4WabNNUTLSWzjaRsw8m0rZtm7Z/6MKF7icX809LsR1f1xO99MSQ7uXEtoYr8ELNdduEcXuCEPJ8CuvPBGp3n650f3A+1NSoB6gisf/8ddE2YeBV64SRc1uL934R8QWxk4sDQBAqih9sato/Xu55eAkQxTYYH8KziSNXFSKvsW9RItuEr9KvWUct1DZhbUWajLRUwdjOsyLju4WxYpmM9/1Cxmi33bRMLQUvmgT2hUSiRsWycPPOa/nNtrJJ+8r/TyJx7CdRpN5Nd1aH6WmR/e+0ap21meAKtAnmDwSJUV5w69rG6INU9D++6J2XYrv+VYv3pegF0q8tzpw916LaJsSyTSzai4zKbxid0jT0w5+dPXXEWAGvRmsEj3SmhcUf2C1SyEqwXZ+lcz6FyH948Rik4seNFWIj/xekXysD9GLpuFK3+5/9nsXFbUAUM/jOM1fPv/vu9a1U2wVKZ5vwc/o1920TplHnbysEbevu7r6Yb0qrQrk6NvnLNfXRHXQW5tdL/vssy5fMLuwRUHXDQgGi2IZYbO8I/fP/0QuHH4dC6O0LxSyY4o8jdAu2TYj1IQJilJANK0KRj8fj3Y/V1XWOGQ/JdTu/rY1TYYzwb5TONuE4/dplqoefncToR0ZmDeOFUu35Tln82p3r3kwVyUrTQ7yL5gLFMjlt/IDR0USLCD3P62NS1PASQ9W6MkCvx3QNaR/wct7qcgGimIGRG5d+6J4NBrStnGZmwcMRe6K2iYzI+fepQNuEeT/Qj+jw/ltDRoq2n4nNyx3myz7He89hJG22b5FP1bqcfeaRsGyM9UL+s60e0ivp/zgzdnRdQFLvoTtxI3c1tGDbhOtWi0xBQPDqGI4+Mjlw9HOR1n3XjYfk2p3/oY336lQY/xYjXN4XrZZ2zqvWYTxLkN6dSmrPBhr3/MJoUMXVYYWRsPTbtk+4Y5vIOLZU8fy7FxVjDEc+gRZqrRS6vYATCPonJbbneLmn4UVAFHMwPnRTid52TGz9pAxBbMVj6deymnnNNsFaZTbaYyxLyi2XLx87nfaZloyZWf3nNaElUcyYL+9bhDytFhKJzSaObYJfBecmVL/vAv3zN3PjvVsUhO/BBC3anvDSX2e2CVFxy27HsU1Ywi0+tyIcDjwyPdLzucVqjnLtrqe0xP/P3pfAx03c+8+MpL289tqOnYM45IYkHM1hOwkJpJSGcLXlSO+DXrT/tq/lKo9yNaRAoZRSer2+Nm1fz9dX6gelDygQaHHJYXvtACmEAOEIJORwfOxufO6u5j+zh1fSSrJWK+1qd+ebTyxpNBr9dKz0nZ++8/slpBSfkG9nSjZhcBsdHTEExzHADw9Gxf+jKb6d+GneqYgO9JzKc+AMSVGenmB96UFUxH91WqitxDngIY1LzGQTRQDpKEVGxkdu9BXbEIeCkeJJcFwMv1oNa5cRIiP9ARske44IvyZH4WQTUKueccKu4qWDgJ8e4Omgux3aNlkPGvkiHuo+Rvo/kkyyRnXEeuHctM+FAIXVZMJIsUGkPhO/Eh3sPJ1D3IXk9pmaXGNUNmEq/q+2R8uIbCK7bfrWCngE7mbSKbon3Sniapofi4d74giCT2vsU4Okm9ARa8smekURPPTGsd7HFiw4b6xeo2EGbfA8+H8SLbHUEWJURmDUm0rb+5c70PKGKUNtBDkHNHOdoCjOuXPACLE5YBHcnsouyqACRoonQW3tOaHoQLAXITBNtUKpZq3Tq+cgHbHaNgjA+eFwx96UtrRgiMfje3ieX6e+1hrZhGJdw3ik+2RXdfPLudpayRBqV+7evHnzCzddc14Lwtx55ExKIg4VKPyaat2JbSb3WmNQ5QLCDdGBnu+nk3xwNSu2xkPBOELwcwBAjU66DeHXIH5bFOH9t9/38D83bdokLqjV2QODJuhvWcDwnNSixrNOsS6PZBYY4786jTWK4eAHIURrgTmi77TDKTmQ/tirew++cd+SQPknxzELRooNYH9f3745DQ0NEGIaVUjqAdT5kZaqbMIBOuKs/WQfUxVAdBTPE5NZaSV2/mv01TOX+lcTC1xWhV+TVlZrj/xAVyOEXmEDInIDJW9k0tne3t6zdql/LenUngu0Ja9myC0wKZsw5rVOxiT28By4Lhbu/jFf0xykxVyg5e+xwe44x+EvpIixBd5tLdkEHhAB/u/b7310Kz2fmzaxF2k+IIT4i0B57i0OvwYyZFkci8Ue8poz1RYcObK1aqqv/k7AZBNFgwjEa5Ys2ThebDucDEaKDYB+KhwLBd8iJ2uedq2SlU0Y9SzpWGBt+DUj3nIIuekj/V1Nad1lIUCjXsQGel5GnHi6TjWDnRzD3vj6sb5OOrjQkcH3nY5UpJKn9+17bOfcaY3nIAzOJmfbAwx7V62UTWBFPFaNetIkHRAQXgyvJER4C1/b3E6L6JTchzGOx1+Rm2GRbAKCEYzBg68fPfYgffZt2tSi0RSDUZD3x1wXQuelpBO5kFu1elr3Hp2mCCd+zFu/6qBJc23BVF/dN8hkpqI453PBCLE5kFvvMTo+odh2OB2MFBvEXfc9uv+mr110AkSiJ1FQqrKJEgm/prGNzOvq4mAzQuhgIb2oIXFsdx3nPjWjMbdFNiFrj0No1ebNm19KeT8ZTICSOzJ59NChh5+e6pu2AUH4btqzArreOKtlE6Y80Il9cRz4Qjwc9HA1LY/TQr5uxfZYJCiSA/gqqcJZIpuAWMQYPh4Rj/8PDQu3gGXasAwuBL9IWIm8U2R5+LXMfBzDLU56uY9HuhYKgPsayNMrzgixOZAXZDQ6Pn41GxQ7OZz0u3E0KCEZOtq5z+NGp5aUbKKUwq9l7UefpEMEAqO9208ms3t19mUpaPafeKjnZWLZYu1jzF82IQMSa2+88vzTyNzzORvMIMOMGRcNk8mDw8e2dXjcnk+QEz5XstoMaZUj92gT8nraUTJoWujLyb03xgVWPE0L+OqWnbFwd4yD+CogG7iUo2wiafPr42L8h+7AyjcDGgYwmMN4f+diQeDfLyu0TzZBsZuvWdFlwlTbIGDue8Q6rUAYeudCT3/PYBQY/Ng1ZXXB3pOlDEaKcwCNQBALdzWR51ldptRxsgntbcpANpFEZr+84Fq6Z0/b64XUSYXi8V21PEfIOJamGjbYyTHqjZefCw6h1W1tbS/Q+Nm52suQDTr6GiF0T3Sg8z0IovcRMqpwouQtmzBBiCf3WiOEr4iGOsNCYOUuuky1xmT5ezzirgUJYpyzbCIqYvyn2+975EH2JcIeEEL8zSwvcZ6eYMUynU7cY6KIt6jlQC8W4pHgReQ3tl5RbOQYZcfLvMTmgAE4GhIHN7PxscbASHGOCEVjr9TyQmvSW2ynbKKkwq+Zs8+kbEK+BntOappNNb7d2vuxFjQ2azwUfJXcAouy7bNONpFEilBB7L/43BOXkrkeMzYzZCMlu3kqEgk+VwXAx8ktmErUY0I2YTb8WqaWdtvyihwP+avHI923p6OSUIIcHey6m+e468iiW6MNtfb2jkZjP6ba002bWPY5O0CeE5cQQkhDSBrs/ORNlo8+/9qz/+eUbIL79j3mnj+t8W6QuydYdryMEJsHFsWbaBStYttRKmCkOEfQz+fj/V2HyJvpBPmafGUTjgi/lv9+bZVNKLdJec8gWtzb2763sXHdcZ19W4oIDvfUwNqTspIp5C+bUGyfWUQArdy1a8vu5cuviJo2nCELNC0xmfwwFuk+g8PgUnLK/ZLVat5VRXkWdLzEmvWMd5ggcAkYfmN0cPsmT+2at2ihUNv6fHSw4zs8J1wPksRYz9ZxEYA/CIHWh1lUE/vQ17ejul5wf11WaL1sQuaBxgD/xknPh3lTG+gXDOkA9XyPlyEHkB93z233PforNljWOBgpNoF9h9/ad/LME6dRp02yxIRswhHh17JrGturxVnrtDsHBtvGfL3LT10jT2vXtxa0563wFk9yTY0OyEtDzO4cQFB1+sLTl5N5lp7TBvDVzTv6+7teqOXQhyGCNP6YMXJbANmEyjY+N+e5aejIzlvSKaGF2lX/Gu/vvEPg+RvJeq9kG2kbveOieBdN6kAIseYhMeSPOsF9JZnQGNlWeoKly8ptxoYA/p1TUm2PDnTPcvPwOo3Vho+XeYnNgRBiHI+BK5ksKjcwUmwCVL86OrjzdQFyJ2Wv1Rl8pYmyl03oEHbpOqTjVdOXIUCE5xCCMDVNEAqB42C4pxpU0YF+5CiUWcA07c3L444At4oQt5eohCNngxkmReq8bomGuoM8hB8lV4RK8bRJa8FkE8r2EtvU+bzCTeR+uCV9P7jqV75EpRUChjeniLF0mxf6x8e/S792aeyDwSIkEnXQ+wfbKpuQP3MwfqC6JvHVwxEghPi7ZCINlZzz8TJCnA/wH/m65u3FtqLUwEixSfjq17w13hdsgly8KlPqsPBrevVslU3YrCNWrwc9PmElmf6fTl1LQcNWxcPdr5DDWCRfk6+OWFS+C6QkzFPLw/PI3P0mTGYwCCHQ/NyBAx0vnxDgLyPX9yzJKoO/BxtkE+otzajjuZuJrZuamlaN0CKqNR4Ld2x2YWET/bqQ2AvAf73t3kd+y7xG9mPz5s3om9dceBs56ZnxbtbIJrQJMUEUgi1OCbkVDwXfgxC6WFJk5ngZTAIDMDQaFa93UvKWUgEjxSZBtXjHD297xetzLUuWOCD8Wla1Qskm7A+/prEvOXMUYeNYuHueu6b5dR17LMUQGOvxA4+EFOcZfk1NNpFZlbp70NzoYMdp9HO5CZMZDCJFMn8/HukOCgB+irxqpsoqFEM2kdqxrB4Ec0+o4a9rb2//dipZCXDXrNpHfgubCEm6MR4Hv6MJP9hgusLglmsu+CS5RHTwr7WeYP1t/umUdPDkPuTPWu6/V2O14c4B8xKbB8bgrkImtionMFKcB/zT1/bGwl19MKkb00BZyibyb9tE+DXdemJynQBwc1tb2/5ChS6rqVkzEA8HX4UATSalyY8si/JBfBzHn9Pb2/5GIQcXVioo2di1a8ut75q//APJdNGE9BZXNpHVNoTwtDOX+65ECN2bHjxHO4eEoPy/NFFmsB80y6ZH4GjcaGnnR0lujZBCPW9qFlkm19wxYdjOXF71b2Qi/XqW833OCLF5kB//G28PHL9nNku+YwqMFOeJvpHQ3gZvYI2hys6TTZghxDr2FUU2MUGIE8DI/4H3zjqFzO3W2dZSDIF40I/RQtIRkUei0IQJ2YTSq4iBp97lpzKKNjM2M+SG1Ij+ttHBnUEXEj5NLsaJktUwM7VTNqGftY5wr9Wxga7Pk/kt6UJGiAsLD89R2YRvokBfR5yLJ1hrG3rPvSbUrfy7EwZODvd2T/d64M2SIqNEnxFii0D6xF+fPXvdaLHtKFUwUpwnpk1bPzTet/MtTuBnZ691mmyilMKv6dqku1+O49+1f3/7K4V6MNTUrOqPh7v3EaNUvMVJmySzGrYbkU2kkSRHEOIF0YHgKUJdy4umDGfIGZ7a1fvb2tpuv2TDiechwL2PECCJjFNJWvOWTegQbPW2IYLnieHuMKpp/pP2tgx2IB7qvhRBuHqiwN6sdRP1MMC/cEpoPa8b3kkmfpVVuRB9BpMgN8FTXKD5gWLbUcpgpNgC7HxhfN/apdwM8p6SvCAdIZswSFr1LCgN2YRsvyJwzayvoqHLdmi3by2GQKzLD4SFuuQ2G5Mfo0I2ofzkzvFw/ZEjW9+knTMzdjPkjpQ055HRge7dbg5+DSTkU1iRscyMbCIHHbE6EsSD4MOkk9bH1TQ/OdmxMFiD44faG6r8/m/Iok3kSG41tpF8hVAhjxiEjgwd+fMMB8RhS8T5hvAjkiIjx6j8NMa8xCZBCHEsFgNXCZNXZdABI8UWgH6iJC/IfQKHl6hWKJRswhnh1xQokGxCcUxIhItCofY9NEKETluWIeEtjlBvMdTyFoP8ZRMqn88x8DZ46jaQOeYdKDA8dc1v9/Xt+Fad4PoquTAn61TV7NTo1Ne/7uptTMwjCK8YC3e8SQfc6WzLYBGq/FU0lXNgosDerHUTyxjin82YcdFwbtZaj2TEjYvuA3ISnwbLWlcY/KdQt+KFYhtR6mCk2CL4prQeGA91zYIYVxdMNuGI8Gt69WyUTYiTEnHohz4aou1xHVstxTDAXVUALJTYbOCc6XiWsTL2sQySzgtYNN7fuZjGqM3dagajGOnvmOkW+HMfePzN36YHctKYv21tbd+5dP3cT0OIU6HbtGQTenrjvGVESs+yywX56wlpv4bFJbYX8XDPegTguRMFBZJNEBx+JxT7WZMDvMS3XH3RFWRyemox3+NlyBEYgL4Ijm5iY+vyByPFFoFqusLhjr1VgG/VrpW3bEJ7m/KXTeRMxCGGJ1Ii461fdVBnW8tA0wXHI12vkUNdAAzbm5uOOHv7JHiB23Do0MP7neA1Kkf09rb7G9z+r5G3T8OlG2ZXt7e3/0d6EFuKIP8yHu4+SFgv/Xyc3SmyKvyaOrQ8yw31Lve1CKHNTtGclhvIM7++GgibgE2e4NQUqdXDGNydjk1dTEQiwSl+iG5VWWX4eJmXOD9gjL9Jv1YW245yACPFFoLelNFQzxEE8bREgSYRLKnwa+bsy1s2kaOOWM1O8s/F8asIKXigUKRg5PhIp8/vm2+sY6PhOdTXESuRXIeBb6pvGpVRPJiz0Qy6aGtr4y49d+5XyGwDXYYYLT1zuf9ru3Zt+VEqKkUCXE3zY9GBngM8D/4tOwJBYWQTMiS/NCyPhTo/RqZ/0GmLwQTIcwXGQ13fIde6caLQ7qx1Gbx02/cfvn/TphVGzbUNfoC+RSZ1qcWcj5cR4vxAXmy7H3jizZ9t3MjikFsBRootxpFIdO+MGtQIIJKEjXRE+LX892urbMKUjliBbCJOak8ZDXVRnW9BAtv7Z6w7Fo8EXyc7X5AyROd4lc6SiTlTZAhCtCQ62PW6UNv6fK52M2jj0g1zPw7xRGSR5H2FwalLFyy7dt++x76/YMF5Y+m6VNM33Nt9q9cNryGLM5KleWat06+n7llOxlFO2Yo+FAsHX+ZrWrq122fIFbHBrivIeT5zosD+rHUT6+Jx/C0nZCeMhnqW8Qh8NrVo5ngZ8oQoxq8qVFz+SgAjxRaDfs4ajwTfJIx4vnqNUs1al11TvZ6C3Gp7iS0gCsa8zDyAre3t7a8VKmbryNBYp6/KQ73FGl6e3MOvZdXLQrI9DnHnDR/bdtTXsPZQzoYzZCGRrhaidalFmZefLCyeN7Xxuv372++Rhv/zNTYfPnTo4VunVU2/EkJ4iqJJg7+HvGQTFLJP7hxE1w4d7byqaurKIxptMeSAJBmEV1oQbcJMrOJ2mqHQsLE2ghDiHwB1Amyoc8C8xPkBA9DGBVr/UWw7ygmMFNuAvz6+/7VL1s9uAgi6K0A2oUPYpeuQziAj62UTsmUMfGuW+ZaShYJ4ymimw3i4+2Wy58VSw2Q2qcGMbCK7Pd7j9m4kpOyXTF+cH8b7di4SXMJHQbbwJuOFBXjhifX+G44c2Xq3NCwePfe7dm25Z+mCZV8nV+dUyXZq0CO3anVV5iXbZA/QpL8Bv8/D3bhnT9t1S5ZsHNdpn2ESDA4+FQhwtfeSc5p5fxqXTRj1pmo9L3E0Gr/NpbGykBAjPZ8kBqfH0OTcOWCEOD+Qx9LIuBi7zl1sQ8oMjBTbAPopY6S/42UXEt5lbItSkk04Ivyawf1mgDB6FyEuLxUqnu+xkYFnGr1188ihu4HNsomsehgEpvmnX4oQ+gMbYGUOxw9va6zyeb4kIZgyL7GsMgZzp/rqb+jv77q7vr41nC6memMVYpxuLt+vJuqkSSKbyN4Gzls0a86XyMwPtPfHMBkCXOBOcs1nTBToyyYsylqXAgZ/dtW37snFXjtA7vWaOoG7PbVolOgzEmwtvusOrHyz2EaUGxgptgk04kEs0j2bPC9rkyWlKptwQPg1w/tV2ioLjSc0eALUq1GQT02UfEdDPTs5CN6dKbVPNpFVD4N50cHge8nc1pwMZwD79j3mnj+t4WvkEqQzc2kT4vT5x+DEOgHdGAq13yWNjS0hxtdliLHsmina05RN6NwPmrIJBQhjxmB9PNz1ElfT+oR2PQYtiJHg5RCj94D8PcEGvxrI5kdHxvBdPlB81PHcLWQyTVGsZ7vSE8AIch7AALx9+Pih7zghaUu5gZFiGzEkDu3xo6rV5FFqMD6pI2QT+bddiKx1arZNsl8IuZOOH2r/Fx0Mp22TdXDXtTwXCwUpEWrUsikBa2QTWdtDgFdHB4LvsDTQuWFeY+PHyVvnBJVVipe+4npiOLMG+m8KhzvulIZHShHj7yaJMTxN0Z6sAc22NW2YRDahUg8B7stj4Y7XWWKP3BAd7Dyd5/ivA/nXHTOeYD2yrNkexuBnVK9u0FzbQGOiCwL/pdRizkSfEeL8Qe6Ff2fyOHvASLGNoB6j6GDXO4gDTeo1bJVNmCHEOvaVpmxC0R70ev1ryPQhnbqWgUoXho9te9Lj9n4k2TFSOksm5ox6+g1cDyx7AXEcfP/QkZ29VdNWH83F9kpFNNS5nIf8GkkRzEz1km9M1JteDfhN5JzfIT3nlBjv2dN2z6Kmuf9Ortwpim2ABeHX9EiYtJjebS4XFm7q69vxNZbYwxjC4e111Zznh6SzlJHz2h9+TbruWO9I/4+nOSA7AyHE3wdJ7pCzV5wR4vxBCPEOvrblT+T9UmxTyhKMFNuM/cf6986d2jADQJHTr5mvbKKUwq/p2mRivzqyCcU2EIETxkKdcwqlxaJRIOLh4B5ND6Fx2YRZ0uTy+lwf3rfvsZ9LQ4cxZCMxgAoFLpcU6ZBWjXssmbWuwedzfZN0iO6QRgGhA9wIMb47RYyl94MC1ssmJC3A1HRavct1HUJoE9Od6yMRj3gweA8hxNMnCguXtS4xTy7Qdws1HkIP8VD3ZeR0vFtRnAvRZ8gD5D7AcRi/lv1m7QMjxTaDEpGxcMc+HqCT5Wvylk0YJUnalcpfNqG6jQD51Zs3b36rUHE+D4Xj/zyhRlhIXm0e2Qp92YSJ65HlbUwuY1w/b+oU8jJDf2QPU23UcLWfpVEastckiO7k95j8WtZ53Z5bRvq7vu2tbz2QLs0Q4znXk45SSmNcGNmESuexJRrqvJDMPKyxTwaCWChIk7HQrwd5k1uVuumpjgwD73vg8Tf/sHFjcRN1HDr0sG+6f8Z3MnZNwNDxMi+xJfgzX93aUWwjyhmMFBcAd33/8ddvvur8WeSxlxojYUI24YzwawoUTDah2MbwftW3IYTlxis30E/Y/9KxxTLQ2NXRwc5/chx3LtAmUXl68OWyCaB8IUF0UnQgSOPtPm3Q7IpCKh6xNEKElLBMfv7Vs9bVegTulrFQ553SLxMpYvydxbPmbAaa8cxlNijnM8hNNpFVDwH0meOHt3XSMII6dlQsYoNdZ3KI+zLQ/N2mStTnlXVMeZZFLN7mhOQMhBBfTyZUCmjEEyw7XkaI8wcGYGwc4xtYCDZ7wUhxAUA9ksPHtu11u13Ls9dqkD9HhF/Tq2ejbMKwjlgrOYZyv9m2clBo2bfvsVcKJSkQalfuFiPdp4N0lrNs754UZr4IaNaDMHk+IcTrogM9x2jWtcktrhwM93ZP93rgByXxiKWdFYPXSatTg6tdiLt5LNxxl3RgGyXG4XDHd6uhcBepk4pQk6NsIkmIc5NNZLfnq6ryfJVMv6ndTmVipG/HCR6X67uyBB3WyyaQTj26bocTIoWMhXfMd0H31SD/42UwC4x/7K5pfr3YZpQ7GCkuEKi2MBbp6iPP1IZMqdPCr2XXNFQvf9mECSJuVEec1VxyHcSeOVMaabL47Tr7thQjI/GtXi/3SXIYSG6hTbIJkCHEqXnEcfiysXD3MHu4JtHW1sZdeu6cL5BTmB5ApUOIjcgmlG0ktqlyAeGm8f7Ou131K19Kr6ERKsYjwXsEADeRelr5GBQkTPdeUa83aecRtsZDXWezzFgZ7Nq1RVi2cPkPCCGmHRa7PMGTbYNj8fhmwbjZtsEFXffQiaTI8PEyL3H+IP31vggYu8MB4yzLHowUFxDhKNgTEPCZKt5UOcpeNmF/+DUj+0UcOG1w8KkXamvPCWlvbx1oit14uPs5YoVEHGivbEJejilF5gQMPzp8bNuvWCpoAC5ZP+cD5FaarbJKcV5zkk2o1fMKPH9jdLDjbqF21YRsx1Xd8ko81LMFIfAVjTbU20t+aTDQSdL7TWbmEeK+TH4Luwr1W3A6CCG+lTAROhjSYOfHFFmeTHrwZ6G29XlDBtuIeKTnAtKLPx+YOF5GiK0BBvj2mpo1A8W2oxLASHEBQbNdkZfiW4jjlC/hzIOjLGUTRQm/ZmC/mKvmAmeQ+b/p1LMUbxw99sy8qY2LyGyVuk2q86bqSb3EUqIEIXZ7XJ7LI5Hglurqlr5JjS5TjA5uP9HNuc+3RzaRqCa/ThC4eE64Phrq+Z4QWPFsegUXWPG0GAnOhgBdBHSvrUw2YaLzqFWPtgsDNShAtbN3ah9PZUCM9FwDMbhMVmiNbEKPECvq4Tf7x8dvnGLMZNuwZ0+ba/Gsud8F5o6XwQKQx9O+vW+/+R9LljQX25SKACPFBcar7xx4+eSmOTPJoyP9VUz7IeI42YSCZOYY9SG3ejbJJhT1IIbzR/o7ZtIMhDq2WAaqYY4OBP/BcZQAFUY2odI2XVtVBdCnenvbtzQ2rjtu0Pyyggu5P24ojbN52YRKORB4hK+LhXvu42tWdKULb7v30d/dcvVFs8hWSyXbaF1rMzpiJbJsJTfF2cSup6R2VRrESPenyTPhC6lFuz3BatvQ+ZFoVPysE2JIL5o59yogHwxquHPAvMTWQBTxgLB76gAAIABJREFUN+gYhGLbUSlgpLjAoDf3WLj7FXLiT8la6TzZhA5hl65DOi9p58kmlO25eX4tWfiTdlvWgmaYEyPBpYS/zNKoYsB2bdlENiFWJ99kpmGK2//pffse21JpMYxjke4zOAAXqKxSnNc8ZRPq5JbnILh6LNR5QzoqBR2Me+TI1u9P9dXfBZKDMdUJsenwa3pSi8witevQoYc/V4nZsuKh4CUIoutTiwY7P6a8x7pkWRTBda761j2TW2wvho52TvN5+X8HJjoHjBBbA4zBdqGu9QGWqKNwYKS4CPDWtr4RHeiYTbhkJnO5I2QTjgi/ZnC/Ou0Z3e9EIgM4laYulQ6CshvDx4cf9/n8n00lezDhPTe6jRZxS3sHwYx5jVM+uWvXlt/QrGuTW176OHCgwzuzRvigpAhmpjbIJlS2wRjv9dat3i992dHkDCP9HXd5BIHGgvVlNWuPbEJZr2Gaf/oVZPoD9W3KE4mQfAjdLos0QaEvmzDjCdaXTWDwGy6wos2Y1faCEGIakaRaUmS0c8BgAVKJOr7OYssXFowUFwH0Jh86svNFjw+tUq1QMNmEA8KvGd6vtbIJ5Yh8nuPPaG9vf3XdunUxHdssg3/GumOxcM/TxIhztGtpkitN4qbQEWvUk5MriNC8pfOXfXrPnrbfVMJnuhNqhIvJJD2QW4fo5i2bUD//GAwPDw39RO1lR2U80VDnvTzib0xub79sIrsCvDA62PkPGkZQp52yQSzc3cIheB+5Lumso/l6gg1+Nciaf/alA2/csmRJcZN0UEQHgqfwPPqMpGgy26ULjCBbg/tZoo7Cg5HiIqFq2uqjsUjnEQi4aQWUTeTftvOy1hndr872ZBsEqtYs99C3Uad229aCajfjoeAJhMcunsRGPQ+l5Frr64h11hFiDOcuapr72f372389e/a6USP2lyJG+ruaPAJ6j4qjV/HSNyOb0Dv/mW3iIvgv2inSslEIrNwlRnoeggBfKtncVtmEoh7iEXct6SRdUe6dpPH+riWCwP2UEOLskHzQtCZYWTcNvfYGRqPRzzvlfPMcpF8rOEmRIaLPCLE1SCTqEEWWqKMIYKS4iBgYHX2x3lM1Feg/cNKz+RJizXqGSWZJySb0dcRq2yDMrejtbX+xkAPPnn/tuUeWzl/aQCUcMhtVkVv4NfV62tcNQjx7Vp3/8wcOdPySZuEzYH7Jwc1zHydvHOXgOmhSNmHQIyiRTQDcyde2tE9m5zO7jv/xrGVVzaSVEwskm5DPQzhz0cw5l5O5LZPZWqpIJKTg3b+QpPbWe+bk6wnWk02AeBx/qVCDfSdDPBzcgCBaLykydC4YIbYQGPzIHWh5o9hmVCIYKS4iKPmKDvS8gWBqdK85mYN0E4PksRxlEznqiNVrCfVu3xoy97hOW5aC6njD4e3/64eezwCMPapWqc/LK2mEX1PWmqw9QoxnnhDgrjhyZOsvqcZV3/rSQizStYoD3EmpRZ3zpSWb0CPOhr54DA6Mj//cSJgtKuMhpO2HLuC+myzq5G/IWzahSfAggh8aC3VulaaoLheQ5+6pLt71i1RyDjmsz1qn2x4G4G6+tnnSjlIhQJPZXLZhrjQsXy5En8ECJBN1jH6bJeooDhgpLjJ27D6+d+2yqiYFITL4ctOpVP6yCRPHpCKbUKwjf08eOtr5HE20od2+taBB2cfCHX8VAP9BYoH0RaNHdCUeXvOyCbX2ySk/odFX/8W+vh1bnBAWygrs39/uObHO/6HsNcqBjpaGXwOZ8wpxTIz9Zy7n011zxmtiuKeNNPBR9fbNyCZ0iYyybU6AHPUWbzZockkgFu5p5XnwE3KIWoPITJFblbrpqbZsAoOtfG3LfU6JLnDp+jmfBfLISIaOl3mJrQMG+DaWqKN4YKS4yEh4hEKde3mAlqrXKHvZhDZRtSH82uS2Quj1oHVk5n7t/VkPd82qfbHBrm0IcWdlr7VXNqG2DXlbT60T3F8e7u3+ja+x+fDkR+BsNNVXrSdvm0BqUUpYJr938gu/lpzD+CmqFc7RbPDAE2/cf9m5c1eS2Xna+9WVTSjsUXIZ/XnS3zprLNw9r1zSgsdDPe/mEKCD6tSdENbLJrTbw6D7YDj6RadEFyCd4Op6l3uTpMiQppoRYutAboRX97795k9Zoo7igZFiB4B+noyHuuaSZwt9aRskglKUkGzCsI44a2CRrHHVbfTq6X5aVtgK4QnjkeBJNAWvTtuWg69tfYa8tKdRbzUw6OHNXzahHVqMrKj3esBXxvu7/uiEuKlmkQjBFhDOTS1Kj93G8GuyOkfeHjj+29kmvodu3LgxTjrN97kQfy95Y0pkFJqyCQ0bdHXEQF4uj3jhgpB6izdp1C8ZxCPd5yME75afRwmsl03ohVt8OSQOfqKp6RzHaPfrXS4ak7gxtWjmeBnyBOkgXe+UwZaVCkaKHYJhBHf7RKDiJZyAoQeRA2UTJoi4xeHXDMgmlOBFtLa9vf31QoVoS+PBrW88eOmGuR8jL+5UKnDLZRPGrgdOtY2hS+C5y2OD3Y86RfeYK2ZUcxvI+aRxf3UIsW2yCTEK8I/ziehBO81iOPhHCNCn5G2DHDqPRjvEah0AfCYdlEblHIYMdiDI+fsgguhWySDLNOzyBOtt8/bwSOwjtVPPCU1idsEw0rfjBI/L/dXUouHjZV5i64ABeJILtDxYbDsqHYwUOwTV1S19sXDPQYjFmcmSUpVNOCL8mk57Bj3LCATWLPMvJ3MFTXlLPYP79j12/7zGhk8Ra6YDwy9tTdmEsdi2kxACDsGL4qGextvve/gBmn1N5xAchd7edn+Dx0+lE1IoXvp2yibEv7pqWl7Ozeps3Pb9R//3m1dfSOOanyzZrcGOUO6yCXn7ELmgm2pNb8rNamdADPV8FiL09VRiDhOdH1NkWeN3h4+NxaMfqpq6umBjFozA43LdQibe1KKh42WE2DqQx1MsFhOv0hlRy1AgMFLsIPQOHXphqn/6dCAavS5OkE04IfyaTr1cZBMKkLda65EjW18sdBQGmnKZ7Pe/G331nyWsqk6tjo5swmBHRkcSgNXPC4Jg5S1XX9DY17fj96UyAK/e5T8vpR/V8RLLYOwcGZNNHN174M22JUtaDFiqD9oRGenv+r5HQD9Kfv63JPwakJdrDtyj82vHI10LXdWtr5o6gCKAdC7d86Y2/Dv5qXws1SnS6fzkLZvQI8TJdRiEY3H8UU/d6v2TGl9AjPftXCS4XJenFs10DhjyBQY/EepaXiy2GQyMFDsKM2ZcNDze3/kqx3GLJcWGHkT5yyYUJNPSqA/ZFdX3W3zZhGwdBEKDN0BDtD2hXdceUCIeDm//fSpUmx9IPTQmstYBo9dDgxBnVsL59S73teOR7j+6qpvz9oDaif7+rpq6ZKIOnfNll2wCgDgWf22lPtBb33ogHgr+FkH4OeOdx3xkEwlM6GIFgKi3+AaD5hYVNCPb/KmNNJzdPI0qNnmCNbcZjcPY5ULdSscRH0KIbwPJRB2GOwfMS2wdSH+tN4yP3xqYvCpDAcBIscPw17+//colG+bMAWLiU5YhIqhPiDVlE9pty164SMerVoayCcU5gpA7ZejIzudoBkKd7W0BDctD9v17r9f1GfLo9KQMMuPFUiA/SQAl6QIAV8Qjwadvv/fRR50qp6jl0fnEbGlSKMUx2SmbALv4mpbuXG2eDIRU/SU+2PVuMrtQwz6FPUouM+k8kJwX5flaQzpDJzu5M0Tj7F567uwv8Dz8kmJAnVbnx6jG2OjvTu15GRMx/gJfs7Jg2TKNIhYJruYAen9q0dB9zgixtcCieGMgsG6w2HYwJMFIscNANaWjA90vCAjofHN1mo44e8eSaib2q9OerbIJVVshIaXvIdP/0dmvbaBkfHRw+x9dyP0JAJQv+cLIJlSQWIcwPPuWay6cH4kEf0818Tr1C45QqL22BvnPTulIKaC9sgmZ9GB8ZGT8V1U2RN+n4buioc7f8JC/PdsGKSyRTSjOF4YChp8jM/+ek9EFwujgztmXbZh7F5l9l+S6U2gR4lzJbbqOUe8xXUc4D7iGCzQ/qWd7sUAIcTpRh8kONkM+wAD03Hbfo7/atCl/iRWDNWCk2IHw1DW/HQ91LSDP2PrstU7QEevaZGK/Fssmskbk5xkZA+ImqrtzTVm9V6e+bfDUrnlrPBJs4zH8SMYu81nrVNdNIpvQWgcxnO2H8NpYuPtBvqY5qLOvgqIa+i4gbxxXpsRo1jrDsglNgk1I0F/s/LJA4x3jcM+/iGWnKVaZ+P0bJ8TJKnj1eH/nYlf9ypdysdluiOHuD7s513WADhbTJsTSUr3fiRmCqNYeJqTnBi6wok3P9mIhHul+HwJwNdAn+vLfOyPIloHcGzgOxK869UtbpYKRYodiCEafq8Lus4HOQ8iB4deU1Qzs1xLZhM72OeqIs9oTE+8BXnCt27Vry2s0LbN2G/aBxkyODnb+hUPcJTA7DJfB+yBP2UR21eQ6DDwcgB8jxKRleHj0z/7pa3u1t7EfR45srZrqq1sriTihOCYzsgmjnQZ45PnXdj20fPmKnO3OBdFY/DeCwH1P3SajsglNz7nuPSDwHPUWfz0ng23C8UPtDVV+/+3kN3FmoiA75JoUZsmt1jZ6naQ46Rxd7VRCvHnzZvTNay66LbVo6FwwQmwxMPg9X9Oys9hmMMjBSLFDQfWksXDwLeqJy5Qy2YSGfZny/HXEEiQIcdpDVn36vNNpZrFtOm3aCqF25e7oYBfkOe4SkLHf4HWzTjahsi+Y/AMXVvk834hHup/ctmtoa6FjPKfR4K07kxxTOmMZNCmbMNVpiIngV4XoONFkKjjSHSSmKL676somdI7PmBc8da+sKkZyGyXi4Z71VVX+W8lsbarImIfX/vBr5DYAXyKE+FGNtoqOW6666DNkQgd0GzoXjBBbC9Jfj4yMj1zvK7YhDFlgpNjBODgw/EJTwD+TEDLe+OfQcpRN2B9+TX2d3D7E8S39/V276+tbwzrb2wqhtvX56GCHyHPCZXKyZ4lsQv2TeVZ7mvcYvQICaeT8M5dVNY9Huu8v9KCshAfs6ovOyZQYjTahR5yN3TvkRRcUAiueNWhq3hjH479xQTfNB6u8DyYWNDaFOcsmkrMT8zyG68mkKKQ4FXv6RgQBHSCW6Rw6QzYxJori57lAy9+17C82kl9S6r8JciP6DBYCi+B2X8PaQ8W2gyEbjBQ7GDQLFiEWezkRnCotrwDZhIljskc2IV+H+QDizibzD2m3Zz+E2lX/Gu/vigsC9yFiE5exTwsa5NakjlgBVWJJWm4UAPw3MdIT7Bs9/kBj47rjOm1YhpuuvoAmXJmSXCpc+DWyanz4+PH/8lfnaHAeoBnmxHD3NghhOhNmvgMJdb3g0noE9HfwE6O2WoVYuKeVEOI7yOwMILuXjXZ0LZVN0Kn0nA/FgXg5H3D2J/FGb921ZKKXGEj54GNeYgtBOs+v7j34xn1LAvZKrBjMgZFih+POex959earL5xLfkk0Vm2pySa0iarzwq8p9ql+HKT05NHB7SfSwW86+7Ad9PP5eH/nnwSB/zDI/h1rEZt8yRDQJonqBJT8aWlw+0+NRbr/wlc379Bu1xogkPBgpm2b/FpbEH6NQhTxg/4Z647lam++GIuJv/Xw3JrU1yTpKoMELyfZRKYNDE4opITiwIEO7wnVwlc5BD4J9Amsctlg5ydvshyKieDjQqClYF8KzGD42LYZXrf3amAwugYjxNZDBOAqK+OXM1gLRoodjkQmq74du128+wyV1QaJZYFkE4Z1xHqph50nm5CYkyDfLuB5L0Lov2h4LJ32bAeNAECTaAgAfgxkfsvGyG3+OmJ5Hb1ODgS+xEC8SM/K0bGR/7Hrs+FYqHOOC/Kp+L2FylqXQPjA4NAjs4sQfZ8m9CDn9Sly+s+TFOsQvPxkE9K2eYxoqEJbSXF7ezt/5jL/xpkB4Utg4guADMWSTaDMOtwXjYofoR1VjbqOASHEt5JJlaLY6H3OkCcwxo9wNc2O1ZozMFJcEvBOOeOd2GDwKEJgmqQ4/5e5YflCniHNnJy1Lqs9NdnExBxMTRvHBnYuI3O7tNsvDKhmdzzS9XsBcB+nizpVJyU56ZXa61Tbg/p6XKnXCS8kL+Ub44M9Tz7/+q5HrR6QJgD03uRcQWUTUAT4ISp1ytVeqzA8NPK7Kp/3HGKloLLaSAfA6JcCuRcRYkqK/zM3a40jHu4+76xlVf9G9jhbbp/0Xjb6DMrbEyxdlm5zYByPf8xdf8ZrOnY4AtHBjtN4TqDpnA0dL/MSWwtM+u1RKF6t95BmKD4YKS4RHAfh56tx4L1QlYDkK5uo6Kx1in1qHAeWe7c5xJ25f3/7nmKSoTRc1a2vjoV3/M4F3Z8CEwk+CiabMNrJSXvVyKkDG5YtXL7SytjGyZTOXGuKJE1+rS2STRAMvPz2m48vWdKcu9EWgYbAE8Pdj5BDuhgYJngT54VOjcsm5OtmjYU7FrhrVu3L3WptpLKsXYkgXJw63/l5eO2LNrF7aGjkU8UOQWgUPBJoYhNOY7W8w8MIsQ3A99FndbGtYNAHI8Ulgtrac0LRUM/rHMALgCGCl1yZmS3V8Gs69eyVTciPT9YCpp9svU11XjrA6QmdtgsGOuhqLBT8tQuhy4l9bs2KhZRNyNpSElBcx0HwWTHS/e7xePR+T+3q/Tq2TIrEAEhMn2eFlE1QLzH4ixP0gRE89N81wH8+sdajshrqyCa0veD690piWcD82WRiCSke7+9aIgjclYQQr5LsRlv7WjjZRDYhxuCpw0OH/t+MGRcNa9jnKNDwdQiC9Ypio88ChjyBAXjn2OjQ7Y0FHIjLYA6MFJcQXj34xosnz5w9m7yqNL7AmAlp5rTwa0b3a7VsQoNMiUpvdIY0QMwtPX5427NO8RS5Ay1vjA5u/5ULuS8nVqdDYBokOfbJJnQz4gE4380J3yDkuDMcDz1IO386baoCIQTjg8G1hZZNkD99z7+6a6vdiTqMIBBYN0jO4QMwqS+nMNIBQAbraRJLiCANf7clZ4MlGB3onuXmwVcIId4A5F5r7SQ19som9AehYfD7/33ijRs3btwY17HBMUgl6vgOMNg5YF5i64EBvr5QEXgY8gMjxSUE6pEaj3S9yGO4LFmiKZvQfqgx2YRKuQEdsWrLmPP53NT78t86+y8oaFQMQtT/0+f1fgYirJImPAEFIbBTNmEk/i+kM6sDXGB5PNL9t1wTf4z2bj+ZTBqA9rWWWqbitdaoqXm8ybZFHH+gWBkO1dA3OvTnBk/V+4l9Un+U1nXSvwe0O1CS30YiUcjcsVBwLu2Q5WpvJBKcUoXhF908vBRkvYsMJyHRsU+HVJv0HmMM7kQ1K368cWPxO0JGkUrUoUwJnobsPmCE2HqQe2Y7X9v6B1Fk2ZxLAYwUlxg8gVX7ooNd88mTSzLW3RHh1wzuV6c9W2UTJnTEarKJrHpw9njfzkWuKav3attUWFDPdW9v+39M8fg/AwGemSi0VDZBiK6xQZpGPbLpMjdhMZectbxqXSwcbONrWrp17JwAz7vW2CubUNsG9257duTv69YZsbAwoJ4oMdzzJ3IUn08VQR3ZhFEdsXo9mCGtAkhEofilUTtH+rua3Dz6lB+iDxALpVIfmDYAmJNN6D0jjHuC1beJEVJzDRdo+YvGto5EONxRX42EOxTFRp8FDHkCk7dIHMSvLHakIgbjYKS4xEB/XENHO5/1erh3a1QxQDItCL9meL8WyyaywrnlGxlDP/xapkCbTPGCcE57e/u+YqU1VgMlSHv2tP1s0aw5Hyf8ZZFkleI4zMgmDHn9jXpkFesS20zhIPyiGOk+ezw+9ie9mNDkGF2LZ81tAbJXTt6yiUm92+Rn2Oak653G60d7H5w/reFSYme9leHXspfT9TA581AtVFoWxvs7Fws8/2mPwFHJBado31iHvTjh18KE2HyeD7R2aKx3LKohfzuQh7LTPF7mJbYFv+BrWnuKbQSDcTBSXIKomrrySGyw8yBC3EzDRNB5WeuM7ldn+wKEX9NoUDEfWPMuDx0ctE1nm4KDym02b978m5uvuuhSBEELyPKEmfCamtMRG2s7+2Kc7ObctxByvH0wKj6gll77pFknLie8zKvRtrQxHZKek46Y4siDW/e3b9zYorqrYmLBgvPG4oM9f0AcvlKjitF7QJtYJrzEYIjw04dJp6VtskQ2NAsdB/GnBYGXDKDT/H0pdM4yQmzw3tNsO3eyjMGBcRD9lNURNgqBWLhrBQe5z2uslp0LRoitB+ktDgwNjdxcyCyXDPmDkeISxUB09Lkpbt8J2mSwVGUTDgi/Zkg2IQfiuNX9/V271YhbMUGTv5BJWzzcEyKM4lydqgZIosGBbIY8jGr7Vz3PdIO1dQLXHI/0PLpt1/EnpB5aBOAajfaUtpsgTeqEURTj/+vkQVbbnj/+yFnLq2imw+nJElOyCa3OxZuiCNoORWKPNjWtGlELdUFBB3fdfPUF6xGEl3MQnDxJ5z3tddb+TRr18Foafg13RMDYF2tq1gxobOdYpAaf/ggY6AQwQmwPCCne5JRB2AzGwUhxiYJ+Ho8Odr3MIbA4VWSAMBZQNpElczATGcOo57Y4sglZexi6Ahyk2kpHag65mhVbY4QYcwBcBhLEyJDXFMjq2C+bUEeSrHmJ0ZetXeobI/NP0eLBwacCAVR7KpjQTpjxbuf4e8Ag8vLBt7YvCbRqVy0yaKchHg7+hhDS6/UJsWHZxACG+B9xETwp1DQ/R3UPTRrZ+2hWQQFyF37zmoveRxptVKmi4611RPi1FPAf/rlr6BYnSmSMIDbQ+TmQ/DqUhrGOEYMlIE+kF57ZdfynThpzwGAMjBSXMHY8P/IiIQlzCf/0alYqmGyilMKvWSabUOwNLhkd6O7x1DW/rdNG0cDXrOga79sZFlyuT5KndnqAk8FOSeFkE7JlOVkDwwg8l/4aWY0CqzPea9vDr6VLn3ZCXOLJcPv3H936zasv+gg5qjmpIkNe8Il6EAxigP8hYvHvd3z/b8/SLw5aNwDtnNSgmg1kowtciD8FZHWMDF33YoVfU24TJ4TmVlTd/NtSJTQqg+s0j5d5ie2BKMa/VqodqkoHI8UlDPqjGwt37xYAWJkpLZhsQnsb54VfU+zTOtmEfF8QupC4ASH0S6eONqZRMkb6u37q5tHniNEKtZujZBNZhJiQtLeqq1v60ssIgjVJJ7Gd4ddkFuDRUfCErwQ0gpTExga7fsVx3LdSRfqyCQjICxzvwRg+L4J49x33Zojwpk3ZXvG2tjbu4vfOWk3avzCAas8CmdjpeoRYwwbHyCYG4wB/ia9u3qFRvyRQDYVvk4laOEbZ8TJCbA/Ic+rPXKD1H8W2g8EcGCkucbhrml+Ph4MLIUD15mQTym10CKMm9GQT8sa196tRz+myCaUNEE0fGwguJfPP6mxfVHjrWw+Ew9t/6IeeT0OMm5KljpBN6G6DIZ4YxT10tHOaz8OdmEPbymo5dngoJYa7fY0rDuvY6Cjwta3P4Ej3XnIMS+RraEZGGCbTfZQEx0Hsuf1HB16kg/TowWoRYapTHevrXMLx6NzLNsw5j7Rbl1ih+bsxHMnCCbKJl8fio5+fbNCg0xELd7dwEH5WUmT098VgAUgffXgsHr1OS2vP4HwwUlwGGBke2+XzeWmYIyNeYotJZiXLJtRt4JD4nn37HttDSYZOm0UFHTzU3t7+ozOX+TcS5qEMowAnprbKJnTaVtG4jo2N9aS9tB4Pp5LAxj7ZBIUI8OOlJsaMxcX/5BC6kBzlOxiDA/FY/GAExw9MmXJGhK5Pk+AFGhrhI0e2VjV461aTemvioa4zyBa1QO5kNHI99Uhr8WUTGDx5dKT/a9OmrR/S2Z/jkcxcd6F0cJ3mOWJeYnuAMf5OvinrGYoLRorLAHSEa2yg523EgdmJApa1TmOfGseBlZ4qTe+lMRswrJo7teFMMvekTv2iI6V5+59YpPstDoOLQfJ5oEN085ZNGNsGq1xDCA75GtYeklRepnmtLZdNJNB/x/cf6dm0qVmnivMg1LY+TybPp5fpILnJggrTtMsuDq4lZ3fNVG/9UnKGBMlqg9fTyDOj6LIJ0k/AP+FrW+9xqtwpF9xy9UVXkIlaqj3Zfc4IsT0gN9Cb74Rj322qKbYlDPmAkeIyQe/ooWenVU2bKX+BOT38mk49e2UT8uOTtZCrjlhZL7k9+dM6OPhUsLb2nJCOfY4A1VCODm4/4ELuT8P0J/HkFTDSydEhoNZJLQhn6eFSBYcOPeybXjXjJLV6SVgrm6ALZP9PpMLblR0OHOjwTq8RTkMQryaX/Aw3B5OyFEoT5amSDV7PkpBNHBcB/jpX3fy3cki/e/zwtsYqn/d2SZHR3xeDRSDPiGtpmMJi28GQHxgpLhPMmHHRcHSw4yWO405PlhQw/JrjZRMan3Wt0RFLgKUvab4aBqik5QGdNh0DqqU8cmTr9xq9dZeTU3KSSdmEwfM3afi1rG2iODpBihv9U08npIlTq6fvOTQlm6Dz8eNg6CkNhUHJgXSAThQ4z6mEeS6BGJw6M8DPT5zPif5cCtBosgwTCUCKJ5ug+31pXIz9P3dg5Zs6+ykpVFV57iST2tSi5jliXmJ7QPqPT3KB5pJ41jPog5HiMsJDTx7Yc8n62fMhAlX65LFUZRN6nu/Chl8zUo9YdOpI344O75Qz3tHZ3jGgmkqE0E+joa73IQzOyZwfE5pgq2QTSfRJdXoIw2Xqu7RCNpFtA3nhdQYC6wbp/P797R6/XxDSmlyno7e33V/n8ZyCRP4UCPEScnyL3cgTkETtgJIU2ZLfBtb+3ehez4LJJrRJtd48Bve/drT3Zifr/XNFLNJ9Bgfgp1RWye5zRojtAfn5RKPR+JWuyasylAAYKS4j0CyXIwMmAAAgAElEQVRbo4M7n3UB4UzFKg2SmQUoqWaM3Noqm3By+DVlvSxvWWLZ7XJtIJP/0m7PWUhpK/8aHezazyPuE+QopAOpDZIXSyNUQGLQrvRCajDR6apEztxgv0ltiMejW9MMrKnWt4Z0HL6CIz1HMY3eIOLXRIxfH4yOvEYT6ui0ZRtoVIjIoe2NLo9rJkLiTIjRTHK0JwCM5zR4/HMSnReUOmGGZAm6pBXIy3OVTSTaNiOb0Hvm6HmgU7sFYxiI30Q1LfcvKCPNJw2Nd9mGOYYG1zHYBAx+4qpv3VNsMxisASPFZQbqUYuHg4sghFNTRSaIQnbFzKyNsgndcG6OC78mgUw2Id8GgxPH+zsXu+pXvqSzD8eBDtAaOtp52OvhP0+OerpitRlyC8zIJuiKGBS7016YG/7t3JPoQMasesZlE7ndYxiEv/2Dx1/ctGlVshCBU1LHMQ3S/xCdhchMg9uPCVE+gjF4DWO8TwTxN0SIw/Hx2NAocg39/e9vDZlJDd3e3s6fdprX5xHHqziXx8sBsY7skxBfPJNOiX0z46Eumu49dYoQmjgXicMxnLXOSKdGUc+MbELna499OuI3o7HYl0vtN2gEl26Y+2UySUnmmGyi0CBdzaMhcfDW2smrMpQIGCkuQwyBeNAP4AXZL6CCySaM7lfHHqeFXzNXj3ROIC/w721ra3vFDCkqJqqmrjyyb99j98yb1vBBcspWZdbYm7VOsh9KYEOewKp96cFQvODKlk7oyibMhV+bqAFwt3SAHQQok1ZaHrWEejlnkEZmkEu+FgEu2Z6LB17S9mUb5hKK3DMOIB4iVYdI3SGyxTAh0cOJCMgQ+khZFSmjU19iCoDvrOX+1DPam7KPS56XJOFNHdGE7QrCaIK02iqbSHRItDqPBvXLel5rtXr4sWOjQ9cVy4tvJ4Z7u6d7PfBWlVWyc8EIsX3AIrihFAZTMxgHI8VliJqaVf2xSPA18uZcmCm1UzZRQuHXCiSbSG6R3Ib8mXLxhlk0llendvvOREp7+fvx/s4eQeA+Ro5GmSnLyH2gQ1rV6k5MacKOXdJwWWQPp6U4qdY1MEiajH0dEAHuSrO1oSM7p/p8QmNqcz2PpbQ4c28nsr5Bml67Pl07eTfCpD2p+wVI/2a3rUdGc4r7nG2q7bKJ3DtM+p1ZvTaipEPzbVTd/OvGEshAaAZeN7ybTNJiENVzwQixfSCPoeBt9z38602b1KLgMZQqGCkuUxzsH352Vp1/DpDHGE0hT9lEZWetk0BbNpEmxOlFhLmz9+9vf3727HWjOvt0LOinZ2L/HbPqfZdBgM5QOXYljJ1nbdlE4h4TMX4hfbPRQWMN7qqZsuuhGyUj3ygoeGz3vueeX748mdvE4+FPldiss1+sdW/rkLq8yah2rG1bZRNZbWvsq5Dh1/CbMRFeKwSaHZtVMl/EBrvXcRz8SGrRWMeIwTIQQozjIPbVcg3TWMlgpLhMQclXdCC4m+PRivxlE6UUfq1osgmdbejXceBrqvOtIwuP67TtaKQI/R/G+3b2CC7XJ8hxSfJA5C2byCLEdGZgbOTlxtRCrctPv3wgyRYmSebksgm6grz4nl2+/IroRAECp6q3p0EYDXcerQ59ZqdswmioPt3jk9wDef8mM8eEQRRD8eevH+n7cTlFl1CC6szPWu7/IdDthDAvsa3A4A98zcqS+/LHMDkYKS5jfPuHj75081UXnERezVrjrTMPTceFX8uuPHl7BZVNaJIDuZc4U48YsDIc3t5FUyxr78/5cE1ZvXffvsdumze18VII8Zm6XkCt86wdfi3zoofwoFQLykFwsqSWdtta7aV2rFFP2QYU42KnXDSMTklpX7XuCb17VGcbI2RUeXwyHbGdsgkjNgBtGwomm3g2CsUbXNUtrywoU7lEGmcu911JJksUxbL7nBFi+0A6yyNj4uhNnsmrMpQgGCkuY9BPOyP9XUE3guckS3QIoyZKNmud1BwrZBN622deRlDbbrJG8GPXejJ7v87+SwIpT9wfxyPBHiEZI7UhtUrrPBk855lOBHn57JU1AMGiTCg267PWyedxrHfkaM+M1LDyhJ7Y65qWXU+jXX3ZRAp2aHjzlk1YYIOsbZtlE/g4uSXu5gOtfyiHVM2TYaS/Y6ZHEG5JLRr9fTFYCvwDmuyo2FYw2ANGissc3vrWA/FwzzsQ4pmSYhPktlxkE9qEVt8+2fYmSESyHuHMp44OdO/01DW/rbFdSYF65pJe44aLybGdnVmj85l9ctlEAoTivJwuIPtwz5/aMCflAzNJ8IzJJuh/jMELNEtkutDj4U4B5nTEau1PZoOinp2yiZLNWkeDdjw8Mgbu9DU2Hy6HVM1GQAjxPWRCQxJqd74ZQbYNpNfVOxAV71SONmYoHzBSXAGIiINdNVztB1SJSrnLJrBhXWfeL2mFbELr2JGLw+eTmZ/r7K+kkPIa/2ks3B0UMNxIzvgCRRUt76WyjmxdOBbfm375nFhfP5+s5kABZBOJ2kDskFVA8DSAtbYpKdmEhBA7Pmudej0M/hmNxe+hCRN86jsvS8TDPesRBBsVxbL7nBFie4ExvrW+vjVcbDsY7AMjxRUAGkcxFul8GQFuMZA+NEtKNqFHNpwTfk2jbdk6gtnRgeApQl3Li9o2lB7cNc2vk8nd0VD3Uh6BS8n8DGC4s6HssMHD0pcPx6FFqXomrpvhehMD/I7jka6ArBIhxZO27UjZhDpxdmbWOmmpspNE55+Pg9jddIBTpaXU3bOnzbV41twfpBaNduYZLATGYO8zzw79fN26YlvCYCcYKa4QvPL2288uapo9n7zT3BpVNMht0WQTJsnURLOFy1qX1dbkiSQ4Hm1oa2vbW2oJPYxACDQ/t3nz5t03XXnBWg7B95MzkFTmGpRN0POEIVbqiU/W9Byma2SgHZ7MkPcSHwwE1g2ml44f3tZY5fNOA6ooimwCadYrrax1OvuVzb8hYnwvV9P8WKW+sBY1zbmWTGj0Fc3ry7zE9kKE+Pp169bFim0Hg72o1GdMxWHJko3j4307d/EuYXWiwHGyiZIKv6awzpBsQkYiyEzDxefMpVnituvsv2SRit/5z/b29h1rlle1cgCeS5ZnqVRVkKvkuRQB3iuL/ADBfCOdDZB1nYzriCe2wPAVaUWv13Wqoq6RtrUIt/Y9q3u/yWQT+ZFW58sm0pf+LYzFnz3wxP7/LcfOo1GMDu6c7eZcNyiKlc8TRohtBAbgaa66+a/FtoPBfjBSXEHwNK55OTrQuYi8c3TGCRRKNlFS4dc0X+a5yCaUe0McoAk9eko1oYcRpDwrO+j/8f6uJbyA1hNOdnpqNdTy9A/j8b3pOIIJT22VxytZna+XU9mG/G4hhFxWMaMnNtjZs1U24fSsdWZkE8pnRKeI8a+F2tanaESJjRtbNJqsDBBCfC+Z0PvfaGeewUIkEnVg8TpGlioD7DpXEOgLZvjYtk6P4D1fUmzQc5unbEI3kYHjwq9JYK1sQroO0oQe9f73kNlHdWwsG9CBUWSyJxzeXleFXcsJ2VxOONpict64ZI30ecJHpbGcPT7XidqtGiSMhr2XGEbj4GVOVgGdCrJQKNmEQVlIackmstuGIErq/C0WE39Ntfb0/FdKRAk9xCM9F5CL/n6gc88yL7HNSCTqaOkuthkMhQEjxRUGX8PaQ/FQcD950c8Ghj1fei9cI5rgYoVfy25QY95UPTOyCaAgHuSFtzoc7uioqVnVr2NPWSFFeJ+i/w8detjX6G88DYpcE4R4OjmlMwh/kskXCHE+UXaFM7O65FajnhSKa5PYZtg3pfVAmpCl9MTTVeppta15rTXvWXk9nUQoTpZN6CQ1wTqdFYgHMQB/HBmO/rFq2uqjKjnpKxaJMITTGu9TFMuuLyPE9oLcm6MsUUdlgZHiCsRgLNpV5xKagIgk119LNlFC4decL5tQs4H3A2EDmf5R277yRSoWcGfqfwJZJxPBEzVWSTcxQhiVbWTVwxi8Ik0CkdITG7y3TckmjJJRp8smjN7z6eXXyEn+3dv9Q3+h8qGqMs9CZwbzpjZ8g0zmAo3zyQhxIYDvY4k6KguMFFcgpkw5IxILB18kb9l3JUukhNhoXN+yzFongbZsIpsQa8omDCV7gBCfPjrQva1cEnpYDYjBrOy7I+/waxqeZfiybOus+MSasgmdjpHVOuJCySay2s71PpfriCEYIu3/LY7Fv/A1rT10xWytBPQVjrHwjvku6L4OyM+53rOZwWLQRB2heOiu2mIbwlBQMFJcodi977nnly5YvhBgsSpTWrTwawbbs1o2YfTTt17buemIVbZJrHNx+CIy/an2fioTqfis003F681NNpFAXJJFL1lRGp9YSogNJ4WxOGOcnbIJnSyE2r8H/ax1lBZj0CFC/OCB/qGt1CvMXjqTwwXcVDYh/WqvvIDMS2wzMMabaYz/YtvBUFiw51OFYvnyK6Ljka5uHsNUKPJChl/Lrjx5e5bIJox6yzTJgUJHrFFPT0esvt9EQo/BjtOE2lX/0qlbcZjfdMIsC3S26bpq89LNYf9o/yvTUlk7jh9qb6iq8k/Pbrug4dfslE0YsQFo26Db9lsYgIdGx0YeouMY6MC52UwiYQjxUPBihNB5kiLZfc4Isf2giTqe2/fsz5cvby62KQwFBiPFFQxXdeur8cGeJRCKjcY9rSUlmzBhgz3h14zYx0Hh/La2tj2VHJNVCU50NQFpKAi7ZBM4cR8dmDZt/VB6jdfnV4k6UdDwa9pecHOyCQts0JNN4AghE4/GRfEhobb1eVqxktIwW4HU4LrvAuOdagYbIIrgG9RxVGw7GAoPRoorHKNj4zu9Hv798tJSlU04N/zapPbhBOWecvF7TzyDLD2jWa/CgBCemjmF9skm6K4wwK/KdoBASk9clKx1Rr3g2vcstFq6oSqboHGoO0SAH3r57TefokmCmPDVPOY1Nl4JkoPr0lA++BhBthnkJ9/O1a54qNh2MBQHjBRXOGgYpHio6zXyrl+YLCkh2QQ2rOs0aIN2vfzDr+nsV+L14zjunAMHOrqbmlaN6GxbQYBT1QqBJqnLRdowMZu8jzB+R7Hhac6QTSjuN20vsYQQ2xp+rZf83y5i/MzRocM7aAQR6sxfsiT7U/PmzZtRKrshwyQYOto5zeflpZnrZPc5I8T2gxBiMY7FrzNiVLlg154BHB0mT2P/9DnkiaAME5o7uTUlm9AjGyUbfk0BQ/bRYUlVMwL8ejLPUoqCxLlvTLyqjF832eaSefUOFM50ZEQRH05XikSCU/wYzZBaUkDZhFEdsXo9y8Ov4Ti5BP/CGG+LIfiMq7o5EaGDEuEZKtEjRge6Z7kQOI9cu1XfvObCpTjcM4Ih/gWqbv615nExAEKIbyMTqfKakeBCA4Nfs0QdlQ1GihkSsWKjoZ7nOAhaJcUWkFsjiT2yG8/MagywKqGsdZPap+L1Iwd9BiFl26urW/o0t6sYJOQTxghjzuHX5O2JHDicnveJ6LQkuZxoIc97TFnPaeHXZPscJNX2YCy+KIrgxbCIn6uvbw3Tyi6NRmmSE1+V93xS5wI3D09PhWKDqV1Ukb8fINNf69hV0SDP32U8Ap+RFCnd/Iwg2wzS9Q4Pj8ZurGJhAisajBQzJPDQ1jd2X3ru7MXknawyRjxf2YQTwq+Zq1co2QSQkiEMuSoILyRzv9Vpp+yxa9cWYdnCZdIwoTrk1oSOWCG/CY2OHGpM3f0ZPbFq2zpea4171khnT1cWolcvD9kEhiNkm5fIob6IMXhxPBbd461fdTBdgRpar2FEKNReWw2rNpB651dVeVsUmesU+4In0UFkCxacN6bRXEWDR/h7CvnMxPljhLgwwED8VtXUlUeKbQdDccFIMUMCNOLBWLi7QwCAfrrXILdZ0CCqjgi/ptytDpFRt8+arHUa9ul6/chKDE8bC3XOcQdWvgkqFItnn9KoRRSsCL8G5PfvUGPjuuPpxXB88LdVoOppxAmzIMZNpOIssk0TqTdNfZcOzlqHQZzMHSLTtzAU3ybTt0WI34pGxbfv/tHjh6jmN72RV9OAZIg6j7/qJGLkSeRHuKoGVZ1BdsEl9oMnOV4M+NmNDaTTDZ7T2UVFIh7qvhQheJakiJHgAoN0CF/ee2D/j5YsaSm2KQxFBiPFDBNw1zS/Ho90HyLv1hPUa2i8mHUTGZRm1rrstvLLWqffttoxYSggRKOC/FC7/fIGz/GNkkUTHR6NDkqSYMqvG85IJyhSQfv/lfo/AertnDW1YSYnglmIo0QZzCK3JLWTOlTryB69OrZCHe+2OdkEpHpf2E/m+okt/RjgPlJI/ov95OdyMBYfO/Dwk4cOpsP8pTemO6MP/02bVmUZST30py5cNo9Lkt+FZJuTSfGiKr9/ityO9K1q4DdEGuIgphk0GSmWIJWc5juSIqWbnxHkAoD0Cq+hkVOKbQdD8cFIMYMMwwBvrwJwI0g8jI1ogp2etc5cPR3ZhN7xGSPsRrx+IOH4mx0NdS8VAs0VSSQQ4tKRJ3S876bCr2VdNwzAYSPsI/X5//XU/yzs39/uaazi6ngk1CKBq4MA10OA6gDG1WSvQtKzijlCJKmHlafz5AjofGqQKxzHGI+QuiOkDpnCEUynKD5CfhojWERjGIHhOB7vj0TH+6TebeWBpYnvxo36xxQd6DmV43EL2fYk0sLCZQuXz8nYM9GUxhcPo2HfaDZzeLq+JZWHRbPmSEOwye5ZRogLA/J7e4SraX602HYwOAOMFDPIQAd3xQaDLyEETsmUOiD8WtFkE9ZlrUvtdnJPpmQdYUwXtre3v7Bu3bqYTvvlCQwCqfvLxNcBg7KJ9DyVF1gAmsaYTA6l/puCESZEGatn0lrGwPPgi2SvZ6qvNSwL0V4HJ86xSjKUysXQkZ1TfT7XjZIiRogLDNIZHo9C8WqtAaQMlQdGihmycDA03DWr1r8AQNGtstqg57Y0ZRMFDb9mgOxRT+PapV5KWP6hvb/yBDkhAWC3bCJdA1tDiksUyt+59DekPSjQoGwisw42IYSgKIpYtW6FgRDi20EmBBvLeVIMYPADV03rq8U2g8E5YKSYIQvU2xUd7OzmIFpTurIJoxEDTOmIbZVNKPeFEPfeI0e2dklTEFcEEFAER7JeNpGeEcXYEQ5UKDB2S06nUoEhhVQ2YcZj7wq/888GkEz+UdGIDna9i+e4z6QWlQ8+5iUuAEjP7FB/dOy2KZNXZaggMFLMoIpv/+CxF265+qJTyKOjLnutI2UTBm3QDIdVyPBrk8om5KuBt8FTey6Ze1BnX2UHciIk4djylk1o62LJyvEx8bAyc03FAEKVr8cWyiYk69xez0zASDEghPhekOnAMdlEEYABvnHKlDMixbaDwVlgpJhBFTRM0+jg9u0u5L4oVeQ02YQJGxyStc6oZ1lyHAjCNccPb9vmn762cggFBjXqZ9GUbEL32oTFvuNVJs0sA6TlEzbJJjL1EBIpKa7IgaNppEKwrUstMhJcBGAAum6795HfbtqUnZqcobLBSDGDJjy1a96KR7r2Q4zmZEqLJZtwRPi1gsom5OWQ83m97yPzv9LZvtyQkk/kLZuYJGwexDNnvn9EFEWTZpY4MHYBeafQatlEplBEGuEeKwOKEGxMNlEE4ETe8tjXqOOn2LYwOA+MFDPo4rg4sr0a+k5Meo4KKJvAevF/zcgmtOs5Tzahfr5I6elj4R3z3TVnvKaz77JAW1sbd9mGuVWTEOLJvwhk30fZ9SAeqejBXzL5hCWyCc1zDhFsMmtmOWDRzLlXgWQINiabKBYw/h1fs7Kz2GYwOBOMFDPoIhBYNxgb6NmNOLzUnGxCj8g4Lfxa0WQTxgg2xEgArkvI3D069csC69fThMva+m8gP2fq9QzIJpL1wHCu9pUZUtHdEoTYjGxC4+tOVj3SNp4KKhSpEGw3pBYZCS4CSM83MjI++g1fsQ1hcCwYKWaYFK8ceiO4aObcReQxLnmWGEnskQUpKVR/+Toza53FsgljOmKgcr5IwYmxcLCZr2np1m6j9CFEOa88UFiOOuIkjGUbpIkyKhrYleqzad/neeiIZfNYN5N0WUMSgo3JJooEjMEdvoa1lRx+kWESMFLMMClo+svoQLCDQ+g9yRKnhV8zV6+AsgmDHk8dvazkvHAQvr+9vf25ck7owbk8EvJkQkdsRDaRbhvjygp1l4WEfMKSrHU6dVJSFViR4xklIdiYbKJIwAC8+vrR3vsW1Exel6FywUgxgyG4p6zcExsMngagqPf50wDBc2LWOsOyCT2vpBYhNrZNNmSyCcWqurXL/GeTma0625c0YEz0AEGVixmQQxjtyKS/SsCKJcVJ7fYc3rgn3pRsQvLbwBXpKVaEYGMoAkSAr02laWdg0AQjxQyGQAcijfR3POMWuMsypaWZtS67LU3ZhLHP7+Z0xMqqurIJZT1SeG5vb/vOxsZ1x7XbLF0gPv2Z3bqsdbJ6yRYS81gEQ5XKVFatanLp3Od5hV9T3QZCvwkzSxqSEGxMNlEkYAAe46qb/6/YdjA4H4wUMxiGt37VwXikZx8E4oIylU3okW1j5Db/8GvyOlCjHgSeKW7fBWTufp19lC7inIc8ncx0NgxeN9m5rNiBdqOjgyIINEqLpLKJfH9ramS5ojzFkhBsTDZRJBBCHI2Oj1+tkqGGgSELjBQz5ITB8bFn6gTXHPJIlyYAK1HZhFZ0gyJkrVNblyWbkNcjWDt8bNsz5ThwBCLRo3D42iCbSG9XuaT44EFvfP60iUX7ZBMZVJSmWBGCLQFGiAsMjH/kmrJ6b7HNYCgNMFLMkBNoWsxYJPgsArA1VVQysgmHhF9TVs1JNiGvB5HH7fkQmfmBdvslCiTzKNoim8gsVe5Au7PPPjseDwWVxdbLJtLLuHLeOZIQbHqdWwYbgQE4GhJD36qdvCoDQwIV84BisA7bdw0Hz1zqXwIQVugDCyWbMJrEwZSO2NmyCUU9suLkaKhnmRBY8azOPksPIvKoUIn8ZRMwWz+LRThq0sqSBx0rgCM9NHFJ5rzYI5tIz8Vzt7I0QQjxbWAiK2MSzEtcWGAR3Fhbe06o2HYwlA4YKWbIGTQU2Hjfzu28SzgvU2qrbMLgS1pbbuC8rHWa7cHJZBPKtnkELtu1a8sLy5dfEdXZrqRAzmj62WRENqEdTsxIRjwOlM15Mwma7jZ9z9klm0iXl20YQSlSIdg+C5hsomggPb2e2+57+L82bVpRbFMYSgiMFDOYAtVoieHud5HH/AyV1fnKJszIDTRf0iUmm4AG60mIM65/18J3nUtmHtHeX4kBYmWYMEVHQSabMHBtlPebTFNc6aSYem/pu8A+2cTEPK4IUpwKwcYV245KBSHEOB4DV27atEksti0MpQVGihlMY2Q0/rTXy30EyEM6mZBNOCL8WrFkE3Kiqy2b0CUeCKNzw+GOnTU1q/p1bCglSJ9Net53MzpiRbV4RRA1HSQlDXbKJjLXqew7IPFQ8BKE0LulZcxLXHD8N1+3YnuxjWAoPTBSzGAaVVNXHomHg3shhEuy1+rIJrKzjQHVeoZJpnY958km8tcRq7YNgcsv8jSG9BaN7UoLIrlHMneJ+jXMJWudZj0AMa6MT/rawPHJzpFkTuecG5ova1K8a9cWYdnC5XcDJpsoGjAAQ6PR6PUVFfuPwTIwUsyQF46NDG5r9NYtIO9UGgZyci+n87PWKZC3bMIYwc5RR6xaCcEV45Fgu6u65RWdtkoF6eNUPy9WyCbS4GBlk2IM6SfmyQmtvo5YOwGI/LlQ1gPtli5c+jUymV9sOyoZGONv05j6xbaDoTTBSDFDXpg2bf1QLNzdRd6IZ2ZKNQieM7PWWSybsCv8Wta8Yjm5DY/hhzdv3nxHyWvpkDhK/tgrm5g4f2Jpn6v8IT1+9fOVl45YhrKN9HH8UHtDld9/k7SMeYkLCwzA628PDN07u2byugwMamCkmCFv/OWJN3ddun7uaYSm1JZA1jpZLVP7xXoDwDS2sUs2oawE4cybrzqfppT9h45djgfGsA9qdaAskk1MzMWR27Sh5QAaJg1rrFGfV9YxTpYxPpKzfSUCQohvJZOJkLiMEBceoiheO3v2urLteDHYD0aKGfLGxo0b42Phjn8KgPtACcsm9LySWoTY2DbZsFQ2oTxHCHLv6+1tDzY2rjuu07ajQThan/oKC2UT6QZRZaUezkZCU0xnzMgmciTL8LBJIx2N8f7OxYLAfyG9zAhx4UGeGU9ygZa/FNsOhtIGI8UMlsBds2qfGA6+RV4Fs7NWOlM2YezzuzkdsbKq7bIJxdqqKR4f6aCAP2jb5GwQltaXiWdlQdY6OeTnD+MKJ8UJna/dsokEyBU6Uo5skRDi7wH2Pi0aCCGOxWLiVUKxDWEoebAfMYNlGB4a/ofP7/9Uiuw5TTZh8LO687LWmfFAQ4DOGh3o/qenrvltnfqOxYgY6nNx9Eu0NVnrNNpAqeoVToqBUoFpvWxiYiqWnXwiHg5uQBBNJDJiXuIiAOP/EOpaXiy2GQylD0aKGSyDf8a6Y/Fw925C75ZNFBZNNqElSyjNrHUa1XQ90C4EP0omd+vsx7GgqVlxpIeG73IlCvLNWqe6TWoRV658Ys+eNtfiprkBSZFNsonkPBbBITN2OhVtbW3cZRvmfi+9zAhx4YEB6I2AsVvZ2DoGK8BIMYOlODAwtG1WvX8xeVR5CimbcEj4NWVVg8Q+b9mE+jlBeGEs3NPK16zo0rbRycA0Ecl0O3TEsvMHgS9PQ0sWc6c3NaqusFg2AZJeeRiP48PllObt0nNnUx2xSpx2hkIBY3BLTc2agWLbwVAeYKSYwVLQkb/RUOd2DnHnmJNNGPX0mdIRl4lswvg2hIB8cM+etueWLNk4rmm1YwH7yPFMB5aGX0vMyupBiKeaNLDkwXO8lBTbKJtIzo/y4u9FJsIAACAASURBVGGXCTudiMHBpwIBrnZzepl5iQsPDMCzDzzxxi82blxRbFMYygSMFDNYDnfd6mdjA8Fl5BXRkCnV9MIaJDLacgPnZa3TbM+sbMLoOcquB3HdyTNnX0jmHtRpw5HAAB+DVodfk8omMutOyMfOUgbK/EbtlE2kr+FYGaUhBwFUezOZJM4fI8SFB6ZhU+LxK2n0o2LbwlA+YKSYwXKIoojHQp1PCYD/cLLEceHXFHCabEKPOOcutUAIbTh+eNs2//S1vdrtOhHUU2yjbCJdD8MZeRhZ0oCAesmlfQtLZBNqhJiymLIZZDcW3jHfBd1fLbYdFY77+drWZ4ptBEN5gZFiBlvgDqx8Mx7q3kcoyEKdagYkAU7MWqe2b9V9yYmutmzCIPEwGaECA8Hn89IOyo81tnckaKxivYszMWtSNiGp4YpEglOqq1vUYyOXMyBsJCfaKk+w/jYQl02MYkKI6QDWhBKEeYkLD/JsGB6L4es8xTaEoezASDGDbRiCY3/3Q/c88gRLj60xQTK16zlPNlGc8GtGiD35syw6EDyllMIWYQyOSRbtkE1MzHvicSqhqDhSTG7LRsmCjlTFlPdY2V5ZkOLYYPAsjkOX0HlGiIsDjPF3SjXcJIOzwUgxg22gI4Ljoa5uCNFKUJ6yCWOk1dbwazrHLif2gOfRR9va2jaVigYvDsb6OJDIwGyPbEIChPiZZPIvk6aWMpKkWF9HbMwTrL8NJJ2cQ6XOIBFCMB4K3ltsOyoZGIA33wnHvtvEYrAx2ABGihlsxcsH39q+aNbcU0nX3i8pLlHZhIOy1k3UyYGkY3DCJeeeeA6Zf0KnnmPQG0bvzKyh70CNa5CvbEJSjzSVnYmxIoCnAqj7NcVMh1OrvZL3FMdCXZeTyXI6z7zExYEoguuamlaNFNsOhvIEI8UMtoKGAosOdv2TQ+iCVFEpySYMenidK5tQboMgurivb8fOKVPOiOjswxGgLz4c7qGShtQnfutlE5nW8Nz8rC1Z0OgJuZJb5bx0mU5VfzfkSpR04o4jR7ZWTfXV307nGSEuDjDA/+ACzW3FtoOhfMFIMYPtEGpbnxcj3cvJE226fE3BZBOKehoE1Nrwa46RTUj2g8g1qKpzCZeShd/o2OYYkJfgfpnuNQFLZBOKeTgnDzNLEolsbOfObVCcvXw8wWrbTCxjLL5jwkzHgBDifyeTExghLg4wALFYPHalUGxDGMoajBQzFARjUXGrm0efzJTYKpswluzBnI5YWdX5sonMNCkVwOjdI/1dT3nrWw/obOcMQPAWeRs268gmjJ6/Sc4lbDxwoMNbSZ9l33du01xy9NJ3gF2yCQrcO3T0pRklqgMlv5cmj8B9vdh2VDh+JtSuqkTdP0MBwUgxQ0FACVg8FHwJQqiWEtUQYdSRTRj8rF5KWev09mtKD42k826O+xiZuVtnf44AFvF+KD2XUK/DIzt/OXrpMZzqg3PIzEs5G1mi4CG/WGOVFbIJ5TavzJhx0bAZO50AD8/dSSZe5iUuDmh4xuNA3FRdbEMYyh6MFDMUDKE4/nutABcS/iHN9KrjXZVUkhNijXolnbVOWc2gB9rIcWR7rUnNU/8/e3cCGEV59w/8eWZmN/duCEJAsUjFqvSwhCREtKattdpCDzW97Glbe6uAtxXSeFutivZSW1uPWuuB/r2VWku9gOwC1rfWW6woAgLJLjl3d57/MyGBzWZnMnvMPM/sfD9vX3cyOzv7203YfPfJb58n0R2dHQjPWWdRq3BJmngzSEZ+XIrbR5yxTdSAuh/xUSimjL9BTR9/J1m3ScZ+s+Osf+YZWZ9zgZJIxqLNKiUnIBCLwxhrrwn5cB5xcB1CMbimrq45luxas0pR1COGd1kFxN1fSzL9WuahFoHMznF5/dnf/DamfcSZj2nPcRolxhRt/5Z5irbXNr7z1sHTZuh8Uy1CHzEZvX/0B/eoTj7MNx4uqGAP4Ul11khHzajdmYeNv201v/HQdYyy9V5NlCohxhRsXi3f8xhhzz+5rue61lbRlYAfIBSDq55+ru/Zj82uPoRvhjOuyiPIlGLbRNFbLaxG8KYe++n9juKXj1gcI5QxewmLR42pvKZZHGbn+cs4buzPBFXInJwL9DJKM9sn8hkJttVqkdLJeqsfRFnpsc4vU6rMwyixOLqun9ra2poUXQf4A0IxuMp4cRvcvuYfmqYet2ev7bYJk19Mnm6byDvEpV1lu20i8ziF0i9u3bryqUmTWnda1CEUY+R/vPL0UFzUtom056W+f0dkXz+slNW7NTKlopxOIPaeI6vRYzthOfHK2xtemBVuzKtWUV599ZGy/esnXYZALA4j5C413PyE6DrAPxCKwXXBuuYX9HhnE89s+/qvbcIqOLvTNpGhemJ5VRu//LN5XYJR8ib/77zdX2WVf9tE+nUBhRnJreRDcVlQP5gQtdCRYJvLQrMXjBH/PMoU6v2T91rEL3y6qIt4PBD3DerJM8pEFwK+glAMQvT300fLy8j3iXfbJkYHXfO2CZvBvtjTr9kftaaMHtm3fdWKirqWty1uI4ye0t9U1awPpyhtE8OMO6CKojTxy3tyrdFrKFU/mP5l5tUW16Xvt/dzzuhzudYnWs+W1fWVFdo5GCUW6vKy8NwNoosAf0EoBiEqJzW+m4pHnqOMzM52vXxtE56afs3eqPVI3ZQpZZpmzCF9qUVNwiTJ4AaVlBubTrVNpP8czTYWtZD5w4fFwB/5SD+x/XCbe9vE0NeMkHVeS5Y8EF/Aa/borMrex39m3np356bLpmIONnAZQjEI817vjn9MqqibxV8Cjb+QudM2MTZImoVJe6FVulXrbLZN0NEhnR/1EVmnaLts2d83Ll08f4BXWT722qK0TaR/D6u+8Kn3fYhfem50M0cj84XnMxJss21il2Qy9Vwwc6fEEl1rDtFU9UTRdfgZY+wML89rDd6FUAzC1Ncf1ZOMR55UGDnK5JBitE0UPiLrqVXr8v+wn0bZN2Scoq29vV1nschrvMqRP/kX2DZhGoiHjlNV5ROkhENxV9fj4bBaa3xw0dm2iV1f915y7cMvtrc351WrCDwQX0Pxu1EYRsiTWm3zHbquiy4FfAj/8EGoi658cNWSRQsa+EvhROPrwtsmbLcb2AyPpdg2YRKcqbxTtPFflC/zB2CE4jzaJkzfKGT9SwH/T6uiKMv4L2VWWNVyqlFDHyPDPdRpu+28iaMk1w/kMfK88aYm72JdpseiX1MoOWL8I8EJ/B9cKqmTU0v13x7ID6EYhDJ+YQ7GOx/TGP1anm0T9kJmcadfk7BtgmWEnHH6iLPeF6UKZW0yTtHGGH159CO3bJuweC5tvTHaa2D7s8ZCHv/OvVL5KUxpzfJzMCLXkWCz64b3Ms+MuG/a9EDllOqp0i99XuL+IGMLF/gHQjEIF6xpelmPR17jmzOHd1m1TViEUdemX5OwbSL3PuLs56ZVE8urvsQ3/mRxv64bSPS9VFFWMX7oH43m0jaRtklVVTVaKEouFCuKQlPdnZlrg9l5Lq1Glk17jHWdrFdzrlIMHoh/Tq0XiQEHMUJ29PT0LanGh+tAIIRikEJvT/+jlZXlMyjPIxJOvzb6GPnaJoo6as0f3qf7tq96TKYp2ir3OnwTi0eN0etqYrv1xfTxjvvGiO/4OL9YlnOhkhseAd8rbZfdtok8/qpBlCQd9EQoHohF3h+k9DTRdfgZI/ovqqccvlV0HeBvCMUgBePFMBWPRChhh2Y/wtOr1mUeZjfc2ngcNketx2mbyNhPyzTt2/zy4szKBXuZP9459vqITdsmjEvz7+HI88zopETXqg8Haluez79c+QyPgGdj9e8rvyWeKdlaVjPvtdyrdF+Q0Kt58VgnQhBGyH+eXNv729bMv2EAuAyhGKSxcXvPE/tOqDqEx5LK4V02Q6tsq9blFEDHv02Rp1/Lcl9jzkcpPUS2KdoYYS/zh5K+VnA+bRPmb4wy3ngMB8iSCsXDI+BpX467ndP0a7v3s6HvwYrcK3RfKtZ5tEqVz4muw890xha2trYmRdcBgFAM0pg+vbU/GYv+QyVsASnJtomit1o4+WE/olHyLZmmaNMJedniT/FFaZtIP45/u41QfE1ORUosHu+cWE2Ujwx/WfhI8Nhjd2G7tnVKH5W9dWLt2hsCs2c2lFybjJfwN7v3qqHGv4uuA8CAUAxSueiqByJLFs1v4olkyq49MrZNuDhHsrttE6PumO/Z59ij9/s0/+Jh0/pc1EfYS9V7ynSmbSL9HIzWJ3Z0fjAwoek/eRUsmUqdthLFMuhmfp1/WKZk8L3e7SvrJf/Q1EcPmH0qL/hA0XX4FSOkf5CR09C3ArJAKAapGFO0DcQiDwcJOXF4l/i2Cft9xBbHeaNtYuSOR7YURr+0devKJ2WYoq2mpmkbi0Xe4Q93H5NDrNomLGebMDtueCGPkgjFijKqdcJgFW4LaJsY8pSxOE/ORbqod2tkSkU5XSq6Dp+7sizU+LroIgBGIBSDdIwXST0WfYHuWcFshFttE7mPyNrvI844xrVV6zIPs3e/lNRMDFZ/mW/daHGfruHf2igvNj0UmzzevALxmO8hv9YIxb/Or1p5vPDCXcGD951hLEqRx5uk3NomhjZ18qjVD7MMKsrIpbxGyceySxcj5O0tvdsvlv2vCeAvCMUgpZ0k8WgNCRxE9vyM5tM2YR6GXOsjznZs1npGK3jVugLaJjKOowoxpmh7VIYp2nTCoiqhnx/+0s4ovd2/FGQPgozsPbjt2YOCEw99Ma+CJXHgvtONNphw2i5n2iaGDaRSj1XkWqSLkvE1LSpVvyW6Dj9jRD9L9r8mgP8gFIOUQqGW7anYmqcVqmaZpMckgJb8qnXutU1knFst0wLf4ZcXmZzHNdt6dzw3ubLO+OBf+muX1RuF3PqIM1FGtUDgk3zL06FYYcpXRr1lcq5twnjOXqyoa96YX6XOG17A5Bpq/ToADmKMPK3Vzr1N1z2zAjj4BEIxSOuljf/750HTZszm0SVthMvPq9blFdLtjSxbPkdDbQSzZZiizRhZYrHoi7zyD43U5kTbRPr5+JFGKP5t/lWL1b8jsm+ZRg9L2+VY28TQl4w+InPaTO7o/C6vr0l0HX7FCNFTJHUqD8RMdC0AmRCKQVqzZrUNJrpXr9Co1rZrj5emX7O6XyfbJmx/2C/nDwVqlH1Hhina+DNh9BV/aPdX2RXWNjG0xUYGE/cdjK85IFjT/Eq+NYsU1NiX076nZuHWuCx8ajb+70Zn+qNW795E6up6PBxWa2VblMZn2J+0UHNUdBUA2SAUg9TKJhy6Ltm1poVSOi3jKh+1TQzVYxbS0/8obnfU2uI5snqjQPc99ugZR/Pth0yOcUUykYwEAkMr7jnaNpF+Po2pR/ILz4Vi/iZGPf7o/b40/GV+I8G22yaGvn4vWDs3KuufxcNK7S94wZNF1+FXjJDu3t7EuVX4cB1ICqEYpGb8ia1/R+T+Mo38OG23z9om3OojNq1h97bCyFe3bl35L5FTtF1y7SMvLV20oIcH17RfrcVvmxh1BWVGC8Xv8ypYoGOPmv5xXn398Jdm3+uMN102e4wzA/GuyxWy/ll8cPuaWYGA+lPRdfgZ/8E4v6r+0C2i6wAwg1AM0iuf0PiWHutcTymdPeZK77ZNjL6N7UU6bJ078zCbtdp4A0BJ9cRg9Vf41h8t6nKUMZc1i0eN3uYjslxdzLaJtOvofoPxyIHBmsaX8qtaDEWhXx3etGqbyOOvGtlH4nXCHpN1FTseiJfxBxAQXYdfMUZeXP/q2msbGuaILgXAFEIxeEJXkj0yIaB8kL+07ln8yNFV60yPyzx35mG5h1uRq9ZlPy7zXKMeO1XoZ/q2r3lU5AwDOtOfVSgdDsUFrFqXKaNtIv04/mL5OX7hmVDcs/nZyZWVwU8Q6+BblD7i4a3E9v6eJyZJ+KfxVHfkOFWhnxJdh5/xN0yLGhpOSoiuA8AKQjF4Ql1dcyzV3blSUeins1xdjLYJavM4iymrvDr9WtZjLc7H1DJN+S7fON/iHI7qSiSeqQuWjTM1W8FtExnDxfSYtWtvWOaVX+wVFQGjl9gYuM29NcLq5yhb28QuT8uw8mGmjRtXVewTDvxKdB1+xhi5Xw01PiK6DoDxIBSDZzy1vvdfH5td3UQpm1DctgkedM3bJvIJUxnH5NVqIVfbRPp9MWOWMtIocoq2iRPnxVksupZX2Dy8K6MvNp+2CasZOYaOCx+y/0eN0enH8yjZVZs3r6iaXFl3IinGSLBZH3HGMYyxx6x+uEXZO6SdwevaT3QdfsUIGUjQ1GlB0YUA2IBQDJ7R2tqaTOyIPqip9Jtpu4vQNuFaH/FoHmubSLtuqD5NId/v6Og42ejxNTmHo3Sa+pdCVCMUW4+Cm7+BSnsus/URj91WqGK0UEgfiidV1n6PX+yVsduptglDqre3/57qUI6FOqy/6+n3lanlZ4muw9/Y1V6dzhD8B6EYPCUwYc7/6bHo6/y38ftJMdompJt+Tca2iVFtCHueL0b2PW/xZz/Ltx6wOKdj4qn4U2G1dhHfNB+Eslz2e5hFH3Hmkfz/5u3ctHKv6qmt7+Var1tisacn1NDyHxD32ib4deyh6imHb82nXieVqWVX8EIrRdfhV4yQTdsHBy+aKLoQAJsQisFz+gf77qsoKz+FBx6rn18bo6YyTr8mRdtE9hp2BcxRt1EIPWHz5hVPGCvNmd+PM2prj+xmsei/eUWN6UWmbRb6Pcw4bujcamV15Xx+eVPuFbujmpQb046Zfdyt6G0Txv/rjN0s26wTqe41n1AV9UvjHwlOYUQ/x2h1El0HgF0IxeA5lXsdvinVHYkolLTs2WsWQKWYfm20gletK3rbhM3bZAnLjNZMKp9wAt+6Ycx1LtAp+ycP5o0jxZgcZh4EbbZNpG9TMtRCIWUo7n3vqakVwYpvZux2sm3C2P5fYMLcJ2RasGPlypXaEQ1Vy0TX4WeMsNVaeO7NMv1cAIwHoRg86b3+HY9MrpxwCM9BFaWxap2bbRN59BGnt01k3C+ldEHf9lUPVdS1vG1yXsfs1Hv+FVKqF5PMsFfg9GuZR2Y85+9P7Ih+yGjlyaNkR/FAvIhXW562y9m2CTIUfv4i24IdH5td9UNe6odF1+FX/IdBT5HUqbL9XACMB6EYPMn4c32ya80KVVG+YH5UybdN2BtZLmj6NZK1bSLjALVM077PNzos7scR4XBrF4tHVvHNw/aU40jbxCiqSoyfO6lC8UDsmf2DtMysXaDwtomxgdj4f71/oP/WSonmJo7FVtXV0IDrP4uQhpGbtdDc1aLLAMgVQjF41kXLHn56ycIFh1LKJg/v8mrbhM3ZJqyCs40PlFmdO9e2iYzj+H+aEt2rGwLhuWvNj3VGUk/doSnqYVmuKmrbxPCXdPi/n3711UeumDnzmIH8qi6+IA2eTkZ/r9LedOXRNmGyal3GcSuMdqbcKnVWDdV+wYvDZ7sEYYTE+wb7zsWnG8GLEIrBs4ypwAa3PXtfIBAwRim91DaRRyAueh9x5rlybpvIPDcPpid1dHT81O0p2owgzmLRV/n3dqazbROjbhOeMXmvT/BLKRYkSHStOURT1c+k7bI5Wp5XH/HunwmdyPUBu8Htqw8OBLQfia7DzxhhF8j2RgnALoRi8LTgxENf1Luj/6WUzdqzV7K2CSn6iLMea32+cdsmdu8eHn2n089b/BkjmD1ocb+O4OHsbwqj56UXlXFIgW0TY39WjJk3iCShWFMVYy7ebI8rY1ETyx7jPcbpIx727j2PbnisrS1t8g/BeCC+ihcYEF2HXzFCXnnxrQ3LZs2S52cCIBcIxeB5vX1991VVVhxo9LZK0jZh9zYyTL+WfWR5VyAet21i+Ay7txWifnPr1pUr3V7u97lX1z0+e2bDT/hmHSlK24Tp92bPuSn5SCoe+Yxa0/hwAaUXLLkjepiq0fT2kfS2iTz+qmGv1YIxcltbW1sq54Idkoqvma8S9WjRdfiZTlKLZs1qGxRdB0C+EIrB84xFA3g4eUphpDXjqj3hwNG2CYtze7VtwnKk1fLc4YllVcYI6vUm9+mIhoaTEno8spxnXvNWGuu2CYvHbv4882/iwjffXPnE9Omt/fnUXQyqStJXbLMzEmw/LJuPErNBffCWciKHF164K3jwtBlXWr4dBUcxQh5Ra5pd/ysRQDEhFENJ2Li957H31VU18lfm6uFdFkHXdri1E0AtRtw82zZh9Sf39N00W2jiuz7Xt33Vg25P0RbXe+4NKVXf4vWbTElWcB9xlu81nbLvhOrv8O3f51FywYyRaoXSQ/bUs5sj06/twf5VXnvomzkV66CD9p3xU17gB0TX4Vc8EA8mCFtovrQkgDcgFENJMEbqkvHOh1VCM6ak4kHXvG3C5sho0VstZG+bsDhf9raJUbehRCsPBE7iW78wP0/xGdOz6bHIY7yQz2epqdDn3HR0lT9j3+vZsvqeqslzN+dacyHuuusu9fij9zsjy1X5tk3Yfuy6zm6S5QN2O999alJVVcVS0XX4GmPXBkONL4kuA6BQCMVQMoLhuauS3avnUaZMG97l4enXhLVN2Jttgo6ZlSLzNi2J7ujsQHjOOovjii7BUrcHqWasOLenvgKnX8t+3Yihc1dUVmgn8y/Oy36MM4779H5t/L73H/7SrbYJw7bnXlv/YENDUw7VOocH4gt4gbWi6/ArRsjmHUn9/DrRhQAUAUIxlAxj9aSB2DP3BknZz4Z2yDH9WuYxLrVNjDm3WUhPr9v29Gt2zq0p5EcdHR0/dnOKtrLw3A0sFjUWDTh0VzVFmX7N5PEOnXvkOfvCYDxyS7DGndGyV199pGz/+r0WZanP4baJoefpr0YPdy71OiXRtfojmjq0cAwIwnS2pK6uOSa6DoBiQCiGklIWmveaHu9cz7NQw+hrhLdNUGfbJmz3EWevIefp18Y7bigwzjhv8Wc/y794wKK2oksRcrs6EooLWLUu7RiTxzv6exEgxFg846Rcas3X+ydN/Ca/y6kZux1vm+D/n+hP6NdV5FauYzRVvZoXJUsnh+8wQtYvX7HhRpmm5QMoBEIxlJydLHV/DdE+QnbPVypF24S9P83bb5twfdU6k/pG3XFmDQpRvr1584onjGW5LW5XVFpozhoWj77G657pXNtEtvl/6bxk1+rDtdq5T+VetX3btj1TUxcc/mvIqDddjrZN7Npm5C8Vdc0bcyzZEanuzmNVRfmE6Dr8TNf102Salg+gUAjFUHJCoZbtqfiaf/BAlm3OUgFtEywjQOXTNiHHqnXmx2XeZveX4UkVdd/gl9eZ1OUI/sv6RkVRLknbVey2iazHqYp2ekdHxzNOtozwQHwOv5hA7P5c5tc2kS1gJ/qTqV/JMEq8q31k0uWi6/AzRti9arjpH6LrACgmhGIoSS+99b8VB++7Xwv/TZ/+ARxBbRN5jUDnHm4tz21yPmfaJkYdx7/6Yt/2VQ+4OUVbYMLcJ1Lda14jez6Ilq7QtgmrEdkDz1s4/4v8cnkO5dqWjK9pUYl6Qpb7LaxtYtw+YiLVKPH7J09ayIvK9r0FFxhTsA2y5BllogsBKDKEYihJxqpKyVjn/1Mp/XaWq91sm7A524RVv7FD06/t4kjbRAatPKD9kF+6Nm2W8aFLHopvUBT1UlJ424TV8zUmZCoKPXXTpgcemTp1QW/ulZt7882V5e+rq76MjA7B+bVN2Fy1Lm1bmlHi3q2RKRXl9Oei6/A1Rq4pC7W8KroMgGJDKIaSpYWaIno8egT/rT6DuNc2kUcgtj1q7aW2iYzr6LxE9+qGQHjuWpM6iy4woeWfw6PFM7NcbdU2YRIYba6Ix8jk+qopC/nWxblXbW7fCdXGB/n2M71fq5qsbmPnLwCM3CrLKHFFGb2YF1kjug6/YoRs6da7LsQceFCKEIqhpA2mBu8uU4Onp+0qbtuEFNOvZT3W+nwutE1kbmuK+uOOjo4fujVFW9po8WVja8q1j3ho03x0dfQMDpT7RqJrzYOB2ubnci48C36uQzRV/V7GbquVB+3VaqdtYtco8ZUyjBInY2vmqFTN9tcfcAljZGlt7ZHdousAcAJCMZQ0YylaPR5dw3+7zyXFaZuwexvZV63Lp20izxHt3btnnLd4/ny+cb/5fReXGm5+gsUjr/D7TlsC2PR7Y/VGYdy2iVEYUfibgAvXrr3huELn9OXnCMw+oOFyMjoEW9Vq8VcNu2+6Rt1GilFiRVEof5NjTMFm9W8LHMQIeW75Y2/8oa1tjuhSAByBUAwlryuR+n8TNOWj/Ne8xWCX3RaINF5tm7AMtzmtWjfC7hsAhR/43c2bV/zDzSnadJ3ewO94ZKaCjMdue9W63AMoIR/46MzZP+CXv8mh3DE+esDsn/KLA4m959x+WLbXNpGUZpS4a82XecmHi67Dr3ggZqlU8meYgg1KGUIxlDxjtaVUbM2jClG+mLbbTgC1GHHzbNuExZ/ci91HnHXbmKLtm/zy91nrc4AanvNPFo+8zEs40Om2iTEHUPqjgdiqR/P9UNJgPHJggNCfZZzbhVXrdrtFhlHijRtXVewTDvxSdB0+d5vTc3ADiIZQDL7w1Lq+fxzRUH0YD0WTiJ3Qmn+rhextE/bOXXgf8eizpT1efovj+7avut/NKdpSKXK9qrIrTa4uXttE5nGMBIM0cJGiKF81epztV0xIR0eHsnTRgsv5mQI2ay1u28RQL3FCihkn9g5pp/PC3ie6Dr/iP7jxvoG+Myrx8UYocQjF4Autra3JRNea5Zqq/MjiMHuh1bttEzb7iO22TeS9hLJWHgj8mF+eZ3H7otJqG1eyeOQlsqsNgTjcNpH+vTaey4Zkd6exgMktudS8ZOH87/HbH5JxbnfaJnaNLN/q5hsXM33b10wrD6hnia7Dzxhh51fuwx80dwAAIABJREFUdfgm0XUAOA2hGHzDmAlAj0de5CngoF17vNo2kUtrw+5NF6dfs3oud5//cLenaEulyHWqSq601zYx9PjyaZvI+uaHb5zW+95Tf7cbLPq7np1epgzNmiKmbYLJM0rMA/GlvLAq0XX4FSPkv+tfWbesoaFRdCkAjkMoBl8ZGBy8szxYZkz8r5ockk/bBHW2bcJ2H3H2Gtydfi2jNvMeXo1qJ3d0dHzPrSnahkaLY5HneVUf2VOf2eO1eHMwTh/x8N7Mc1dXlFX8ZuPGVV+fNq2lb7xay9Sg0T9bnnE/brVN8J8jdrMMo8QmK/iBi3RGTi10BhUAr0AoBl+pmDjvHT0WfZJHno+n7S60bcJsNHT0cfbbJvJZ3c6i1cKVVeuyHDfOEsqU7O/2FG1JPfkrTdX+PPwYzOoz/zCi+Upwo4/Lfu6P7BMOLONvBH5k9UZAj3d+nRKlJe0clDjbNpG53d3bn/plVcisQnfsmoKtc1nmnyTAPYyQ5WpozgrRdQC4BaEYfGdr3/b7J1fUNfNftZWk4LYJlhGg8mmbKJVV62y1TYwKeAqjJ7k5RVugtuV5Fo8+zDfnZ1yV3jaR+4is7Tc/5FNLF8/v4JdLstW3awlj5Zy87jfzGPO2CcuAzQhrr5o8d7PJMa4x+rB5Qc2i6/ArHoh7B1KDi8vHPxSgZCAUg+8YASzVveZ+hapfSdudZ9uE3dHVkl+1LqM2m0soUzZhUkXtt/jW70zOVXS9vYPXVFYEjyR75q1OrzXv6deG99oYuaVf12ORt5RQ4/WZNzeWMCajlzAuvG3C/vRrxvdtlRZu/rOuu9LRYoq/UaqaXFl3idAifI4x9ktj8SPRdQC4CaEYfOnCqx9euWTR/CMopXvv2uPkbBNW/cbSrVo35o5NarA4zmYgHj6OUuXLfdtX3edWD2tV/aFbeCj9E3/YPyFjemlHyR4yx8r5DQ//uTs7FV/ztlrT/ODIvlRX9AuKSo5MOy6/tgnzFo/xAnYiQcgpuU4d5wQeiM/hBe0jug6/4j8A/9vc8+7lUwW30AC4DaEYfMno6RzcvvqOQEBbSOy3TeQRiK1G5iRYta7obRN2l1BOr4Fp5QHNWKDiHJPbFt3rW967af/6Scfxzal76nG0bWLMdQpTf5WMdW7WQk2RWGxVXY0a6Mg4zu5sE+b3Y3f6NeOtG2NXBkONL5kc45qB7tX7BRVtseg6/IwxctbUqQt6RdcB4DaEYvCtYN3c/+qxyL95FPpo2m6zQEwyjhk/tIpbtc7NtgmL29v88OCuej/m5hRtM2ceM5CKRa5WKL1s1x432iYyvqakTCXKHwdikWNraGAR31OXdoxVILZXa05tE+TlFzduuGLWLPHTbgUV9Ze8IBlmg/MlRthTWm3z30S30ACIgFAMvtbb239HVVX5h8iufwt22wNkX7Uun7aJPEe00/fn1jaRVu8QjaqndHR0fNetKdrUUOMjLBY9gVc+O+Mqx9omyNhwWxuk9G4yOhDnHrCtax3vfCxF2KmzZrUNmtzeNcmuziM0VfmS6Dr8ihGip5i+UIYWGgAREIrB16qnHL411R19XFHY0aOuKPW2Cdur1tmdgmyc6ddsHUc/cN7i+Qv49n0W91lUiWTq0kBA/dvoOrJum19nv23CbLuO2HvO7YflHNom+PfkJq2m8RmTY1wztKz14vlXia7D1xj5sxZqjoouA0AUhGLwvY1dOx9434TqeYSyXR8r8W7bhPn8umKmXzOM1zYx6hwKIz/YtOmBv7vVzxisa35Bj0du4t+y72RcVYy2iXzCrXur1u3a3hLTe5aGTU7spiULF5zIC2oQXYdfMUJifQPs55WiCwEQCKEYfG/69Nb+ZNfq5aqqfifL1V5qm7BxboHTr5m0TYw+N62rr5pyIt/4jcn9FZ2xhO3sAxrm8s1Ze+rLq20i91Hmsce42TZBdJ2dFQ63dpnc3jXbt68JTQioF4muw8+YTi6qnNT4rug6AERCKAYgxojhoU8nu9Z8gufF/dJ2e6ltQoLp18Yck8dxxmxl9Ct921fd69YUbcYStgOxyFlBSu7kd19O7AZaWoQ2B7FtE4+q4cblJse4aoKmnscLqhddh18xQl57fevWZTNl+JMBgEAIxQDEGDHT2WB8ze0BopyVpX3CxbaJXFobdm9KvWrdGKajxCPXk0B5QDuZb51teo4iKws1vq7HopfzypZatE3YfPOT18it220TPQNJcpoMq5UNxFbNDNLAKaLr8DM9RU4zZmQRXQeAaAjFAMOCNc2v8GDUSXctLZsW8Jxsm7DdR5y9BjnbJsxHwa0Dcfr5PuHmFG0GJTTndhaPHGHct0l9I3vzHQmWoW1i6OeIMXZh+YTGt0xu76ogCVzBCywTXYdfMUIeV2vn/D/RdQDIAKEYIM1O0n9HDS2fzX9TBHftyQytBbdN5LO6nXnIlK9tQrF5nHlwG25L0Ki2qKOj49tuTdFmiLOBn9fQsvt42XtlXOVUuLUaVS9G20S27ce02ubfyTAPbaq780hVUb4gug6/4oE4mUwlFgVEFwIgCYRigDSh0GE7UvHIQwqhXxweIS6wbcLBPmI52ybMA7H5KHFaIE6rgZIPnHfqgs/xLddGsYzvf7Jr9Tmqot2QvT4XR4Lza5sYL2C/EdN3niTDPLQrV67UjmiowhRsYl0fqG15XnQRALJAKAbI8NJbGx45eNp+R/DNSRaHmYW/3MOt5blNzidn24TdPuLsx9GxNSgq+fHmzSv+Xl9/VI/puYtMq537lB6L3soL+ebo+ooebi2m0LPoMc6/j7gvmSTfCE8QP9uE4WOzK0/i5X9YdB1+xd8V7dhJ9KU1ogsBkAhCMUAGY2WvZHz1nSpTf7Jnr1nbhFW/sXSr1o25Y5MaLI4r5vRrtmqom1RRdyK//LVFfUX34sY3Lj942gxjmrYD03YXu20i94DN8m+1YIwsCkyY838mt3dVLPb0hBpSfr7oOvyMEf0XNTVN20TXASAThGKALLSauav1WPRTlLAPmAdi2wGvuG0TlsHSybYJ0zcAdkfBzYMbNa+Bb5zQt33VPW5N0WYw3hj174j8tEyjd/P0EHagbcLd6dcY+4MSavyryTGu44G4nf90ZvZtg0sYIf9d/8r63zU0NIkuBUAqCMUAJgb1wVvLlED20Sxxq9a52TZhcfv8V60bW+o4rRuUBMq1oSm7zjK9HwcYszMk45GFKqF/JKNfK/Npm7DXGmH1c5R/20TnulfXnd3Q0GhyancNbnv2oEAw+JPxjwSn6ExfZMzPLboOANkgFAOYKK899E29O/ovHtdah3fZDLfStU3kOaKdvt/1tonRx1HySbenaDNoNY3P6PHoJbyIJSa1OTcSPLptIt/Wjff6Bwe+JVMA4oH4Sl4YJjwQhDHygBpqelR0HQAyQigGsNCVSt05IaA281BSuXun7G0TdMysFCa3sQrY+bRDFLdtInNbU9TTFEX5htszJyg1c25m8cjBvIQ2q/pMtjO/drNtQk+lkt+umDjvHZNjXJeKRz6jEvoZ0XX4Ff+HM5ig+mlB0YUASAqhGMBCXV1zjP8iv1ch9IShHeLaJixmKhAy/ZrB2baJUfuHHuNBie2dnycuTtE24r9vbWg/eN/99uelNAzvyifcuto2YXyQyphJw+S8rlu79obA7JkNV1r97QQcxti1wVDTy6LLAJAVQjHAOO55dMNjx396xif55hSBbRM2zi1y+jWH2iYyzq2o5GebNj2wYurUBb0Wty0644N38Xjnj6sJuZeXtnfG1Xm8SXK4bYKRPymhpmtMbivERw+Y/RNe5EGi6/ArRsiWbr37glrRhQBIDKEYYBxtbW2pRHf0Nk0hp2Vc5VbbhATTr405xqW2iTEzXkysr576PX55rcl9OsaYviqxI/pjTSV38gpHliWWr22CsXvV2uZFMqxYN2LnppV7VVVXt4uuw88YY0tqa4/sFl0HgMwQigFsCITnrNNj0ed5nPzI8K48AmMurQ27N2Vctc7Jtolxa+Cp7+t921ctd3OKthHGPL+peORMhdCrydhaxbdNMPLPda+uk2LFunRV1VXn8yIniK7Dr/gPw/rlj234Y1ubHDOQAMgKoRjApoFk4tZyLXAJD3UZ/27MAp7tPuLsIVPOtgnzUfD82ibyqIGWlWvaIr5xusltHaXWNN6vxyMH8ac8fVoxGdom1m/p2/51mWaaMCS6Vn1YUwMnia7Dz1IpttD4i5foOgBkh1AMYJMxMqnHo3/nKeSYPXttfvAs1z7icc8npG1CsXmcRdtEkWa8oPRTIqZoG6GFm69Ida85kJdyJDEPt1aj6sVom0jffiXOEse7uRy2XTwQX0Xxu0YYRshdWm3jStF1AHgBXqgAcrC1d/vdkyvrDuO/amoc7SOWs23CPLSajxKnBeKizHixe1tTtDMURTlBRKuAcZ8bN646eZ9w4Gb+ZXO2+siYx1Fw24RZwH67P5E4NlTXsn2csl2X6op+QVXJkaLr8Cv+D6N/UNfPLBv/UAAgCMUAOTFG4lKx6F0KJSem7bYOjKONH4zkbJuw20ec/bjcp1/LVkPmbWaJmqLNMG1aS9+2bc98ty5QdhvZ02s+wmIKPYse49z7iLclSOpYEf3V43n11UfK9q+fdIXoOnzuV2XhpjdEFwHgFQjFADkK1Db9PdXVeRSPJfsO77IIwa6tWjfmjk1qsDhOrunXshwz5r4UlZwiYoq2ERMnzot3d6/8ZohW30H2TDdmvzVidCDOtdUiltTJl4Lh5ldyLtwF76/f6xRe6EzRdfgVI+Sd9/p3XjqpRnQlAN6BUAyQI+NP54kd0Zs1jfycFLttwjJYOtk2MWbqMzu1WhznXNvEaGxSffUU40Ncy0zqclw43NrVs/nZb1RWBu/kX84g7ky/1p3Uk8cFwnPX5VGy43q2rK6vrNDOE12Hn/FQfPakSa07RdcB4CUIxQB5MKbm0uOdEUqUtH5ST7VN2A2jbq9al60GkzcAQ+dW+H++3bftmTtFLmdcVX/oFl7D18qDZffwL6elXWXvsefWNsEDMTlW1kBsqKxQL+KFhkTX4VeMsNVauPlWmeaqBvAChGKAPPX1Jm+prAw08JyS5d+Ra20TdlsW8gmj0rZNZJw7WB4IGgurZC6u4iojlA90r/5KUNGMYDyZ2G+byOWxd/FAfJwxb3YRSnaEMSuIpmgniq7Drxj/X4roC2WbqxrACxCKAfJkjA7qsegDPJp90bW2CTpmVgqT2xRp6rOcj3OrbSLjg2yUHs3D2F9ETdE2oiw8d8NgvPMrAaLczb+cOFIdKU7bBA/E7NhAuHF9sep1Ag/ExhRsVj9/4CRG/qKFmleJLgPAixCKAQrw+paty/evn/RxYr5al0Wv7+5Ni5kKhEy/ZpC9bWLMcZqinq0oyldEj5AFa5peTnStOkFTAsZy0CFi9djtt010eyEQ67HOLylUOUJ0HX7Ff/B7+pOJsytEFwLgUQjFAAWYOfOYgWRX5DZVJT/dtcc01Hlp1TpBbRNjzm3WNmES2OmHEjtWf5Fv3GNx364I1LY8n4yt+bpK1L/xL6vTrsqnbaI7mUp9MVDb/FzxKy2ejRtXVewTDvxSdB1+xhi5VMbp+QC8AqEYoEDGalEsHj2abx6Qtnv8PuJdJJh+bcwxLrVNmM54YXEb6zl+FUVZuGnTA4+KmqItnRZqjibjkW+phN7EvzQmxsqnbaKLB+JjZQ/Ehr1DgcW88P1E1+FXjJAN78QSv5qGjzcC5A2hGKAIEiT1pwBRLjIJpVZtE+Mf5+6qdU62TRTYumHj3IxMFj1FWzqtpvGZgdgzxwRJ2c28wpE5e+22TRgtE8d5IRD3bV+1T3kgcI7oOvyMMf1MY0EZ0XUAeBlCMUARBGuaX9Hj0Sd5ojH6Kb3aNmE+op1f20QR+4iHNs3n/00Lmfzp+q7oKdrSlYXmvbZt2zPH1AWD1/HqjhwnEI987Yke4hHlWuASXniV6Dr8ihHyLyXUdKfoOgC8DqEYoEh2ssRfaqjWwnNN2fAuL7VNKDaPs2ibKPaMF/bbJkZdw0hZeaDsdL612KIeVxkr33V0dHxjyaIF5/Lv1Ckm/cQj+2JJPXl8IDzXE4E4GYs2q5R8Q3QdfsUDcSqpk4UB0YUAlACEYoAiCYVatqe6I8sVhXyNWPXmytk2YR5azUeJ8+gjtmybyGcU3Ow5+kwytsaYmiqa/Zzua29vN1ZSuJD/jLygKPRqvl2ZdvXIz0RseKU6oVPL2aXwB5Lq6lyW+c0HV90o87zVAF6CUAxQRC+9veH+g/fd71M8I9RnPUDOtgm7fcTZj3Nh1TrT8zHz8K1S9Vwe2tpET9GWSQ03Lk90rX5VU7Vb+Jf7kLQR4hRLHe+VQGxIdq8+gRffIroOv+I/2N29vYPnVdWIrgSgNCAUAxTRrFltg8l4580qoWfs2VvwqnWZCmybkGH6tTHHmNyXxWi5+ZRmu45jRJop2jIFauf+e+e7T32qqqriJrIrVMZTjH1JppHt8WzevKJqcmXdpaLr8DNG2IXGIkKi6wAoFQjFAEWm1TQ9y+KR/+O57EN5rVpnu23Cos929LnNR1oL7iOWrm1i1LZCldNlmaItU/WUw7euXXvDF2bPbLgwRdhdWqixU3RNueCB+Ez+RE8TXYdfMUZefnHjhmtmzWoUXQpAyUAoBnDAoJ66MahoV/BNdWiH5ap16SzbJorZR2yQfdW6vNom0raMbWOKth/wy6tNziVUQ8NJCX5xltdeiPu7nn5fmVp+xvhHglN0yk43/jIlug6AUuK112IATygLz92gx6J/5/Hv6Cx9xBlM2yYsbuPVVevGHFNo24RJYN9zbr75/d73nvpb5V6Hb7KoF3LAA/Ev+ZOL1YQFYYQ8qtY03i+6DoBSg1AM4JCuZOq2CQH1cL6ZucZU9sBITUdGM25T7KnPZGubyJweblQgzmcVvLKKYMVZ/HKhxW3BpmTX6sNVVfuy6Dr8igfiZDKpn4Yp2ACKD6EYwCF1dc2xVDxyh0Lo99N2F9hH7Iu2iYL6iLN8SNHYMz/RvfpmL83sIKOOjg5l6eIFV2X+EIKb2O8CE5r+I7oKgFKEUAzgoHse3fDg8UfvdwzPesYHkvLpI07jxPRrbrVNjDm3WdtEPn3E6XvNzk01RTuPXx5ncn6wYcni+d/mTyg+2SUII2RbnCV/kfmnJwAoDoRiAAe1tbWlkrE1f1SJ2j76GiGr1rnYNmE644XFbXJYtc7e+TKP+Wiqu/NYNdwk3RRtXrBt2zM1dcGyi0XX4WeMsXZjkSDRdQCUKoRiAIcZc8/qsUiUZ9/hETZhq9Y52TZRYOuGQ20TGdsKVc7cuHHVI9OmtfRlrwPM1AWD5/IncYroOvyKEfKfJ9f1XNfaKroSgNKFUAzggoFk8g/lWmA2GZmibYirbRMZtym4baKIfcRDm061TYzepqR+73DgR3zrKpP7gywGYpH3ByldJLoOP9MZWdTa2poUXQdAKUMoBnBBRV3L23p39H5K2bG7d7rXNqGYHjc2EJuFySLPeOFq28So4ygjP+jb9szfKibOe8fi3JCGB+Ir+JNYJroOv2KM3KeG5qwQXQdAqUMoBnDJ5t5Nf51SPeWTPOiFXW6bsBNazc8n+ap1dtomMq4tLw8Gz+Zbp2SvCdKlutd8QlXUY8c/EpzACBkcJInT8I4EwHkIxQAuMZYaTsUityiEnlyEtomMbbuzTYw6/fjHyblqXfpee20TY76mn090r/4zpmizdtddd6nHHz1DytUAfYORZWWhlldFlwHgBwjFAC668KoHH1u6eMECvvl+k0Ny7eEl8k2/NuYYk/uyvWqdxf3ab5tI2x56XjSq/YJffN7ifnzvuE/P+D5/4j4iug6/YoRs3pFMXVgnuhAAn0AoBnBRe3u7nuhadZ2mBi4b3mW3zzZdehg1H2ktNLTK3zZh3ots70N3h2CKNnPd3StrQ0r1BaLr8DOmk58biwCJrgPALxCKAVwWqG15Xo9FnqSUHpG2u5h9xAbZV63Lp23Cbh+xzTcKvAhFOfvNN1c+PH16a7/JbXwrRKuW8Cdrkug6/IoRtvaCqx/8U3v7HNGlAPgGQjGAAH39qRsry7UWHtGCo6/x8qp1Y44ptG2iyH3EWc83dd+66p/wyyuz3pdPDcY7PxCgys9E1+FXjP8vldIXGn9ZEl0LgJ8gFAMIUDV57mY9Hr2bp7SvEUfDqGxtE5nTw40KxPmsgpd5TM5hmW/8pG/bM7djirY9AoxeSce8YQMX3aHVNj8puggAv0EoBhDk9c1b/7Z//aRP8829du2RftW6jNpsz3iR3jZRaB9xriPBI/vNjjNqrSgPlp3DL082ub2vpGKdR6tUmS+6Dr9ihPQNpPrPLBddCIAPIRQDCDJz5jEDqe41f1QU9SxJV63Lct9Zzi3bqnXjX5e+f+S6YxPdq//k9yna1q69ITD7gAas9icUu6K89rD/ia4CwI8QigEEUsPNT7BY9PM8V37Q4jCX2ibszuZgOuOFxW3cXbXO4jZmo+pUo+r5/HKBRS0l76MHNPyIPzEHi67DrxghG7f07risvkZ0JQD+hFAMIFiC6r8LEHptRhsEGWebFKFtoth9xCY1SNk2MfZ8lDakuiPHqeHG5SbnK2nxeOfEaqL8QnQdfsaIfnZ9/VE9ousA8CuEYgDBgjVNL+vxyAqe0oz+YifbJgSsWje0KVvbhOmH/RSFnrdx46qHp01r6TO5bckyAjF/IrBOhCCMkWe12rm36TomnAAQBaEYQAI7WfLGGhL4GI9nlWm77bRDKKbHSTH9mpRtE1a32XvvsGpM0fYri9pKTmJH5wc1TfmR6Dr8ihGipwhZyAMxE10LgJ8hFANIIBRq2a7Hon/lqex7w7vstk0U2Ecs/ap1xW6bGHdhD0qUn/W+99RtlXsdvsnk2JLDA/FVFL8PxGHsFi3UuEZ0GQB+hxdBAEmsf3Xt3bNnzv4Mz5H7pO22almQYfo1k9Ca96p16XuL0TZhb9R69HZFRVnFefzyp1nrKjGpeORzKqFHia7DrxghO/sTg+dWiC4EABCKAWTR0HBSIhmPXKcScv6evSW/ap3F/TozEmzjfoyvj090r/5jqU/R9sILdwUPnjbjCsvvCDiKMXYxFo4BkANCMYBEtJrGZ1gsuo6HlNkWU59J3jZhsWqd/bYJu6O6ds+da1immqJdyC8/a3K7knDQvtNP5g/4A6Lr8CtGyBtv7ei5anpIdCUAYEAoBpDMINN/G6TKdWRUkPNU24R5aDVvm7DbR5zPSLDdgD36GEaaUt2R49Vw490mx3haz+ZnJ1dWBpeIrsPPdJ2dMX16a7/oOgBgF4RiAMmUhZve0OOdD/Bs+MVdezzVNmER2F3rI848JvfzDdeqKHTJxo2rHirFKdp4IL6AP8iw6Dr8ihH2RKm+4QLwKoRiAAl1JdifJ2jKkYSy9LWtZGybsDciyyxGt50Mt4X2GDOyz95h7Wd863KT83hSojvyUU2h3xv/SHACIySVTOmLAqILAYBREIoBJFRX1xxLdXf+WaHKKcO7jKAmQ9uEl1aty7dtYlRN/H8n97731K2lNEUbD8TGFGyq6Dp87A+B2ubnRBcBAKMhFANI6p4Vb953/KdnfJ4Hs/3ImBDnVtuEZ1etK6htIkNlRVn5Un75Y5P78pShPmmFflx0HX7FCOnq6elbUl0z/rEA4C6EYgBJtbW1pZKxNb9WiWqsrlZg24TdUVO7M17YbpuwGcSLGm6tRtXtn2/UyDX9cqJ79Q1en6LtzTdXlr+vrrqkWkG8hofi86unHL5VdB0AMBZCMYDEtFBzlMUjz/JQdljWA8xHiZ3sIx5VgIRtE/mdj5nWNBSwNUW7mF8cY3J7T9h3QtUi/sBmiK7DrxgjL61/de2vGxrmiC4FALJAKAaQXH8i+evygDaXJzXNom0i+8ioo9OvDW3K1jZhNUeyvRFtanr75lR35Dg13Ljc5L6l1rftmb3Lg2Xniq7Dz3RKFhuL9IiuAwCyQygGkFxFXcvbeqzzTh5TT9i9U4rp14S1TZjdb759xLZbLRSFdrz55sqHvDi3bHmg7CL+YKpF1+FXjJCH1Zo5D4muAwDMIRQDeMDmns03Tama+hlC2YSMqyz6iEumbcLuuYvcR5z1sU/bt67qZOKxKdqSsc5GlSrfEl2HX/FAnEgMDi4Oii4EACwhFAN4wNSpC3pT8TXXKUQ5W5JV65xsm8hnTuOiTL9mcRuadthiL03RpigKTXV1LqPWzys4iZHfBice+qLoMgDAGkIxgEcEwi0P8XBzHN88cHiXoLaJMecutG3CvZFge7WOd77KimDFmfxykcntpZLoWnUU/47NE12HXzFG3ouT/o6Q6EIAYFwIxQAeoes64wHnak3VfsuzrPkHyhxtm7D8IJvdtonihlt32iYyzscOMDlGOvzpbhBdg58xoi8NhQ7bIboOABgfQjGAhwRqW55n8ejjfPPTWQ9wvm3CPGSat03k00eceYzwtolR25R6ZukF/vBmia7Brxhhzy9/7M3r29qaRJcCADYgFAN4TG/v4G8rKwNH8IxaPrzLrbYJi2WmC+4jLnZYdqJtIp1nQjGvHKFYEF1nC41FeETXAQD2IBQDeExV/aFb9O7orTz+fp842zZhb0TWfEqzce531H6PtE3s/toTobijo0NZunjBQaLr8CNGyD1quOkfousAAPsQigE86PWtW/+yf/1enyOMThnaUZy2CZOQKeWqdcVum7B7vpFtT4Tisxd+djovuEp0HX7DA/HAIBs4o0x0IQCQE4RiAA+aOfOYgVQs8hue5C7YtSeftgnPrlpXeNuE/T5is8deaYzCtre36ybXS0FTGFonhGBXlYXmvSa6CgDIDUIxgEepoca/s3i0jW/OzrjKJPCxfNoNRK1aZxZUaZaaxj9ffi1qj6ZiAAAd5UlEQVQelmH55JM/Y6wOF7M4r3CUKAjFLmOEbNo+OHjxRNGFAEDOEIoBPCxB2FUBQm5KG/UttI84jZRtE3bPZ7ePOO++5AqiGy0UcodiRmdZvnWBomOE/XzixHlx0XUAQO4QigE8LFjT+JIei97Po+vnSX59xF5qm7CaI9lerflMvzb2mKHrVMbk7yvGzBOuYoRELrjywZva2xtFlwIAeUAoBvC4nSTxuxqiHckTUHXabpM+4lFkbJswu9/C+4jt12ArLCsBrZrIzzOLjHgdD8QsRdipsveZA4A5hGIAjwuFWrbr8ciNPK2dMrzLS20ThX7gzX64zX/6tay3oYx4YeXeStEF+Ae7XatpfEZ0FQCQP4RigBLw5Nqe249oqP4i33xf2u482iaGArGTbRPF/bCfVbh1qG1iz/kV+dsn8BrvCkZI70CSnFU+/qEAIDG8YAKUgNbW1mSya80yVVWv3LM3r1Xr8mlFyDhHUfuIpWub2L1D1aVunxiaMm7xAlV0HX7AGPtl+YTGt0TXAQCFQSgGKBFabfOTLB5dxTdbSF5tE5YfZLPbNlF4m4PkbRO7v5a8feLrX58bEF2DHzBC/re5593Lp0r90wAAdiAUA5SQQV2/MqjQv/LNtEBku23CPBSat03k00eceYy32ib2lCd1DAqHKxCKXcAYOWvq1AW9ousAgMIhFAOUkLJw0xt6PHI3T25fzXK1VduE+eIWXl21rhjnswjslDKp2yfKyjSEYocxwp7Sapv/puuYcAKgFCAUA5SYHYODv68Llh3Df2XXWo7+7mE1/Vo+K8FlHpNrGKVZasr9fIW3TVjXIHn7hNLLNFIluorSxQjRU4wt4oGYia4FAIoDoRigxBiraaW6o79TFHpu2m6TgOfpVetGH2PeNmG3DSPHPmcq9ewTakDBSLGTGLlJCzVFRJcBAMWDUAxQgi68+oHlSxfP/zIPbjOJZcCTbtW6wtsm7PcRFzY9nOTtE1SlCMUOYYTE+wbYuZgEGqC0IBQDlCBjVa1kLHK5Ssn1JL+2CbPQmnkO8W0T5i0eTgf2sMlxUqAKQrFTGCMXVU5qfFd0HQBQXAjFACVKCzV2slj0CR7jPjn2Wk+3TTjZR2x/ZJnJ3T5BE0wjQdFVlB5GyGuvb9l69UypO8oBIB8IxQAlrD+Z+FV5IHA43zTikcxtE1ZzJNur1dHp17KMqlO5l1BG+4QzdF0/febMYwZE1wEAxYdQDFDCKupa3tbj0Vt4uvt+2m5RbRNm91t4H7H9GooYlpnVzBziUYTiYmOEPK6Gm+4VXQcAOAOhGKDEvdOd+MM+4cAX+OYkl9smnPzAm1ttExZ9zmOWxJYKVQhCcRHxQJxMphKL8KQClC6EYoASN21aS18qHlnGk91FDrdNFDabw9jrzMOte20T+ZxPDikeilXRRZSU6wO1Lc+LLgIAnINQDOADak3j/Swe+Rrf/Eja7kLbJsSEUffaJsbrc5Y7FBNF7vYOD2GE7OjZubO9WuqPVgJAoRCKAXwimUpdqqnaX4h1eMz8On1EtthTn8neNmH3NnJSSUJ0CaWCEdZRPbX1PdF1AICzEIoBfCJQO/ffLB55kGe6z6XttmqbyKePOPMYr7ZN2A3s8mI8FHujUqkxQv67/pV1v21oaBRdCgA4DKEYwEd6exNXVlYGP8U3K4Z2eHXVumKcr/DALnXkZLo+SFR0UBRKZ/qihoaTMOoO4AMIxQA+UlV/6BY9Fr2BUnKKxUpwBgGzObjaNlF4DdZ92MIxnSTwQbvCMMYeVENNj4quAwDcgVAM4DOvb9n65/3rJ7XxzWlpu91qm8jvfOZtE/mM6ha7z1lKTGMY3SwAI2QwQdliLAoI4B8IxQA+Y6zGlYp1XqEQ5erhXd5pm7DfR+zW9HDSYnpqkKiYVTdvjP06GGp6WXQZAOAehGIAHzL+JMxikTU86zVnXCVX24R5i4cMgV3qoKwnGdon8sQI2dKtd59fK7oQAHAVQjGATyUouThAyD1pI7EytE042Udc7JFlqUNxqqxsUHQNXsUYW1Jbe2S36DoAwF0IxQA+FaxpfInFo3fyza+MuqL4bRPjLYKRjcjp1+yeT2qJBEtgoefcMUKeW/7Yhj+2tWEKNgC/QSgG8LE467+6hpZ/lieBUNruYgbLwvuI7dfg7uj22NF0qfT26om6MPoncqXrZGFbW1tKdB0A4D6EYgAfC4UO26HHO39NiXLu0A77bRPutSU4u2pdybVNjFi1auNg29EzRJfhKYyQu9XwnH+KrgMAxEAoBvC5J9f2/uWIhuqv8s39ST5tDsVuS3CvbaIY55OWMdrJ4lGdmn/vIA0PxP2Dun5GmehCAEAYhGIAn2ttbU0muzovUVXlj2m7xYRR99omculz9vKIsfFhu3LRRXjElWXhpjdEFwEA4iAUAwDRapv+xeKRlTzntWZcJW42B2fbJorxmLwQio0FPBCKx8EIeee9/p2XTKoRXQkAiIRQDABDBnV2UZDSw3jUS5+zwL3ZHMTNNmHnNjTjQMpMTiIZrGpnA/9enjNpUutO0XUAgFgIxQAwxPjTsR6L3MLz6HeHd5VK20ThgT3tOuqNEeIRmKt4HDwQr9HCTbfoui66FAAQDKEYAHbbNtBzzV7l1V/gm3sRUbM5FN424eYqeLJDKLbAAzFLkdSpPBB7ZOAfAJyEUAwAuxl/QtZj0asoJRebHFL8YGneNpHPB94c7XP22CixAe0TVhj5ixZqXiW6DACQA0IxAIxywVUP3LF00fxvEEpnDe9yp23Cfh+xe9PDebdtYgRGik0wQnr6k4mzK0QXAgDSQCgGgFHa29v1ZHz1BSrR/kqcbJtgrrY5FPN8XoJQbIIxdllFXcvbousAAHkgFAPAGFrN3NUsHn2Ib84f3lWMUVgn+4hFtE14ITQjFGfBCHnznVjyimmh8Y8FAP9AKAaArPoTqUvLNfVIHv2MeW7zCcTmYVTc9Gt+aZvYhfFQ7N3qHcOYfua0aS19ousAALkgFANAVhV1zRv1ePQGnqlONTmk8D7iYpwPbRPmKD5ol4kR8i8l1HSH6DoAQD4IxQBg6p3uxO/2CQe+wjenDO8q7tRnzq5a5/RsEx4Iz2zQE2W6hAdiPamThYHxDwUAH0IoBgBTxp+YU92dlyiKsowUoy3BvbaJgs/n6baJEYyifWIUdmMg3LhOdBUAICeEYgCwpIab7mXx6Lf4ZuPwLtnbJhSL42yF+ZIIxAaKD9qNYITEevtS51XViK4EAGSFUAwA40qmUh2aqt5HitSW4HDbRDFnqLDiheCMUDyMEXZB1eS5m0XXAQDyQigGgHEFapufY7HIXYTSr2RcJVvbhB9XrTPH2CD/nomuQjhGyCsvvrXhmlmzGsc/GAB8C6EYAGzp7UtcVlkZ/BzfrBre5WTbRD5zH/t7+rXsmOgCZKATdtqsWW0YNQcASwjFAGBLVf2hW/RY9BpKyTkZVxWjbaLQNgdMv5YVVUVXIBp/V7BCrWm8X3QdACA/hGIAsO3FjW9cf/C0GSfwKLlf2u582iaseniFhOU8RonlD9SUKV4o0yk8ECeTSX0RpmADADsQigHANuNP0KlY5HyF0BuHd5m3LOTXR5xPuEXbhCnfjxT/PjCh6T+iiwAAb0AoBoCcqKHGR1g88hQPXB/LuCo9ELvV5oC2CWu+DcWMkO1xlmgPiS4EADwDoRgAcpYYTCwNBIOPkz2hS8T0awaRs014IVjnM9VcSWCMtIdCLdtF1wEA3oFQDAA5C0489EUWj9zMc+GJGVeJnH4NbROZGH/TUtqPMCtGyH+eXLfz962toisBAC9BKAaAvMTZwC9rSPmxPHRN2L3TvVXr0DZhjy/bJ3RGFrW2tiZF1wEA3oJQDAB5CYUO26F3Ry+nlFw8vMuttgnjEot02OO79gnGyH1qaM4K0XUAgPcgFANA3paveOPPxx8949t88yAX2ybsni9zu9htE/KHauqvkWJGyGCCpk4Pii4EADwJoRgA8tbW1pZKdkWWqAq9y+SQYrc5KBbH2Zr7uIgjxF5YLc5fI8WMLAuGml8RXQYAeBNCMQAURKttXMli0Uf45jFDOwpvmzD7AF2xZ6golO7QeYvJNyPF/B3K5h3J1IV1ogsBAM9CKAaAgg0yfWlQUT7JN8vSdufb5mB2G9n6iBGKJcJ0/by6uuaY6DoAwLsQigGgYGXhpjf0WOQ6Sukpw7tyGQlOP8ZL0695IRT7on2CEbb2gqsfurG9vUl0KQDgYQjFAFAUOxKDV9UFyr7Go+ck4ofp1xhJOXr+YvDJPMWpFFvU3t7uhTcpACAxhGIAKIqJE+fF9XjnhZQo15ocUuyeYNHTr8kfwihTvTBJRiEYIXdotU3/El0HAHgfQjEAFI0Wnntbqrvz+3zzkOFdpbtqHfVAKCa0pNsneCDuG0gNnlkuuhAAKAkIxQBQNLqus2R89dkq0R4iowNt6bRN7OGBUFzqI8XsivLaQ98UXQUAlAaEYgAoKq1m7moWjyznYaxteFeprlonf08xoSU7+wQj5O0tvTsuq68RXQkAlAqEYgAouv5E8hflgcB8vllB3BsJdqdtYg8vjBQrpTpSzIh+Vn39UT2i6wCA0oFQDABFV1HX8rYeiy6jlJyTcZUrbRMuBGKDB0JxaY4UM0ZWabVzb9N1D3wLAMAzEIoBwBHvxBLX7BMOfItvThve5WTbhIgPlMnfPsH481JiA8WM/48/8aca/euiawGA0oJQDACOmDatpS/VHVmiKPRPGVcVo21CVB/xHswDI8W0BFe0Y+wWLdS4RnQZAFB6EIoBwDFquHE5i0d/wDfnpe02C60KyX0k2O0+4nTyh+ISW+aZEbKzPzF4ToXoQgCgJCEUA4CjkqnUWZqqGosrZGuNSG+bkHn6tbEo80IoLql5ihljl1RMnPeO6DoAoDQhFAOAowK1zc+xePRmvvmdjKu8sGqdBSp/T3EJjRQzQt54a0fPldNDoisBgFKFUAwAjuvtHbygsjJozFs8MqusN1ats+SJkeKSCcW6zs6YPr21X3QdAFC6EIoBwHFV9Ydu0eORSymhF2Vc5b22iT0leCEUl0T7BCPkn2q48W7RdQBAaUMoBgBXrH9l3W9nH9BwIt88IG23B9smRjD52ycYf42X4O1DIXggTiVTqYUB0YUAQMlDKAYAVzQ0nJRIxSPnKITeNbzLo20Tu+9d/pFiWhKv8X8w+tJFFwEApa8UXjABwCPUmsaHWSz6dx7WjiKebZsY5oV5ignx9AArI6Srp6dvSXXN+McCABQKoRgAXJWg7MwAoVGSvXXCA20Tu3khFHv6NZ6H4guqpxy+VXQdAOAPnn7BBADvCdY0vsRikesIpT8d3uWxtond5O8p9vBrPGPk5Rc3vvHrWbPmiC4FAHzCsy+YAOBdMdZzQYhWf5Vv7pW221bbhCSB2KhC6pFiRVGo3t3p2SnZdJpaPGtW26DoOgDAPxCKAcB14XBrlx6LdFBKrx3eZdU2Ieu0YlKH4kjkOs++vjNCHlFrmh8UXQcA+ItnXzQBwNsuuOrBPyxdPP+HPP9+iHinjziN3It3TJ78YU++vvNAnEgkkouDogsBAN/x5IsmAHhfe3u7nuyKLFZV8neTQ2TsI04j9zLPFRW6N1/fGfltsG7uf0WXAQD+480XTQAoCVpt40oWj9zDA+axw7vknH4tK7lHigMB5rnXd8bIe3HS3xESXQgA+JLnXjQBoLQM6qkzg4r2Wb5ZnrZb4raJYUzuxTuUXh6Kq0RXkRtG9KWh0GE7RNcBAP6EUAwAQpWF525g8ejVfPPs4V2St02MkHuZZzWgeGrhDkbY88sfe/P6trYm0aUAgE8hFAOAcFt6t18yubLu23xzKpE2BGeSe6SYqt5qn9B1tqitrU3qNxoAUNo89aIJAKWpvv6oHj0ePZen4T+n75d3lJijcvcUU6XMM6/vjLB71XDT46LrAAB/88yLJgCUNqVmzi0sHvkpj3PNxtdSB+Ihko8UU2OkWPKnkAxNwTYwyAZPLxNdCAD4HkIxAEgjRVKnqkR7hnghzUneU0wSPBR7oquYXV0Wmvea6CoAABCKAUAaWs3c1SwWuZVS+i3RtYxP8pFiRf6eYkbIu9sHBy+aKLoQAACCUAwAkulPJs8tDwSOp0T6CcWkDsWEyv/6zgg7d+LEeXHRdQAAGKR/0QQAf6moa3lbj0UvoZRcKLoWS4xI3T5BqSb16zsjJHLBlQ/e1N7eKLoUAIAhUr9oAoA/vbVj56/eV1f9PUrIDNG1WJB8pFjeD9oxoyE7SRYaS32LrgUAYARCMQBIZ/r01v5Ud+QMVaF3ia7FnNxTspEUCRBVdBFm2O3ahManRVcBAJAOoRgApKSGG+9m8eg/KSEfF11LdpJ/0E7SkWJGSO9AauDs8vEPBQBwFUIxAEgrmUot1FQ1yqOdfGOeVPIp2eT9oN3l5bWH/U90EQAAmWR90QQAIIHa5udYPPoHvvlD0bWMJfdI8a6eYrkwQt56d+emX06tEV0JAMBY0r1oAgCk6+npW1JVVfEVSkit6FpGk72nWNVkG19njJw1deqCXtF1AABkg1AMAFKrnnL4Vj0e6aCEXiW6ltG8MFIsT08xD8RPa7VNt+u63E8bAPgXQjEASG/9K+t+M3tmww8pJQeJrmUEYywlT+Qci0rUU8wI0VNEX8gDMRNdCwCAGWleNAEAzDQ0nJRIxSOLVUIfEl3LHhgpto2Rm7RQU0R0GQAAVhCKAcAT1JrGh1ks8iCldL7oWnaRvKeYKFJ0FDNC4n0D7NxK0YUAAIwDoRgAPCNB2eIAoUdRQoKiayGyr2hHdP40KaKLMHqJL6qc1Piu6DoAAMaDUAwAnhGsaXqZxSK/JpQuFl0LYZK3T0iAEfLa61u2Xj0zJLoSAIDxIRQDgKd0693nh9Xab1BCJgstRJG9fYIKbyjWdf2MmTOPGRBdBwCAHQjFAOAptbVH8lwcOY8q9HqxlWCk2Aoj5HE13HSP6DoAAOxCKAYAz1m+YsONxx8948eUkNniqpB9pFjc1BM8EKeSqcSigKgCAADygFAMAJ7T1taWSnZ1LtRUZaW4KqQPxQKx6wO1Lc+LrgIAIBcIxQDgSVpt079YPHInJfRLQgpgCkJxFoyQHT07e5ZW14iuBAAgNwjFAOBZA6nEGWVqcAElpML9e5d8pFinVMSMbIywjuqpre+5f88AAIVBKAYAzyqvPfRNFo9cQQhd4v6944N2mRgh/13/yrrfNjQ0ii4FACBnCMUA4GlbendcNrmy7kRKyDSX75q5fH+5cv2DdjphpxlLcrt9vwAAxYBQDACeVl9/VI8e7zybEuVWV++YSd4+4TLG2INqqPFh0XUAAOQLoRgAPE8Lz70t1dX5E0rJPPfuVfb2CfeWeWaEJBKUnCbD2tsAAPlCKAYAz9N1nSVjkYUqoatcS4LSr2jnIkZ+HQw1viS6DACAQiAUA0BJ0EKNnSwWvZlQ8h137hGh2MAI2RpjO88Piy4EAKBACMUAUDL6BvvOrSirOJ4S4sIsubLPU0xd+aAdY2RJONza5cZ9AQA4CaEYAEpG5V6Hb9Jj0Yt4HLzU+XvTJQ/FzmOEPLf8sTf+0NY2R3QpAAAFQygGgJLy+patV+9fP+kkSsj+jt6R7CvaUeenZONvCxYaS247fT8AAG5AKAaAkjJz5jEDqe7O01VFucfZe/J3TzEj5G41POefousAACgWhGIAKDlquOleFo8+Tgk50rl7kT0UO9dTzANx/6Cun1Hm1B0AAAiAUAwAJSmZJAs1jayjDr3OMSb7PMWOurIs3PSG6CIAAIoJoRgASlJgwpz/Y/HodXzzp87cg+wjxc70FDNC3nmvf+clk1yY3wMAwE0IxQBQsnYSvb2aKF/j6bCu6CeX/YN2DmFEP3fSpNadousAACg2hGIAKFk1NU3b9Fi0nVJybdFPrko/Ulx0jJA1WnjuzTpmowOAEoRQDAAl7cl1O39/REP1jyghHyzumWVPhnpRV7zmgZiliL7QWFK7aCcFAJAIQjEAlLTW1tZkKhZdpFLyWHHP7Lv2idu0mqZnRRcBAOAUhGIAKHlqaM4KFoveRyn5fNFOymRvnyjelGyMkJ7+ROrsimKdEABAQgjFAOALgyRxWpAEjuZJsUjT6/pnpJgxdllFXfNG0XUAADgJoRgAfKEs1PIqi0WXEUrOLM4ZmS96a/mDfPOdWPKKaSHRlQAAOAuhGAB8Y0cyddGEgPotSsiUgk/GaLIIJTmHscFidFAwpp85bVpLXxEqAgCQGkIxAPhGXV1zTO+O/pwq5I+Fnosp+kAxanKMQgoOsoyQJ7XauXdiCjYA8AOEYgDwlQuufuDPSxcv+DElpLGQ8zBd6S9WTU5gOu0rZEY2Hoj1pJ7EFGwA4BsIxQDgK+3t7XpyR3ShqpEnaQFLIbNUqsRHitmfAuG5a4tTDACA/BCKAcB3tAlznmbxyO08E38t33MwTe6RYlLASDEjJNbbl/p5VU1xSwIAkBlCMQD40kCSnFWmkS9QQirzub2eTEo9UsyUZF++L/GMsAurJs/dXOSSAACkhlAMAL5UPqHxLT0WuYxS2pHP7ZMBVeqRYpYifUTN43aEvPriWxuWzZpVUMs1AIDnIBQDgG+9E0tevk848D1KyPtyvW1vb1d/jcTtBUylefUU64SdNmtW22Cx6wEAkB1CMQD4ljH/rh6LnEkpvT3X2774YnCgvt6JqoojlSB9JJDbbRghK9SaxvucqQgAQG4IxQDga1pt8x2p7s6fUkI+Zvc2PDwmW1tbpV68IxnIbaTYeEzJpL4oxxwNAFAyEIoBwNeMeXgT3asXaorWSYnt+Rqk7ic27Ny5ua+memouN/l9YELTf5yqBwBAdgjFAOB7xny8LBa9iVByos2bSD3zhOH666P9SxcvYHbmYmaEdO0k+i8kbpEGAHAcQjEAADeQYu1lGv0aT5DlNg6XfqTYWKSExaNGeB/38TCdXFITbtrmQlkAANJCKAYAILumaGOx6LWEkjNsHC59KB5m1GkZihkh/3ura+c108MuVQQAICmEYgCAYXHSf0kNKf8+JWSC5YGMJFwqqVDGh+1qrQ5gRF86fXqrV0I+AIBjEIoBAIaFQoft0Lujl1KFXGZ5ICXVLpVUKMsZKBgh/77gyoduaW9vcqseAABpIRQDAKR5J564dp9w4GeUkH0tDrMeSZaHZSjWGTvL6D12qxgAAJkhFAMApBla0CMePY+H4pvMjuHXVa1de0OgoeEk2dsoTEMxI+RxNdT4iJvFAADIDKEYACDDBVc+cOvSxfNPpYQ2mB1z4D4fMkaLt7hYVj6yhmIeiFmKpc7CLwAAgD3wmggAkMFoKUh1rzldVdR/mB0TqNSMD7BJHopZX/ZpitlftVBz1PVyAAAkhlAMAJCFGm5+gsWi91FKPp/teoXo8vcVM9qXmYkZIy/HSfLkkJiKAACkhVAMAGAikRg8KxAMfobnykDmdZQpllOdSYGObp9ghGwbJIn5oVDLdlElAQDICqEYAMBEcOKhL+qxyAWU0vMzr6OEyh+KGdk9UswD8WAqxY4vq215VWxRAAByQigGALCw/LENFx9/9IxP8mz58dHXUPnbJ9JGihnRf6DVNq0UWQ4AgMwQigEALLS1taX6tq/6RrkWWE8p2WvPNcwDI8Wsj/CiGSEXKzVNplPMAQAAQjEAwLgq6lreTsXXfEch6v10eDoH6pGRYkbYnWq4+TxdxxodAABWEIoBAGxQa5of1LujJxGFXMNTcSUPnNKPFOuMPbUplrqYB2ImuhYAANkhFAMA2KSE5/wxsaNzlaYptxPCpB8pVkNNj07D3GsAALYgFAMA5CAwoek/Gzeuat47rB2fbVkMAADwJoRiAIAcTZvWYszqcKvoOgAAoHgQigEAAADA9xCKAQAAAMD3EIoBAAAAwPcQigEAAADA9xCKAQAAAMD3EIoBAAAAwPcQigEAAADA9xCKAQAAAMD3EIoBAAAAwPcQigEAAADA9xCKAQAAAP5/u3UgAAAAACDI33qQiyL2pBgAgD0pBgBgT4oBANiTYgAA9qQYAIA9KQYAYE+KAQDYk2IAAPakGACAPSkGAGBPigEA2JNiAAD2pBgAgD0pBgBgT4oBANiTYgAA9qQYAIA9KQYAYE+KAQDYk2IAAPakGACAPSkGAGBPigEA2JNiAAD2pBgAgD0pBgBgL/bhcy7S0A2aAAAAAElFTkSuQmCC;" vertex="1" parent="1">
                    <mxGeometry x="5600" y="2790" width="260" height="260" as="geometry"/>
                </mxCell>
            </root>
        </mxGraphModel>
    </diagram>
    <diagram name="Покрытие сервисами" id="LBq4sw7w2ZfflTA5G8ZU">
        <mxGraphModel dx="2425" dy="-1559" grid="1" gridSize="10" guides="1" tooltips="1" connect="1" arrows="1" fold="1" page="1" pageScale="1" pageWidth="827" pageHeight="1169" math="0" shadow="0">
            <root>
                <object label="" New="" id="2u0SDXx59rk51LR-6qHb-0">
                    <mxCell/>
                </object>
                <mxCell id="2u0SDXx59rk51LR-6qHb-1" parent="2u0SDXx59rk51LR-6qHb-0"/>
                <mxCell id="2u0SDXx59rk51LR-6qHb-2" value="" style="rounded=1;whiteSpace=wrap;html=1;fillColor=#EDF7D2;arcSize=3;strokeWidth=3;strokeColor=#000000;" parent="2u0SDXx59rk51LR-6qHb-1" vertex="1">
                    <mxGeometry x="-110" y="2700" width="4380" height="2800" as="geometry"/>
                </mxCell>
                <mxCell id="2u0SDXx59rk51LR-6qHb-3" value="&lt;font style=&quot;color: rgb(255, 255, 255); font-size: 100px;&quot;&gt;&amp;nbsp; Основные бизнес-компетенции&lt;/font&gt;" style="shape=rect;strokeColor=default;fillColor=#666666;strokeWidth=4;dashed=0;rounded=1;arcSize=20;fontColor=#ffffff;fontSize=50;spacing=2;spacingTop=-2;align=left;autosize=1;spacingLeft=4;resizeWidth=0;resizeHeight=0;perimeter=none;html=1;whiteSpace=wrap;" parent="2u0SDXx59rk51LR-6qHb-1" vertex="1">
                    <mxGeometry x="30" y="2639" width="1570" height="141" as="geometry"/>
                </mxCell>
                <mxCell id="2u0SDXx59rk51LR-6qHb-4" value="" style="rounded=1;whiteSpace=wrap;html=1;fillColor=#dae8fc;strokeColor=#000000;strokeWidth=2;" parent="2u0SDXx59rk51LR-6qHb-1" vertex="1">
                    <mxGeometry x="43" y="3220" width="690" height="1730" as="geometry"/>
                </mxCell>
                <mxCell id="2u0SDXx59rk51LR-6qHb-5" value="&lt;span style=&quot;font-size: 70px;&quot;&gt;&lt;font style=&quot;color: rgb(255, 255, 255);&quot;&gt;&amp;nbsp;IT&lt;/font&gt;&lt;/span&gt;" style="shape=rect;strokeColor=default;fillColor=#7EA6E0;strokeWidth=2;dashed=0;rounded=1;arcSize=20;fontColor=#ffffff;fontSize=30;spacing=2;spacingTop=-2;align=left;autosize=1;spacingLeft=4;resizeWidth=0;resizeHeight=0;perimeter=none;html=1;whiteSpace=wrap;" parent="2u0SDXx59rk51LR-6qHb-1" vertex="1">
                    <mxGeometry x="87" y="3170" width="126" height="90" as="geometry"/>
                </mxCell>
                <UserObject label="&lt;span style=&quot;font-size: 50px;&quot;&gt;&lt;b&gt;Финансы и развитие&lt;/b&gt;&lt;/span&gt;" id="2u0SDXx59rk51LR-6qHb-6">
                    <mxCell style="html=1;outlineConnect=0;whiteSpace=wrap;fillColor=#F5DEAA;shape=mxgraph.archimate3.application;appType=capability;archiType=rounded;" parent="2u0SDXx59rk51LR-6qHb-1" vertex="1">
                        <mxGeometry x="199.5" y="3350" width="335" height="167.5" as="geometry"/>
                    </mxCell>
                </UserObject>
                <mxCell id="2u0SDXx59rk51LR-6qHb-7" value="&lt;span style=&quot;font-size: 50px;&quot;&gt;&lt;b&gt;Разработка&lt;/b&gt;&lt;/span&gt;" style="html=1;outlineConnect=0;whiteSpace=wrap;fillColor=#F5DEAA;shape=mxgraph.archimate3.application;appType=capability;archiType=rounded;" parent="2u0SDXx59rk51LR-6qHb-1" vertex="1">
                    <mxGeometry x="199.5" y="3630" width="335" height="167.5" as="geometry"/>
                </mxCell>
                <mxCell id="2u0SDXx59rk51LR-6qHb-8" value="&lt;span style=&quot;font-size: 50px;&quot;&gt;&lt;b&gt;Поддержка&lt;/b&gt;&lt;/span&gt;" style="html=1;outlineConnect=0;whiteSpace=wrap;fillColor=#F5DEAA;shape=mxgraph.archimate3.application;appType=capability;archiType=rounded;" parent="2u0SDXx59rk51LR-6qHb-1" vertex="1">
                    <mxGeometry x="199.5" y="3940" width="335" height="167.5" as="geometry"/>
                </mxCell>
                <mxCell id="2u0SDXx59rk51LR-6qHb-9" value="" style="rounded=1;whiteSpace=wrap;html=1;fillColor=#dae8fc;strokeColor=#000000;strokeWidth=2;" parent="2u0SDXx59rk51LR-6qHb-1" vertex="1">
                    <mxGeometry x="893" y="3220" width="690" height="1120" as="geometry"/>
                </mxCell>
                <mxCell id="2u0SDXx59rk51LR-6qHb-10" value="&lt;font style=&quot;color: rgb(255, 255, 255); font-size: 70px;&quot;&gt;&amp;nbsp;Маркетинг&lt;/font&gt;" style="shape=rect;strokeColor=default;fillColor=#7EA6E0;strokeWidth=2;dashed=0;rounded=1;arcSize=20;fontColor=#ffffff;fontSize=30;spacing=2;spacingTop=-2;align=left;autosize=1;spacingLeft=4;resizeWidth=0;resizeHeight=0;perimeter=none;html=1;whiteSpace=wrap;" parent="2u0SDXx59rk51LR-6qHb-1" vertex="1">
                    <mxGeometry x="937" y="3170" width="396" height="90" as="geometry"/>
                </mxCell>
                <mxCell id="2u0SDXx59rk51LR-6qHb-11" value="" style="rounded=1;whiteSpace=wrap;html=1;fillColor=#dae8fc;strokeColor=#000000;strokeWidth=2;" parent="2u0SDXx59rk51LR-6qHb-1" vertex="1">
                    <mxGeometry x="1733" y="3220" width="690" height="1750" as="geometry"/>
                </mxCell>
                <mxCell id="2u0SDXx59rk51LR-6qHb-12" value="&lt;span style=&quot;font-size: 70px;&quot;&gt;&lt;font style=&quot;color: rgb(255, 255, 255);&quot;&gt;&amp;nbsp;HR&lt;/font&gt;&lt;/span&gt;" style="shape=rect;strokeColor=default;fillColor=#7EA6E0;strokeWidth=2;dashed=0;rounded=1;arcSize=20;fontColor=#ffffff;fontSize=30;spacing=2;spacingTop=-2;align=left;autosize=1;spacingLeft=4;resizeWidth=0;resizeHeight=0;perimeter=none;html=1;whiteSpace=wrap;" parent="2u0SDXx59rk51LR-6qHb-1" vertex="1">
                    <mxGeometry x="1777" y="3170" width="166" height="90" as="geometry"/>
                </mxCell>
                <mxCell id="2u0SDXx59rk51LR-6qHb-13" value="" style="rounded=1;whiteSpace=wrap;html=1;fillColor=#dae8fc;strokeColor=#000000;strokeWidth=2;" parent="2u0SDXx59rk51LR-6qHb-1" vertex="1">
                    <mxGeometry x="2573" y="3220" width="690" height="1760" as="geometry"/>
                </mxCell>
                <mxCell id="2u0SDXx59rk51LR-6qHb-14" value="&lt;span style=&quot;font-size: 70px;&quot;&gt;&amp;nbsp;&lt;font style=&quot;color: rgb(255, 255, 255);&quot;&gt;Бухглатерия&lt;/font&gt;&lt;/span&gt;" style="shape=rect;strokeColor=default;fillColor=#7EA6E0;strokeWidth=2;dashed=0;rounded=1;arcSize=20;fontColor=#ffffff;fontSize=30;spacing=2;spacingTop=-2;align=left;autosize=1;spacingLeft=4;resizeWidth=0;resizeHeight=0;perimeter=none;html=1;whiteSpace=wrap;" parent="2u0SDXx59rk51LR-6qHb-1" vertex="1">
                    <mxGeometry x="2617" y="3170" width="450" height="90" as="geometry"/>
                </mxCell>
                <mxCell id="2u0SDXx59rk51LR-6qHb-15" value="" style="rounded=1;whiteSpace=wrap;html=1;fillColor=#dae8fc;strokeColor=#000000;strokeWidth=2;" parent="2u0SDXx59rk51LR-6qHb-1" vertex="1">
                    <mxGeometry x="3403" y="3220" width="690" height="1120" as="geometry"/>
                </mxCell>
                <mxCell id="2u0SDXx59rk51LR-6qHb-16" value="&lt;span style=&quot;font-size: 70px;&quot;&gt;&lt;font style=&quot;color: rgb(255, 255, 255);&quot;&gt;&amp;nbsp;Контроль качества&lt;/font&gt;&lt;/span&gt;" style="shape=rect;strokeColor=default;fillColor=#7EA6E0;strokeWidth=2;dashed=0;rounded=1;arcSize=20;fontColor=#ffffff;fontSize=30;spacing=2;spacingTop=-2;align=left;autosize=1;spacingLeft=4;resizeWidth=0;resizeHeight=0;perimeter=none;html=1;whiteSpace=wrap;" parent="2u0SDXx59rk51LR-6qHb-1" vertex="1">
                    <mxGeometry x="3420" y="3170" width="660" height="90" as="geometry"/>
                </mxCell>
                <mxCell id="2u0SDXx59rk51LR-6qHb-17" value="&lt;span style=&quot;font-size: 50px;&quot;&gt;Фин. учет и отчетность&amp;nbsp;&lt;/span&gt;" style="html=1;outlineConnect=0;whiteSpace=wrap;fillColor=#F5DEAA;shape=mxgraph.archimate3.application;appType=capability;archiType=rounded;" parent="2u0SDXx59rk51LR-6qHb-1" vertex="1">
                    <mxGeometry x="2749" y="3320" width="335" height="167.5" as="geometry"/>
                </mxCell>
                <mxCell id="2u0SDXx59rk51LR-6qHb-18" value="&lt;span style=&quot;color: rgb(63, 63, 63); font-size: 50px;&quot;&gt;Фин. анализ&lt;/span&gt;" style="html=1;outlineConnect=0;whiteSpace=wrap;fillColor=#F5DEAA;shape=mxgraph.archimate3.application;appType=capability;archiType=rounded;" parent="2u0SDXx59rk51LR-6qHb-1" vertex="1">
                    <mxGeometry x="2749" y="3620" width="335" height="167.5" as="geometry"/>
                </mxCell>
                <mxCell id="2u0SDXx59rk51LR-6qHb-19" value="&lt;span style=&quot;font-size: 50px;&quot;&gt;Подбор сотрудников&lt;/span&gt;" style="html=1;outlineConnect=0;whiteSpace=wrap;fillColor=#F5DEAA;shape=mxgraph.archimate3.application;appType=capability;archiType=rounded;" parent="2u0SDXx59rk51LR-6qHb-1" vertex="1">
                    <mxGeometry x="1910.5" y="3350" width="335" height="167.5" as="geometry"/>
                </mxCell>
                <mxCell id="2u0SDXx59rk51LR-6qHb-20" value="&lt;span style=&quot;font-size: 50px;&quot;&gt;Управление кадрами&lt;/span&gt;" style="html=1;outlineConnect=0;whiteSpace=wrap;fillColor=#F5DEAA;shape=mxgraph.archimate3.application;appType=capability;archiType=rounded;" parent="2u0SDXx59rk51LR-6qHb-1" vertex="1">
                    <mxGeometry x="1910.5" y="3622" width="335" height="167.5" as="geometry"/>
                </mxCell>
                <mxCell id="2u0SDXx59rk51LR-6qHb-21" value="&lt;span style=&quot;font-size: 50px;&quot;&gt;Улучшение практик&lt;/span&gt;" style="html=1;outlineConnect=0;whiteSpace=wrap;fillColor=#F5DEAA;shape=mxgraph.archimate3.application;appType=capability;archiType=rounded;" parent="2u0SDXx59rk51LR-6qHb-1" vertex="1">
                    <mxGeometry x="1910.5" y="3930" width="335" height="167.5" as="geometry"/>
                </mxCell>
                <mxCell id="2u0SDXx59rk51LR-6qHb-22" value="&lt;span style=&quot;color: rgb(63, 63, 63); font-size: 50px;&quot;&gt;Налоговые отчисления&lt;/span&gt;" style="html=1;outlineConnect=0;whiteSpace=wrap;fillColor=#F5DEAA;shape=mxgraph.archimate3.application;appType=capability;archiType=rounded;" parent="2u0SDXx59rk51LR-6qHb-1" vertex="1">
                    <mxGeometry x="2749" y="3924" width="335" height="167.5" as="geometry"/>
                </mxCell>
                <mxCell id="2u0SDXx59rk51LR-6qHb-23" value="&lt;span style=&quot;color: rgb(63, 63, 63); font-size: 50px;&quot;&gt;Управление рисками&lt;/span&gt;" style="html=1;outlineConnect=0;whiteSpace=wrap;fillColor=#F5DEAA;shape=mxgraph.archimate3.application;appType=capability;archiType=rounded;" parent="2u0SDXx59rk51LR-6qHb-1" vertex="1">
                    <mxGeometry x="2749" y="4280" width="335" height="167.5" as="geometry"/>
                </mxCell>
                <mxCell id="2u0SDXx59rk51LR-6qHb-24" value="&lt;span style=&quot;color: rgb(63, 63, 63); font-size: 50px;&quot;&gt;Управление рисками&lt;/span&gt;" style="html=1;outlineConnect=0;whiteSpace=wrap;fillColor=#F5DEAA;shape=mxgraph.archimate3.application;appType=capability;archiType=rounded;" parent="2u0SDXx59rk51LR-6qHb-1" vertex="1">
                    <mxGeometry x="2749" y="4590" width="335" height="167.5" as="geometry"/>
                </mxCell>
                <mxCell id="2u0SDXx59rk51LR-6qHb-25" value="&lt;span style=&quot;font-size: 50px;&quot;&gt;Внутреннее обеспечение&lt;/span&gt;" style="html=1;outlineConnect=0;whiteSpace=wrap;fillColor=#F5DEAA;shape=mxgraph.archimate3.application;appType=capability;archiType=rounded;" parent="2u0SDXx59rk51LR-6qHb-1" vertex="1">
                    <mxGeometry x="1910.5" y="4280" width="335" height="167.5" as="geometry"/>
                </mxCell>
                <mxCell id="2u0SDXx59rk51LR-6qHb-26" value="&lt;span style=&quot;font-size: 50px;&quot;&gt;Фин. учет и отчетность&amp;nbsp;&lt;/span&gt;" style="html=1;outlineConnect=0;whiteSpace=wrap;fillColor=#F5DEAA;shape=mxgraph.archimate3.application;appType=capability;archiType=rounded;" parent="2u0SDXx59rk51LR-6qHb-1" vertex="1">
                    <mxGeometry x="3580.5" y="3320" width="335" height="167.5" as="geometry"/>
                </mxCell>
                <mxCell id="2u0SDXx59rk51LR-6qHb-27" value="&lt;span style=&quot;font-size: 50px;&quot;&gt;&lt;b&gt;Контроль качества&lt;/b&gt;&lt;/span&gt;" style="html=1;outlineConnect=0;whiteSpace=wrap;fillColor=#F5DEAA;shape=mxgraph.archimate3.application;appType=capability;archiType=rounded;" parent="2u0SDXx59rk51LR-6qHb-1" vertex="1">
                    <mxGeometry x="199.5" y="4230" width="335" height="167.5" as="geometry"/>
                </mxCell>
                <mxCell id="2u0SDXx59rk51LR-6qHb-28" value="" style="verticalLabelPosition=bottom;shadow=0;dashed=0;align=center;html=1;verticalAlign=top;strokeWidth=4;shape=mxgraph.mockup.forms.horSlider;strokeColor=#4D4D4D;sliderStyle=basic;sliderPos=67.244;handleStyle=circle;fillColor2=#36BCD1;gradientColor=none;labelBorderColor=none;labelBackgroundColor=none;fillColor=#36BCD1;perimeterSpacing=0;fillOpacity=100;" parent="2u0SDXx59rk51LR-6qHb-1" vertex="1">
                    <mxGeometry x="214.5" y="3540" width="320" height="30" as="geometry"/>
                </mxCell>
                <mxCell id="2u0SDXx59rk51LR-6qHb-29" value="" style="verticalLabelPosition=bottom;shadow=0;dashed=0;align=center;html=1;verticalAlign=top;strokeWidth=4;shape=mxgraph.mockup.forms.horSlider;strokeColor=#4D4D4D;sliderStyle=basic;sliderPos=67.244;handleStyle=circle;fillColor2=#36BCD1;gradientColor=none;labelBorderColor=none;labelBackgroundColor=none;fillColor=#36BCD1;perimeterSpacing=0;fillOpacity=100;" parent="2u0SDXx59rk51LR-6qHb-1" vertex="1">
                    <mxGeometry x="214.5" y="3830" width="320" height="30" as="geometry"/>
                </mxCell>
                <mxCell id="2u0SDXx59rk51LR-6qHb-30" value="" style="verticalLabelPosition=bottom;shadow=0;dashed=0;align=center;html=1;verticalAlign=top;strokeWidth=10;shape=mxgraph.mockup.forms.horSlider;strokeColor=#4D4D4D;sliderStyle=basic;sliderPos=67.244;handleStyle=circle;fillColor2=#36BCD1;gradientColor=none;labelBorderColor=none;labelBackgroundColor=none;fillColor=#36BCD1;perimeterSpacing=0;fillOpacity=100;" parent="2u0SDXx59rk51LR-6qHb-1" vertex="1">
                    <mxGeometry x="207" y="4130" width="320" height="30" as="geometry"/>
                </mxCell>
                <mxCell id="2u0SDXx59rk51LR-6qHb-31" value="" style="verticalLabelPosition=bottom;shadow=0;dashed=0;align=center;html=1;verticalAlign=top;strokeWidth=4;shape=mxgraph.mockup.forms.horSlider;strokeColor=#4D4D4D;sliderStyle=basic;sliderPos=67.244;handleStyle=circle;fillColor2=#36BCD1;gradientColor=none;labelBorderColor=none;labelBackgroundColor=none;fillColor=#36BCD1;perimeterSpacing=0;fillOpacity=100;" parent="2u0SDXx59rk51LR-6qHb-1" vertex="1">
                    <mxGeometry x="207" y="4417.5" width="320" height="30" as="geometry"/>
                </mxCell>
                <mxCell id="2u0SDXx59rk51LR-6qHb-32" value="" style="verticalLabelPosition=bottom;shadow=0;align=center;html=1;verticalAlign=top;strokeWidth=30;shape=mxgraph.mockup.forms.horSlider;strokeColor=#4D4D4D;sliderStyle=basic;sliderPos=74.771;handleStyle=circle;fillColor2=#36BCD1;gradientColor=none;labelBorderColor=none;labelBackgroundColor=none;fillColor=#36BCD1;perimeterSpacing=0;fillOpacity=100;sketch=1;curveFitting=1;jiggle=2;" parent="2u0SDXx59rk51LR-6qHb-1" vertex="1">
                    <mxGeometry x="133" y="5060" width="510" height="30" as="geometry"/>
                </mxCell>
                <mxCell id="2u0SDXx59rk51LR-6qHb-33" value="" style="verticalLabelPosition=bottom;shadow=0;dashed=0;align=center;html=1;verticalAlign=top;strokeWidth=8;shape=mxgraph.mockup.forms.horSlider;strokeColor=#4D4D4D;sliderStyle=basic;sliderPos=68.235;handleStyle=circle;fillColor2=#36BCD1;gradientColor=none;labelBorderColor=none;labelBackgroundColor=none;fillColor=#36BCD1;perimeterSpacing=0;fillOpacity=100;" parent="2u0SDXx59rk51LR-6qHb-1" vertex="1">
                    <mxGeometry x="1010" y="4410" width="510" height="30" as="geometry"/>
                </mxCell>
                <mxCell id="2u0SDXx59rk51LR-6qHb-34" value="" style="verticalLabelPosition=bottom;shadow=0;dashed=0;align=center;html=1;verticalAlign=top;strokeWidth=8;shape=mxgraph.mockup.forms.horSlider;strokeColor=#4D4D4D;sliderStyle=basic;sliderPos=29.51;handleStyle=circle;fillColor2=#36BCD1;gradientColor=none;labelBorderColor=none;labelBackgroundColor=none;fillColor=#36BCD1;perimeterSpacing=0;fillOpacity=100;" parent="2u0SDXx59rk51LR-6qHb-1" vertex="1">
                    <mxGeometry x="1825" y="5040" width="510" height="30" as="geometry"/>
                </mxCell>
                <mxCell id="2u0SDXx59rk51LR-6qHb-35" value="" style="verticalLabelPosition=bottom;shadow=0;dashed=0;align=center;html=1;verticalAlign=top;strokeWidth=8;shape=mxgraph.mockup.forms.horSlider;strokeColor=#4D4D4D;sliderStyle=basic;sliderPos=64.216;handleStyle=circle;fillColor2=#36BCD1;gradientColor=none;labelBorderColor=none;labelBackgroundColor=none;fillColor=#36BCD1;perimeterSpacing=0;fillOpacity=100;" parent="2u0SDXx59rk51LR-6qHb-1" vertex="1">
                    <mxGeometry x="2663" y="5040" width="510" height="30" as="geometry"/>
                </mxCell>
                <mxCell id="2u0SDXx59rk51LR-6qHb-36" value="" style="verticalLabelPosition=bottom;shadow=0;dashed=0;align=center;html=1;verticalAlign=top;strokeWidth=8;shape=mxgraph.mockup.forms.horSlider;strokeColor=#4D4D4D;sliderStyle=basic;sliderPos=55.817;handleStyle=circle;fillColor2=#36BCD1;gradientColor=none;labelBorderColor=none;labelBackgroundColor=none;fillColor=#36BCD1;perimeterSpacing=0;fillOpacity=100;" parent="2u0SDXx59rk51LR-6qHb-1" vertex="1">
                    <mxGeometry x="3495" y="4397.5" width="510" height="30" as="geometry"/>
                </mxCell>
                <mxCell id="2u0SDXx59rk51LR-6qHb-37" value="&lt;span style=&quot;font-size: 50px;&quot;&gt;Обучение и развитие&lt;/span&gt;" style="html=1;outlineConnect=0;whiteSpace=wrap;fillColor=#F5DEAA;shape=mxgraph.archimate3.application;appType=capability;archiType=rounded;" parent="2u0SDXx59rk51LR-6qHb-1" vertex="1">
                    <mxGeometry x="1912.5" y="4580" width="335" height="167.5" as="geometry"/>
                </mxCell>
                <UserObject label="&lt;span style=&quot;font-size: 50px;&quot;&gt;&lt;b&gt;Обеспечение ИБ&lt;/b&gt;&lt;/span&gt;" id="2u0SDXx59rk51LR-6qHb-38">
                    <mxCell style="html=1;outlineConnect=0;whiteSpace=wrap;fillColor=#F5DEAA;shape=mxgraph.archimate3.application;appType=capability;archiType=rounded;" parent="2u0SDXx59rk51LR-6qHb-1" vertex="1">
                        <mxGeometry x="207" y="4530" width="335" height="167.5" as="geometry"/>
                    </mxCell>
                </UserObject>
                <mxCell id="2u0SDXx59rk51LR-6qHb-39" value="" style="verticalLabelPosition=bottom;shadow=0;dashed=0;align=center;html=1;verticalAlign=top;strokeWidth=4;shape=mxgraph.mockup.forms.horSlider;strokeColor=#4D4D4D;sliderStyle=basic;sliderPos=67.244;handleStyle=circle;fillColor2=#36BCD1;gradientColor=none;labelBorderColor=none;labelBackgroundColor=none;fillColor=#36BCD1;perimeterSpacing=0;fillOpacity=100;" parent="2u0SDXx59rk51LR-6qHb-1" vertex="1">
                    <mxGeometry x="222" y="4720" width="320" height="30" as="geometry"/>
                </mxCell>
                <mxCell id="2u0SDXx59rk51LR-6qHb-40" value="" style="html=1;shadow=0;dashed=0;shape=mxgraph.bootstrap.rrect;rSize=17;strokeColor=#DFDFDF;html=1;whiteSpace=wrap;fillColor=#8C8496;fontColor=#000000;verticalAlign=top;align=center;spacing=20;fontSize=14;spacingLeft=170;" parent="2u0SDXx59rk51LR-6qHb-1" vertex="1">
                    <mxGeometry x="-890" y="4045" width="400" height="200" as="geometry"/>
                </mxCell>
                <mxCell id="2u0SDXx59rk51LR-6qHb-41" value="" style="html=1;shadow=0;dashed=0;shape=mxgraph.bootstrap.leftButton;rSize=17;perimeter=none;whiteSpace=wrap;fillColor=#1061B0;strokeColor=#DFDFDF;fontColor=#DEE2E6;resizeWidth=1;fontSize=18;part=0;backgroundOutline=0;noLabel=0;" parent="2u0SDXx59rk51LR-6qHb-40" vertex="1">
                    <mxGeometry width="110" height="200" relative="1" as="geometry"/>
                </mxCell>
                <mxCell id="2u0SDXx59rk51LR-6qHb-42" value="&lt;font style=&quot;font-size: 50px; color: rgb(255, 255, 255);&quot;&gt;Новое&lt;/font&gt;" style="text;html=1;align=center;verticalAlign=middle;resizable=0;points=[];autosize=1;strokeColor=none;fillColor=none;" parent="2u0SDXx59rk51LR-6qHb-40" vertex="1">
                    <mxGeometry x="114.99666666666668" y="64.99666666666667" width="170" height="70" as="geometry"/>
                </mxCell>
                <mxCell id="2u0SDXx59rk51LR-6qHb-43" value="" style="html=1;shadow=0;dashed=0;shape=mxgraph.bootstrap.radioButton2;labelPosition=right;verticalLabelPosition=middle;align=left;verticalAlign=middle;gradientColor=none;fillColor=#FFFFFF;checked=0;spacing=5;checkedFill=#000000;checkedStroke=#ffffff;sketch=0;strokeWidth=7;strokeColor=#CCCCCC;" parent="2u0SDXx59rk51LR-6qHb-40" vertex="1">
                    <mxGeometry x="356.25" y="45" width="30" height="30" as="geometry"/>
                </mxCell>
                <mxCell id="2u0SDXx59rk51LR-6qHb-44" value="" style="html=1;shadow=0;dashed=0;shape=mxgraph.bootstrap.radioButton2;labelPosition=right;verticalLabelPosition=middle;align=left;verticalAlign=middle;gradientColor=none;fillColor=#FFFFFF;checked=0;spacing=5;checkedFill=#000000;checkedStroke=#ffffff;sketch=0;strokeWidth=7;strokeColor=#CCCCCC;" parent="2u0SDXx59rk51LR-6qHb-40" vertex="1">
                    <mxGeometry x="356.25" y="85" width="30" height="30" as="geometry"/>
                </mxCell>
                <mxCell id="2u0SDXx59rk51LR-6qHb-45" value="" style="html=1;shadow=0;dashed=0;shape=mxgraph.bootstrap.radioButton2;labelPosition=right;verticalLabelPosition=middle;align=left;verticalAlign=middle;gradientColor=none;fillColor=#FFFFFF;checked=1;spacing=5;fontColor=#6C767D;checkedFill=#000000;checkedStroke=#ffffff;sketch=0;strokeWidth=7;strokeColor=#CCCCCC;" parent="2u0SDXx59rk51LR-6qHb-40" vertex="1">
                    <mxGeometry x="356.25" y="125" width="30" height="30" as="geometry"/>
                </mxCell>
                <mxCell id="2u0SDXx59rk51LR-6qHb-46" value="" style="html=1;shadow=0;dashed=0;shape=mxgraph.bootstrap.rrect;rSize=17;strokeColor=#DFDFDF;html=1;whiteSpace=wrap;fillColor=#8C8496;fontColor=#000000;verticalAlign=top;align=center;spacing=20;fontSize=14;spacingLeft=170;" parent="2u0SDXx59rk51LR-6qHb-1" vertex="1">
                    <mxGeometry x="-890" y="4290" width="400" height="200" as="geometry"/>
                </mxCell>
                <mxCell id="2u0SDXx59rk51LR-6qHb-47" value="&lt;font style=&quot;font-size: 50px; color: rgb(255, 255, 255);&quot;&gt;Новое&lt;/font&gt;" style="text;html=1;align=center;verticalAlign=middle;resizable=0;points=[];autosize=1;strokeColor=none;fillColor=none;" parent="2u0SDXx59rk51LR-6qHb-46" vertex="1">
                    <mxGeometry x="114.99666666666668" y="64.99666666666667" width="170" height="70" as="geometry"/>
                </mxCell>
                <mxCell id="2u0SDXx59rk51LR-6qHb-48" value="" style="html=1;shadow=0;dashed=0;shape=mxgraph.bootstrap.radioButton2;labelPosition=right;verticalLabelPosition=middle;align=left;verticalAlign=middle;gradientColor=none;fillColor=#FFFFFF;checked=0;spacing=5;checkedFill=#000000;checkedStroke=#ffffff;sketch=0;strokeWidth=7;strokeColor=#CCCCCC;" parent="2u0SDXx59rk51LR-6qHb-46" vertex="1">
                    <mxGeometry x="356.25" y="45" width="30" height="30" as="geometry"/>
                </mxCell>
                <mxCell id="2u0SDXx59rk51LR-6qHb-49" value="" style="html=1;shadow=0;dashed=0;shape=mxgraph.bootstrap.radioButton2;labelPosition=right;verticalLabelPosition=middle;align=left;verticalAlign=middle;gradientColor=none;fillColor=#FFFFFF;checked=1;spacing=5;checkedFill=#000000;checkedStroke=#ffffff;sketch=0;strokeWidth=7;strokeColor=#CCCCCC;" parent="2u0SDXx59rk51LR-6qHb-46" vertex="1">
                    <mxGeometry x="356.25" y="85" width="30" height="30" as="geometry"/>
                </mxCell>
                <mxCell id="2u0SDXx59rk51LR-6qHb-50" value="" style="html=1;shadow=0;dashed=0;shape=mxgraph.bootstrap.radioButton2;labelPosition=right;verticalLabelPosition=middle;align=left;verticalAlign=middle;gradientColor=none;fillColor=#FFFFFF;checked=1;spacing=5;fontColor=#6C767D;checkedFill=#000000;checkedStroke=#ffffff;sketch=0;strokeWidth=7;strokeColor=#CCCCCC;" parent="2u0SDXx59rk51LR-6qHb-46" vertex="1">
                    <mxGeometry x="356.25" y="125" width="30" height="30" as="geometry"/>
                </mxCell>
                <mxCell id="2u0SDXx59rk51LR-6qHb-51" value="" style="html=1;shadow=0;dashed=0;shape=mxgraph.bootstrap.rrect;rSize=17;strokeColor=#DFDFDF;html=1;whiteSpace=wrap;fillColor=#1061B0;fontColor=#000000;verticalAlign=top;align=center;spacing=20;fontSize=14;spacingLeft=170;" parent="2u0SDXx59rk51LR-6qHb-1" vertex="1">
                    <mxGeometry x="-890" y="4550" width="400" height="200" as="geometry"/>
                </mxCell>
                <mxCell id="2u0SDXx59rk51LR-6qHb-52" value="&lt;font style=&quot;font-size: 50px; color: rgb(255, 255, 255);&quot;&gt;Новое&lt;/font&gt;" style="text;html=1;align=center;verticalAlign=middle;resizable=0;points=[];autosize=1;strokeColor=none;fillColor=none;" parent="2u0SDXx59rk51LR-6qHb-51" vertex="1">
                    <mxGeometry x="114.99666666666668" y="64.99666666666667" width="170" height="70" as="geometry"/>
                </mxCell>
                <mxCell id="2u0SDXx59rk51LR-6qHb-53" value="" style="html=1;shadow=0;dashed=0;shape=mxgraph.bootstrap.radioButton2;labelPosition=right;verticalLabelPosition=middle;align=left;verticalAlign=middle;gradientColor=none;fillColor=#FFFFFF;checked=1;spacing=5;checkedFill=#000000;checkedStroke=#ffffff;sketch=0;strokeWidth=7;strokeColor=#CCCCCC;" parent="2u0SDXx59rk51LR-6qHb-51" vertex="1">
                    <mxGeometry x="356.25" y="45" width="30" height="30" as="geometry"/>
                </mxCell>
                <mxCell id="2u0SDXx59rk51LR-6qHb-54" value="" style="html=1;shadow=0;dashed=0;shape=mxgraph.bootstrap.radioButton2;labelPosition=right;verticalLabelPosition=middle;align=left;verticalAlign=middle;gradientColor=none;fillColor=#FFFFFF;checked=1;spacing=5;checkedFill=#000000;checkedStroke=#ffffff;sketch=0;strokeWidth=7;strokeColor=#CCCCCC;" parent="2u0SDXx59rk51LR-6qHb-51" vertex="1">
                    <mxGeometry x="356.25" y="85" width="30" height="30" as="geometry"/>
                </mxCell>
                <mxCell id="2u0SDXx59rk51LR-6qHb-55" value="" style="html=1;shadow=0;dashed=0;shape=mxgraph.bootstrap.radioButton2;labelPosition=right;verticalLabelPosition=middle;align=left;verticalAlign=middle;gradientColor=none;fillColor=#FFFFFF;checked=1;spacing=5;fontColor=#6C767D;checkedFill=#000000;checkedStroke=#ffffff;sketch=0;strokeWidth=7;strokeColor=#CCCCCC;" parent="2u0SDXx59rk51LR-6qHb-51" vertex="1">
                    <mxGeometry x="356.25" y="125" width="30" height="30" as="geometry"/>
                </mxCell>
            </root>
        </mxGraphModel>
    </diagram>
    <diagram name="Управляющие" id="zlUslKcowD9_geuOn4l3">
        <mxGraphModel dx="2740" dy="-1559" grid="1" gridSize="10" guides="1" tooltips="1" connect="1" arrows="1" fold="1" page="1" pageScale="1" pageWidth="827" pageHeight="1169" math="0" shadow="0">
            <root>
                <object label="" New="" id="wp2hwnPlKysDd1k0PrAt-0">
                    <mxCell/>
                </object>
                <mxCell id="wp2hwnPlKysDd1k0PrAt-1" parent="wp2hwnPlKysDd1k0PrAt-0"/>
                <mxCell id="wp2hwnPlKysDd1k0PrAt-2" value="" style="rounded=1;whiteSpace=wrap;html=1;fillColor=#EDF7D2;arcSize=2;strokeWidth=5;strokeColor=#000000;" parent="wp2hwnPlKysDd1k0PrAt-1" vertex="1">
                    <mxGeometry x="-110" y="2700" width="4380" height="2800" as="geometry"/>
                </mxCell>
                <mxCell id="wp2hwnPlKysDd1k0PrAt-3" value="&lt;font style=&quot;color: rgb(255, 255, 255); font-size: 100px;&quot;&gt;&amp;nbsp; Управляющие бизнес-компетенции&lt;/font&gt;" style="shape=rect;strokeColor=default;fillColor=#666666;strokeWidth=4;dashed=0;rounded=1;arcSize=20;fontColor=#ffffff;fontSize=50;spacing=2;spacingTop=-2;align=left;autosize=1;spacingLeft=4;resizeWidth=0;resizeHeight=0;perimeter=none;html=1;whiteSpace=wrap;" parent="wp2hwnPlKysDd1k0PrAt-1" vertex="1">
                    <mxGeometry x="30" y="2620" width="1760" height="155" as="geometry"/>
                </mxCell>
                <mxCell id="wp2hwnPlKysDd1k0PrAt-4" value="" style="rounded=1;whiteSpace=wrap;html=1;fillColor=#dae8fc;strokeColor=#000000;strokeWidth=2;" parent="wp2hwnPlKysDd1k0PrAt-1" vertex="1">
                    <mxGeometry x="43" y="3220" width="690" height="1730" as="geometry"/>
                </mxCell>
                <mxCell id="wp2hwnPlKysDd1k0PrAt-5" value="&lt;span style=&quot;font-size: 70px;&quot;&gt;&lt;font style=&quot;color: rgb(255, 255, 255);&quot;&gt;&amp;nbsp;IT&lt;/font&gt;&lt;/span&gt;" style="shape=rect;strokeColor=default;fillColor=#7EA6E0;strokeWidth=2;dashed=0;rounded=1;arcSize=20;fontColor=#ffffff;fontSize=30;spacing=2;spacingTop=-2;align=left;autosize=1;spacingLeft=4;resizeWidth=0;resizeHeight=0;perimeter=none;html=1;whiteSpace=wrap;" parent="wp2hwnPlKysDd1k0PrAt-1" vertex="1">
                    <mxGeometry x="87" y="3170" width="126" height="90" as="geometry"/>
                </mxCell>
                <UserObject label="&lt;span style=&quot;font-size: 50px;&quot;&gt;&lt;b&gt;Финансы и развитие&lt;/b&gt;&lt;/span&gt;" id="wp2hwnPlKysDd1k0PrAt-6">
                    <mxCell style="html=1;outlineConnect=0;whiteSpace=wrap;fillColor=#F5DEAA;shape=mxgraph.archimate3.application;appType=capability;archiType=rounded;" parent="wp2hwnPlKysDd1k0PrAt-1" vertex="1">
                        <mxGeometry x="199.5" y="3350" width="335" height="167.5" as="geometry"/>
                    </mxCell>
                </UserObject>
                <mxCell id="wp2hwnPlKysDd1k0PrAt-7" value="&lt;span style=&quot;font-size: 50px;&quot;&gt;&lt;b&gt;Разработка&lt;/b&gt;&lt;/span&gt;" style="html=1;outlineConnect=0;whiteSpace=wrap;fillColor=#F5DEAA;shape=mxgraph.archimate3.application;appType=capability;archiType=rounded;" parent="wp2hwnPlKysDd1k0PrAt-1" vertex="1">
                    <mxGeometry x="199.5" y="3630" width="335" height="167.5" as="geometry"/>
                </mxCell>
                <mxCell id="wp2hwnPlKysDd1k0PrAt-8" value="&lt;span style=&quot;font-size: 50px;&quot;&gt;&lt;b&gt;Поддержка&lt;/b&gt;&lt;/span&gt;" style="html=1;outlineConnect=0;whiteSpace=wrap;fillColor=#F5DEAA;shape=mxgraph.archimate3.application;appType=capability;archiType=rounded;" parent="wp2hwnPlKysDd1k0PrAt-1" vertex="1">
                    <mxGeometry x="199.5" y="3940" width="335" height="167.5" as="geometry"/>
                </mxCell>
                <mxCell id="wp2hwnPlKysDd1k0PrAt-9" value="" style="rounded=1;whiteSpace=wrap;html=1;fillColor=#dae8fc;strokeColor=#000000;strokeWidth=2;" parent="wp2hwnPlKysDd1k0PrAt-1" vertex="1">
                    <mxGeometry x="893" y="3220" width="690" height="1120" as="geometry"/>
                </mxCell>
                <mxCell id="wp2hwnPlKysDd1k0PrAt-10" value="&lt;font style=&quot;color: rgb(255, 255, 255); font-size: 70px;&quot;&gt;&amp;nbsp;Маркетинг&lt;/font&gt;" style="shape=rect;strokeColor=default;fillColor=#7EA6E0;strokeWidth=2;dashed=0;rounded=1;arcSize=20;fontColor=#ffffff;fontSize=30;spacing=2;spacingTop=-2;align=left;autosize=1;spacingLeft=4;resizeWidth=0;resizeHeight=0;perimeter=none;html=1;whiteSpace=wrap;" parent="wp2hwnPlKysDd1k0PrAt-1" vertex="1">
                    <mxGeometry x="937" y="3170" width="396" height="90" as="geometry"/>
                </mxCell>
                <mxCell id="wp2hwnPlKysDd1k0PrAt-11" value="" style="rounded=1;whiteSpace=wrap;html=1;fillColor=#dae8fc;strokeColor=#000000;strokeWidth=2;" parent="wp2hwnPlKysDd1k0PrAt-1" vertex="1">
                    <mxGeometry x="1733" y="3220" width="690" height="1750" as="geometry"/>
                </mxCell>
                <mxCell id="wp2hwnPlKysDd1k0PrAt-12" value="&lt;span style=&quot;font-size: 70px;&quot;&gt;&lt;font style=&quot;color: rgb(255, 255, 255);&quot;&gt;&amp;nbsp;HR&lt;/font&gt;&lt;/span&gt;" style="shape=rect;strokeColor=default;fillColor=#7EA6E0;strokeWidth=2;dashed=0;rounded=1;arcSize=20;fontColor=#ffffff;fontSize=30;spacing=2;spacingTop=-2;align=left;autosize=1;spacingLeft=4;resizeWidth=0;resizeHeight=0;perimeter=none;html=1;whiteSpace=wrap;" parent="wp2hwnPlKysDd1k0PrAt-1" vertex="1">
                    <mxGeometry x="1777" y="3170" width="166" height="90" as="geometry"/>
                </mxCell>
                <mxCell id="wp2hwnPlKysDd1k0PrAt-13" value="" style="rounded=1;whiteSpace=wrap;html=1;fillColor=#dae8fc;strokeColor=#000000;strokeWidth=2;" parent="wp2hwnPlKysDd1k0PrAt-1" vertex="1">
                    <mxGeometry x="2573" y="3220" width="690" height="1760" as="geometry"/>
                </mxCell>
                <mxCell id="wp2hwnPlKysDd1k0PrAt-14" value="&lt;span style=&quot;font-size: 70px;&quot;&gt;&amp;nbsp;&lt;font style=&quot;color: rgb(255, 255, 255);&quot;&gt;Бухглатерия&lt;/font&gt;&lt;/span&gt;" style="shape=rect;strokeColor=default;fillColor=#7EA6E0;strokeWidth=2;dashed=0;rounded=1;arcSize=20;fontColor=#ffffff;fontSize=30;spacing=2;spacingTop=-2;align=left;autosize=1;spacingLeft=4;resizeWidth=0;resizeHeight=0;perimeter=none;html=1;whiteSpace=wrap;" parent="wp2hwnPlKysDd1k0PrAt-1" vertex="1">
                    <mxGeometry x="2617" y="3170" width="450" height="90" as="geometry"/>
                </mxCell>
                <mxCell id="wp2hwnPlKysDd1k0PrAt-15" value="" style="rounded=1;whiteSpace=wrap;html=1;fillColor=#dae8fc;strokeColor=#000000;strokeWidth=2;" parent="wp2hwnPlKysDd1k0PrAt-1" vertex="1">
                    <mxGeometry x="3403" y="3220" width="690" height="1120" as="geometry"/>
                </mxCell>
                <mxCell id="wp2hwnPlKysDd1k0PrAt-16" value="&lt;span style=&quot;font-size: 70px;&quot;&gt;&lt;font style=&quot;color: rgb(255, 255, 255);&quot;&gt;&amp;nbsp;Контроль качества&lt;/font&gt;&lt;/span&gt;" style="shape=rect;strokeColor=default;fillColor=#7EA6E0;strokeWidth=2;dashed=0;rounded=1;arcSize=20;fontColor=#ffffff;fontSize=30;spacing=2;spacingTop=-2;align=left;autosize=1;spacingLeft=4;resizeWidth=0;resizeHeight=0;perimeter=none;html=1;whiteSpace=wrap;" parent="wp2hwnPlKysDd1k0PrAt-1" vertex="1">
                    <mxGeometry x="3420" y="3170" width="660" height="90" as="geometry"/>
                </mxCell>
                <mxCell id="wp2hwnPlKysDd1k0PrAt-17" value="&lt;span style=&quot;font-size: 50px;&quot;&gt;Фин. учет и отчетность&amp;nbsp;&lt;/span&gt;" style="html=1;outlineConnect=0;whiteSpace=wrap;fillColor=#F5DEAA;shape=mxgraph.archimate3.application;appType=capability;archiType=rounded;" parent="wp2hwnPlKysDd1k0PrAt-1" vertex="1">
                    <mxGeometry x="2749" y="3320" width="335" height="167.5" as="geometry"/>
                </mxCell>
                <mxCell id="wp2hwnPlKysDd1k0PrAt-18" value="&lt;span style=&quot;color: rgb(63, 63, 63); font-size: 50px;&quot;&gt;Фин. анализ&lt;/span&gt;" style="html=1;outlineConnect=0;whiteSpace=wrap;fillColor=#F5DEAA;shape=mxgraph.archimate3.application;appType=capability;archiType=rounded;" parent="wp2hwnPlKysDd1k0PrAt-1" vertex="1">
                    <mxGeometry x="2749" y="3620" width="335" height="167.5" as="geometry"/>
                </mxCell>
                <mxCell id="wp2hwnPlKysDd1k0PrAt-19" value="&lt;span style=&quot;font-size: 50px;&quot;&gt;Подбор сотрудников&lt;/span&gt;" style="html=1;outlineConnect=0;whiteSpace=wrap;fillColor=#F5DEAA;shape=mxgraph.archimate3.application;appType=capability;archiType=rounded;" parent="wp2hwnPlKysDd1k0PrAt-1" vertex="1">
                    <mxGeometry x="1910.5" y="3350" width="335" height="167.5" as="geometry"/>
                </mxCell>
                <mxCell id="wp2hwnPlKysDd1k0PrAt-20" value="&lt;span style=&quot;font-size: 50px;&quot;&gt;Управление кадрами&lt;/span&gt;" style="html=1;outlineConnect=0;whiteSpace=wrap;fillColor=#F5DEAA;shape=mxgraph.archimate3.application;appType=capability;archiType=rounded;" parent="wp2hwnPlKysDd1k0PrAt-1" vertex="1">
                    <mxGeometry x="1910.5" y="3622" width="335" height="167.5" as="geometry"/>
                </mxCell>
                <mxCell id="wp2hwnPlKysDd1k0PrAt-21" value="&lt;span style=&quot;font-size: 50px;&quot;&gt;Улучшение практик&lt;/span&gt;" style="html=1;outlineConnect=0;whiteSpace=wrap;fillColor=#F5DEAA;shape=mxgraph.archimate3.application;appType=capability;archiType=rounded;" parent="wp2hwnPlKysDd1k0PrAt-1" vertex="1">
                    <mxGeometry x="1910.5" y="3930" width="335" height="167.5" as="geometry"/>
                </mxCell>
                <mxCell id="wp2hwnPlKysDd1k0PrAt-22" value="&lt;span style=&quot;color: rgb(63, 63, 63); font-size: 50px;&quot;&gt;Налоговые отчисления&lt;/span&gt;" style="html=1;outlineConnect=0;whiteSpace=wrap;fillColor=#F5DEAA;shape=mxgraph.archimate3.application;appType=capability;archiType=rounded;" parent="wp2hwnPlKysDd1k0PrAt-1" vertex="1">
                    <mxGeometry x="2749" y="3924" width="335" height="167.5" as="geometry"/>
                </mxCell>
                <mxCell id="wp2hwnPlKysDd1k0PrAt-23" value="&lt;span style=&quot;color: rgb(63, 63, 63); font-size: 50px;&quot;&gt;Управление рисками&lt;/span&gt;" style="html=1;outlineConnect=0;whiteSpace=wrap;fillColor=#F5DEAA;shape=mxgraph.archimate3.application;appType=capability;archiType=rounded;" parent="wp2hwnPlKysDd1k0PrAt-1" vertex="1">
                    <mxGeometry x="2749" y="4280" width="335" height="167.5" as="geometry"/>
                </mxCell>
                <mxCell id="wp2hwnPlKysDd1k0PrAt-24" value="&lt;span style=&quot;color: rgb(63, 63, 63); font-size: 50px;&quot;&gt;Управление рисками&lt;/span&gt;" style="html=1;outlineConnect=0;whiteSpace=wrap;fillColor=#F5DEAA;shape=mxgraph.archimate3.application;appType=capability;archiType=rounded;" parent="wp2hwnPlKysDd1k0PrAt-1" vertex="1">
                    <mxGeometry x="2749" y="4590" width="335" height="167.5" as="geometry"/>
                </mxCell>
                <mxCell id="wp2hwnPlKysDd1k0PrAt-25" value="&lt;span style=&quot;font-size: 50px;&quot;&gt;Внутреннее обеспечение&lt;/span&gt;" style="html=1;outlineConnect=0;whiteSpace=wrap;fillColor=#F5DEAA;shape=mxgraph.archimate3.application;appType=capability;archiType=rounded;" parent="wp2hwnPlKysDd1k0PrAt-1" vertex="1">
                    <mxGeometry x="1910.5" y="4280" width="335" height="167.5" as="geometry"/>
                </mxCell>
                <mxCell id="wp2hwnPlKysDd1k0PrAt-26" value="&lt;span style=&quot;font-size: 50px;&quot;&gt;Фин. учет и отчетность&amp;nbsp;&lt;/span&gt;" style="html=1;outlineConnect=0;whiteSpace=wrap;fillColor=#F5DEAA;shape=mxgraph.archimate3.application;appType=capability;archiType=rounded;" parent="wp2hwnPlKysDd1k0PrAt-1" vertex="1">
                    <mxGeometry x="3580.5" y="3320" width="335" height="167.5" as="geometry"/>
                </mxCell>
                <mxCell id="wp2hwnPlKysDd1k0PrAt-27" value="&lt;span style=&quot;font-size: 50px;&quot;&gt;&lt;b&gt;Контроль качества&lt;/b&gt;&lt;/span&gt;" style="html=1;outlineConnect=0;whiteSpace=wrap;fillColor=#F5DEAA;shape=mxgraph.archimate3.application;appType=capability;archiType=rounded;" parent="wp2hwnPlKysDd1k0PrAt-1" vertex="1">
                    <mxGeometry x="199.5" y="4230" width="335" height="167.5" as="geometry"/>
                </mxCell>
                <mxCell id="wp2hwnPlKysDd1k0PrAt-28" value="" style="verticalLabelPosition=bottom;shadow=0;dashed=0;align=center;html=1;verticalAlign=top;strokeWidth=4;shape=mxgraph.mockup.forms.horSlider;strokeColor=#4D4D4D;sliderStyle=basic;sliderPos=67.244;handleStyle=circle;fillColor2=#36BCD1;gradientColor=none;labelBorderColor=none;labelBackgroundColor=none;fillColor=#36BCD1;perimeterSpacing=0;fillOpacity=100;" parent="wp2hwnPlKysDd1k0PrAt-1" vertex="1">
                    <mxGeometry x="214.5" y="3540" width="320" height="30" as="geometry"/>
                </mxCell>
                <mxCell id="wp2hwnPlKysDd1k0PrAt-29" value="" style="verticalLabelPosition=bottom;shadow=0;dashed=0;align=center;html=1;verticalAlign=top;strokeWidth=4;shape=mxgraph.mockup.forms.horSlider;strokeColor=#4D4D4D;sliderStyle=basic;sliderPos=67.244;handleStyle=circle;fillColor2=#36BCD1;gradientColor=none;labelBorderColor=none;labelBackgroundColor=none;fillColor=#36BCD1;perimeterSpacing=0;fillOpacity=100;" parent="wp2hwnPlKysDd1k0PrAt-1" vertex="1">
                    <mxGeometry x="214.5" y="3830" width="320" height="30" as="geometry"/>
                </mxCell>
                <mxCell id="wp2hwnPlKysDd1k0PrAt-30" value="" style="verticalLabelPosition=bottom;shadow=0;dashed=0;align=center;html=1;verticalAlign=top;strokeWidth=10;shape=mxgraph.mockup.forms.horSlider;strokeColor=#4D4D4D;sliderStyle=basic;sliderPos=67.244;handleStyle=circle;fillColor2=#36BCD1;gradientColor=none;labelBorderColor=none;labelBackgroundColor=none;fillColor=#36BCD1;perimeterSpacing=0;fillOpacity=100;" parent="wp2hwnPlKysDd1k0PrAt-1" vertex="1">
                    <mxGeometry x="207" y="4130" width="320" height="30" as="geometry"/>
                </mxCell>
                <mxCell id="wp2hwnPlKysDd1k0PrAt-31" value="" style="verticalLabelPosition=bottom;shadow=0;dashed=0;align=center;html=1;verticalAlign=top;strokeWidth=4;shape=mxgraph.mockup.forms.horSlider;strokeColor=#4D4D4D;sliderStyle=basic;sliderPos=67.244;handleStyle=circle;fillColor2=#36BCD1;gradientColor=none;labelBorderColor=none;labelBackgroundColor=none;fillColor=#36BCD1;perimeterSpacing=0;fillOpacity=100;" parent="wp2hwnPlKysDd1k0PrAt-1" vertex="1">
                    <mxGeometry x="207" y="4417.5" width="320" height="30" as="geometry"/>
                </mxCell>
                <mxCell id="wp2hwnPlKysDd1k0PrAt-32" value="" style="verticalLabelPosition=bottom;shadow=0;align=center;html=1;verticalAlign=top;strokeWidth=30;shape=mxgraph.mockup.forms.horSlider;strokeColor=#4D4D4D;sliderStyle=basic;sliderPos=74.771;handleStyle=circle;fillColor2=#36BCD1;gradientColor=none;labelBorderColor=none;labelBackgroundColor=none;fillColor=#36BCD1;perimeterSpacing=0;fillOpacity=100;sketch=1;curveFitting=1;jiggle=2;" parent="wp2hwnPlKysDd1k0PrAt-1" vertex="1">
                    <mxGeometry x="133" y="5060" width="510" height="30" as="geometry"/>
                </mxCell>
                <mxCell id="wp2hwnPlKysDd1k0PrAt-33" value="" style="verticalLabelPosition=bottom;shadow=0;dashed=0;align=center;html=1;verticalAlign=top;strokeWidth=8;shape=mxgraph.mockup.forms.horSlider;strokeColor=#4D4D4D;sliderStyle=basic;sliderPos=68.235;handleStyle=circle;fillColor2=#36BCD1;gradientColor=none;labelBorderColor=none;labelBackgroundColor=none;fillColor=#36BCD1;perimeterSpacing=0;fillOpacity=100;" parent="wp2hwnPlKysDd1k0PrAt-1" vertex="1">
                    <mxGeometry x="1010" y="4410" width="510" height="30" as="geometry"/>
                </mxCell>
                <mxCell id="wp2hwnPlKysDd1k0PrAt-34" value="" style="verticalLabelPosition=bottom;shadow=0;dashed=0;align=center;html=1;verticalAlign=top;strokeWidth=8;shape=mxgraph.mockup.forms.horSlider;strokeColor=#4D4D4D;sliderStyle=basic;sliderPos=29.51;handleStyle=circle;fillColor2=#36BCD1;gradientColor=none;labelBorderColor=none;labelBackgroundColor=none;fillColor=#36BCD1;perimeterSpacing=0;fillOpacity=100;" parent="wp2hwnPlKysDd1k0PrAt-1" vertex="1">
                    <mxGeometry x="1825" y="5040" width="510" height="30" as="geometry"/>
                </mxCell>
                <mxCell id="wp2hwnPlKysDd1k0PrAt-35" value="" style="verticalLabelPosition=bottom;shadow=0;dashed=0;align=center;html=1;verticalAlign=top;strokeWidth=8;shape=mxgraph.mockup.forms.horSlider;strokeColor=#4D4D4D;sliderStyle=basic;sliderPos=64.216;handleStyle=circle;fillColor2=#36BCD1;gradientColor=none;labelBorderColor=none;labelBackgroundColor=none;fillColor=#36BCD1;perimeterSpacing=0;fillOpacity=100;" parent="wp2hwnPlKysDd1k0PrAt-1" vertex="1">
                    <mxGeometry x="2663" y="5040" width="510" height="30" as="geometry"/>
                </mxCell>
                <mxCell id="wp2hwnPlKysDd1k0PrAt-36" value="" style="verticalLabelPosition=bottom;shadow=0;dashed=0;align=center;html=1;verticalAlign=top;strokeWidth=8;shape=mxgraph.mockup.forms.horSlider;strokeColor=#4D4D4D;sliderStyle=basic;sliderPos=55.817;handleStyle=circle;fillColor2=#36BCD1;gradientColor=none;labelBorderColor=none;labelBackgroundColor=none;fillColor=#36BCD1;perimeterSpacing=0;fillOpacity=100;" parent="wp2hwnPlKysDd1k0PrAt-1" vertex="1">
                    <mxGeometry x="3495" y="4397.5" width="510" height="30" as="geometry"/>
                </mxCell>
                <mxCell id="wp2hwnPlKysDd1k0PrAt-37" value="&lt;span style=&quot;font-size: 50px;&quot;&gt;Обучение и развитие&lt;/span&gt;" style="html=1;outlineConnect=0;whiteSpace=wrap;fillColor=#F5DEAA;shape=mxgraph.archimate3.application;appType=capability;archiType=rounded;" parent="wp2hwnPlKysDd1k0PrAt-1" vertex="1">
                    <mxGeometry x="1912.5" y="4580" width="335" height="167.5" as="geometry"/>
                </mxCell>
                <UserObject label="&lt;span style=&quot;font-size: 50px;&quot;&gt;&lt;b&gt;Обеспечение ИБ&lt;/b&gt;&lt;/span&gt;" id="wp2hwnPlKysDd1k0PrAt-38">
                    <mxCell style="html=1;outlineConnect=0;whiteSpace=wrap;fillColor=#F5DEAA;shape=mxgraph.archimate3.application;appType=capability;archiType=rounded;" parent="wp2hwnPlKysDd1k0PrAt-1" vertex="1">
                        <mxGeometry x="207" y="4530" width="335" height="167.5" as="geometry"/>
                    </mxCell>
                </UserObject>
                <mxCell id="wp2hwnPlKysDd1k0PrAt-39" value="" style="verticalLabelPosition=bottom;shadow=0;dashed=0;align=center;html=1;verticalAlign=top;strokeWidth=4;shape=mxgraph.mockup.forms.horSlider;strokeColor=#4D4D4D;sliderStyle=basic;sliderPos=67.244;handleStyle=circle;fillColor2=#36BCD1;gradientColor=none;labelBorderColor=none;labelBackgroundColor=none;fillColor=#36BCD1;perimeterSpacing=0;fillOpacity=100;" parent="wp2hwnPlKysDd1k0PrAt-1" vertex="1">
                    <mxGeometry x="222" y="4720" width="320" height="30" as="geometry"/>
                </mxCell>
                <mxCell id="wp2hwnPlKysDd1k0PrAt-40" value="" style="html=1;shadow=0;dashed=0;shape=mxgraph.bootstrap.rrect;rSize=17;strokeColor=#DFDFDF;html=1;whiteSpace=wrap;fillColor=#8C8496;fontColor=#000000;verticalAlign=top;align=center;spacing=20;fontSize=14;spacingLeft=170;" parent="wp2hwnPlKysDd1k0PrAt-1" vertex="1">
                    <mxGeometry x="-890" y="4045" width="400" height="200" as="geometry"/>
                </mxCell>
                <mxCell id="wp2hwnPlKysDd1k0PrAt-41" value="" style="html=1;shadow=0;dashed=0;shape=mxgraph.bootstrap.leftButton;rSize=17;perimeter=none;whiteSpace=wrap;fillColor=#1061B0;strokeColor=#DFDFDF;fontColor=#DEE2E6;resizeWidth=1;fontSize=18;part=0;backgroundOutline=0;noLabel=0;" parent="wp2hwnPlKysDd1k0PrAt-40" vertex="1">
                    <mxGeometry width="110" height="200" relative="1" as="geometry"/>
                </mxCell>
                <mxCell id="wp2hwnPlKysDd1k0PrAt-42" value="&lt;font style=&quot;font-size: 50px; color: rgb(255, 255, 255);&quot;&gt;Новое&lt;/font&gt;" style="text;html=1;align=center;verticalAlign=middle;resizable=0;points=[];autosize=1;strokeColor=none;fillColor=none;" parent="wp2hwnPlKysDd1k0PrAt-40" vertex="1">
                    <mxGeometry x="114.99666666666668" y="64.99666666666667" width="170" height="70" as="geometry"/>
                </mxCell>
                <mxCell id="wp2hwnPlKysDd1k0PrAt-43" value="" style="html=1;shadow=0;dashed=0;shape=mxgraph.bootstrap.radioButton2;labelPosition=right;verticalLabelPosition=middle;align=left;verticalAlign=middle;gradientColor=none;fillColor=#FFFFFF;checked=0;spacing=5;checkedFill=#000000;checkedStroke=#ffffff;sketch=0;strokeWidth=7;strokeColor=#CCCCCC;" parent="wp2hwnPlKysDd1k0PrAt-40" vertex="1">
                    <mxGeometry x="356.25" y="45" width="30" height="30" as="geometry"/>
                </mxCell>
                <mxCell id="wp2hwnPlKysDd1k0PrAt-44" value="" style="html=1;shadow=0;dashed=0;shape=mxgraph.bootstrap.radioButton2;labelPosition=right;verticalLabelPosition=middle;align=left;verticalAlign=middle;gradientColor=none;fillColor=#FFFFFF;checked=0;spacing=5;checkedFill=#000000;checkedStroke=#ffffff;sketch=0;strokeWidth=7;strokeColor=#CCCCCC;" parent="wp2hwnPlKysDd1k0PrAt-40" vertex="1">
                    <mxGeometry x="356.25" y="85" width="30" height="30" as="geometry"/>
                </mxCell>
                <mxCell id="wp2hwnPlKysDd1k0PrAt-45" value="" style="html=1;shadow=0;dashed=0;shape=mxgraph.bootstrap.radioButton2;labelPosition=right;verticalLabelPosition=middle;align=left;verticalAlign=middle;gradientColor=none;fillColor=#FFFFFF;checked=1;spacing=5;fontColor=#6C767D;checkedFill=#000000;checkedStroke=#ffffff;sketch=0;strokeWidth=7;strokeColor=#CCCCCC;" parent="wp2hwnPlKysDd1k0PrAt-40" vertex="1">
                    <mxGeometry x="356.25" y="125" width="30" height="30" as="geometry"/>
                </mxCell>
                <mxCell id="wp2hwnPlKysDd1k0PrAt-46" value="" style="html=1;shadow=0;dashed=0;shape=mxgraph.bootstrap.rrect;rSize=17;strokeColor=#DFDFDF;html=1;whiteSpace=wrap;fillColor=#8C8496;fontColor=#000000;verticalAlign=top;align=center;spacing=20;fontSize=14;spacingLeft=170;" parent="wp2hwnPlKysDd1k0PrAt-1" vertex="1">
                    <mxGeometry x="-890" y="4290" width="400" height="200" as="geometry"/>
                </mxCell>
                <mxCell id="wp2hwnPlKysDd1k0PrAt-47" value="&lt;font style=&quot;font-size: 50px; color: rgb(255, 255, 255);&quot;&gt;Новое&lt;/font&gt;" style="text;html=1;align=center;verticalAlign=middle;resizable=0;points=[];autosize=1;strokeColor=none;fillColor=none;" parent="wp2hwnPlKysDd1k0PrAt-46" vertex="1">
                    <mxGeometry x="114.99666666666668" y="64.99666666666667" width="170" height="70" as="geometry"/>
                </mxCell>
                <mxCell id="wp2hwnPlKysDd1k0PrAt-48" value="" style="html=1;shadow=0;dashed=0;shape=mxgraph.bootstrap.radioButton2;labelPosition=right;verticalLabelPosition=middle;align=left;verticalAlign=middle;gradientColor=none;fillColor=#FFFFFF;checked=0;spacing=5;checkedFill=#000000;checkedStroke=#ffffff;sketch=0;strokeWidth=7;strokeColor=#CCCCCC;" parent="wp2hwnPlKysDd1k0PrAt-46" vertex="1">
                    <mxGeometry x="356.25" y="45" width="30" height="30" as="geometry"/>
                </mxCell>
                <mxCell id="wp2hwnPlKysDd1k0PrAt-49" value="" style="html=1;shadow=0;dashed=0;shape=mxgraph.bootstrap.radioButton2;labelPosition=right;verticalLabelPosition=middle;align=left;verticalAlign=middle;gradientColor=none;fillColor=#FFFFFF;checked=1;spacing=5;checkedFill=#000000;checkedStroke=#ffffff;sketch=0;strokeWidth=7;strokeColor=#CCCCCC;" parent="wp2hwnPlKysDd1k0PrAt-46" vertex="1">
                    <mxGeometry x="356.25" y="85" width="30" height="30" as="geometry"/>
                </mxCell>
                <mxCell id="wp2hwnPlKysDd1k0PrAt-50" value="" style="html=1;shadow=0;dashed=0;shape=mxgraph.bootstrap.radioButton2;labelPosition=right;verticalLabelPosition=middle;align=left;verticalAlign=middle;gradientColor=none;fillColor=#FFFFFF;checked=1;spacing=5;fontColor=#6C767D;checkedFill=#000000;checkedStroke=#ffffff;sketch=0;strokeWidth=7;strokeColor=#CCCCCC;" parent="wp2hwnPlKysDd1k0PrAt-46" vertex="1">
                    <mxGeometry x="356.25" y="125" width="30" height="30" as="geometry"/>
                </mxCell>
                <mxCell id="wp2hwnPlKysDd1k0PrAt-51" value="" style="html=1;shadow=0;dashed=0;shape=mxgraph.bootstrap.rrect;rSize=17;strokeColor=#DFDFDF;html=1;whiteSpace=wrap;fillColor=#1061B0;fontColor=#000000;verticalAlign=top;align=center;spacing=20;fontSize=14;spacingLeft=170;" parent="wp2hwnPlKysDd1k0PrAt-1" vertex="1">
                    <mxGeometry x="-890" y="4550" width="400" height="200" as="geometry"/>
                </mxCell>
                <mxCell id="wp2hwnPlKysDd1k0PrAt-52" value="&lt;font style=&quot;font-size: 50px; color: rgb(255, 255, 255);&quot;&gt;Новое&lt;/font&gt;" style="text;html=1;align=center;verticalAlign=middle;resizable=0;points=[];autosize=1;strokeColor=none;fillColor=none;" parent="wp2hwnPlKysDd1k0PrAt-51" vertex="1">
                    <mxGeometry x="114.99666666666668" y="64.99666666666667" width="170" height="70" as="geometry"/>
                </mxCell>
                <mxCell id="wp2hwnPlKysDd1k0PrAt-53" value="" style="html=1;shadow=0;dashed=0;shape=mxgraph.bootstrap.radioButton2;labelPosition=right;verticalLabelPosition=middle;align=left;verticalAlign=middle;gradientColor=none;fillColor=#FFFFFF;checked=1;spacing=5;checkedFill=#000000;checkedStroke=#ffffff;sketch=0;strokeWidth=7;strokeColor=#CCCCCC;" parent="wp2hwnPlKysDd1k0PrAt-51" vertex="1">
                    <mxGeometry x="356.25" y="45" width="30" height="30" as="geometry"/>
                </mxCell>
                <mxCell id="wp2hwnPlKysDd1k0PrAt-54" value="" style="html=1;shadow=0;dashed=0;shape=mxgraph.bootstrap.radioButton2;labelPosition=right;verticalLabelPosition=middle;align=left;verticalAlign=middle;gradientColor=none;fillColor=#FFFFFF;checked=1;spacing=5;checkedFill=#000000;checkedStroke=#ffffff;sketch=0;strokeWidth=7;strokeColor=#CCCCCC;" parent="wp2hwnPlKysDd1k0PrAt-51" vertex="1">
                    <mxGeometry x="356.25" y="85" width="30" height="30" as="geometry"/>
                </mxCell>
                <mxCell id="wp2hwnPlKysDd1k0PrAt-55" value="" style="html=1;shadow=0;dashed=0;shape=mxgraph.bootstrap.radioButton2;labelPosition=right;verticalLabelPosition=middle;align=left;verticalAlign=middle;gradientColor=none;fillColor=#FFFFFF;checked=1;spacing=5;fontColor=#6C767D;checkedFill=#000000;checkedStroke=#ffffff;sketch=0;strokeWidth=7;strokeColor=#CCCCCC;" parent="wp2hwnPlKysDd1k0PrAt-51" vertex="1">
                    <mxGeometry x="356.25" y="125" width="30" height="30" as="geometry"/>
                </mxCell>
            </root>
        </mxGraphModel>
    </diagram>
</mxfile>